<svg viewBox="0 0 550 550" xmlns="http://www.w3.org/2000/svg">
    <path d="M26.8 275C26.8 137.92 137.92 26.8 275 26.8c137.08 0 248.2 111.12 248.2 248.2 0 137.08-111.12 248.2-248.2 248.2-137.08 0-248.2-111.12-248.2-248.2Z" fill="#fa660a" />
    <path d="M112.3 272.3c-2.8-16.7-9.7-32.6-19.9-46.1-4.5-6-10.1-11.7-17.3-13.8-7.2-2.1-16.3.6-19.1 7.6-.9 2.2-.9 5.3 1.2 6.6 1.8 1.1 4.1.3 6.2-.2 7.5-1.8 15.5.9 21.5 5.7s10.2 11.5 13.6 18.4c4.8 9.5 8.2 19.6 10.4 30.1" />
    <path d="M116.9 272.4a105.24 105.24 0 0 0-41.2-28.7c-7-2.7-14.8-4.6-22-2.6-7.2 2-13.5 9.1-12.2 16.5.4 2.4 2.1 5 4.5 5 2.1 0 3.7-1.9 5.2-3.4 5.4-5.5 13.7-7.4 21.3-6.5 7.6.9 14.7 4.4 21.3 8.4 9 5.6 17.4 12.4 24.6 20.1" />
    <path d="M164.19 276.73c3.97.82 7.82 2.3 11.31 4.37 9.3 5.4 16.2 14.5 20.3 24.6 1.5 3.6 1.9 13.93 1.46 15.13-1.86 5.12-15.2 4.73-15.4 3.77-1.08-4.96-10.58-16.43-10.58-16.43s-14.28-5.01-14.92-5.05" fill="#125ea6" />
    <path d="M144.6 279.2c11.5-4.1 24.4-1.2 33.9 6.2 4.5 3.5 8.2 7.9 11.1 12.7 3.1 5 6.2 11.1 6.3 17.1.04 2.28-.47 4.48-1.44 6.45-1.24 2.52-10.42 4.15-10.57 3.32a22.55 22.55 0 0 0-1.49-5.17c-4.2-10.3-13.7-17.7-24.8-18.7-3.8-.4-7.7-.2-11.5-.6-3-.3-5.9-1.3-8.5-2.9-5.1-3.1-8.6-8.1-10.1-13.9-.3-1.2-2.2-1-2.1.3.4 5.7 3.2 11.2 7.5 15.1 2.2 2 4.8 3.5 7.6 4.6 3.4 1.2 7 1.5 10.5 1.6 3.5.1 7 .1 10.5.9a25.86 25.86 0 0 1 17.5 16c.13.34 3.38 5.2 5.44 5.5 5.72.85 14.46-3.54 15.56-7.8 1.7-6.8-1.2-13.9-4.3-19.9a48.2 48.2 0 0 0-11.3-14.8c-5.3-4.8-12-8.4-19.1-9.7-3.6-.7-7.4-.8-11-.4-3.6.4-6.9 1.5-10.2 3.2-.6 0-.2 1.1.5.9Z" />
    <path d="M181.5 322c.2 1.3 1.3 2.4 2.5 2.8 1.3.5 2.6.4 4 .2 4.5-.7 8.7-3.4 11.3-7.2 9.9 5.5 18 14.1 22.9 24.3 1.5 3 2.7 6.3 2.7 9.6.1 6.9-5.3 13.6-12.1 14.8a9.2 9.2 0 0 1-1.9-2.5c-1.9 5.5-6.6 9.9-12.2 11.5-2.9.8-6 .9-8.8-.3-2.8-1.2-5-3.8-5.3-6.7-.2-2.5.9-5 2-7.3 1.8-3.6 3.8-7 6-10.4-2.3-2.5-4.5-5-6.8-7.5-2.5-2.8-5.1-5.7-6.4-9.2-1.3-3.5-1.2-7.8 1.3-10.6" fill="#f6a11c" />
    <path d="M205.97 325.01a55.75 55.75 0 0 1 9.93 10.79c4.2 6.1 9.2 14.6 5.3 22a13.3 13.3 0 0 1-8.06 6.4c1.29-3 1.14-5.77 1.1-6.4a18.83 18.83 0 0 0-1.51-6.48c-.54-1.15-1.32-2.2-2.26-3.7a32.87 32.87 0 0 0-2.29-3.09c-.17-.21-.37-.5-.51-.7-.32-.44-.63.02-.48.24.14.23.29.7.37.9.09.2.44 1.22.63 1.74.2.54.64 2.1 1.01 3.27.8 2.48 1.08 4.41 1.1 5.06.15 4.6-1.08 7.53-1.4 8.56-1.2 3.5-3.8 6.5-6.9 8.4-3.3 2-7.7 3.1-11.4 1.5-1.6-.7-2.9-2-3.6-3.5-.8-1.8-.3-3.8.4-5.6 1.8-4.3 4.4-8.5 6.9-12.4.5-.8.3-1.8-.3-2.5-3.7-4.1-8.1-7.9-11.2-12.5-2.48-3.81-2.58-9.26-.4-13.3.1-.19-2.36-2-2.36-2-4.3 3.7-3.54 11.4-1.04 15.8 1.5 2.6 3.4 4.8 5.4 7 1.94 2.19 3.73 4.45 5.62 6.66-.94 1.13-3.92 6.34-5.82 10.34-1.8 3.8-2.6 8.1 0 11.7 4.9 6.9 14.9 5.8 21 1.3a20.07 20.07 0 0 0 5.93-6.69c.84 1.14 2.67.59 3.97.19a17.48 17.48 0 0 0 11.8-15.2c.3-5.2-2.1-10.3-4.6-14.7a57.6 57.6 0 0 0-13.3-15.85c-2.74-2.28-5.47.71-3.03 2.76Z" />
    <path d="M197.5 317c-1.7 2.5-4 4.5-6.8 5.8-2.5 1.2-7.4 2.3-8.9-1l-.9-.5.06 1.49c.54 4.28 6.33 4.06 9.54 3.11a18.34 18.34 0 0 0 9.04-5.56l2.27-1.02-.6-2.32h-3.71Z" />
    <path d="M215.45 206.21c14.22 23.88 26.79 48.77 35.87 74.96l-9.44 5.7c-9.78-18.62-24.3-38.52-39.31-55.82" fill="#125ea6" />
    <path d="m243.7 285.1-1.2-2.1c-7.6-13.8-16.7-26.8-26.5-39.2a331.3 331.3 0 0 0-15.5-18.2c-5.1-5.5-10.4-11-16-15.9-1.3-1.1-2.6-2.3-3.9-3.4-1.1-.9-2.6.5-1.6 1.6 11.2 11.8 21.8 24 31.9 36.7 10.3 13 19.9 26.8 27.8 41.4.27.49.53.98.78 1.48M254.06 281.35c-.76-2.16-1.56-4.3-2.36-6.45-6.4-17.3-14.3-34.1-23.2-50.3-4.5-8.1-9.1-16.1-14-24-3.9-6.3-9.2-14.8-17.9-13.8-1.8.2-3.3.8-4.7 2-.5.7.4 1.8 1.1 1.3 3.2-2.1 7.5-1 10.2 1.4 2.9 2.5 4.6 6.2 6.5 9.4 4.3 7.5 8.7 14.9 12.9 22.5 8.2 15.2 15.8 30.8 22 46.9 1.6 4.1 3.1 8.1 4.5 12.3" />
    <path d="M161.77 192.66S130.4 219.8 120.4 234.6c-10 14.7-16.97 52.32-16.97 52.32l33.34.58 44-78.7" fill="#125ea6" />
    <path d="M179.3 182.9c-10.7 2.5-19.2 9.6-27.7 16.2-8.6 6.7-16.8 14.1-24.1 22.3-14.5 16.3-25.4 36.8-26.3 59-.4 8.9.9 20.7 10 25 5.1 2.4 11.4 2.5 17 2.3 5.6-.2 11.2-1.1 16.7-2.6 5.2-1.5 10.6-3.4 15.3-6.4 2-1.3 3.9-2.8 5.3-4.7 1.6-2.1 2.4-4.6 2.6-7.3.3-2.8-.2-5.6-.5-8.4-.3-2.8-.5-5.7-.5-8.6 0-5.8.6-11.6 2.3-17.1 2.8-9.6 8.6-18.5 17.1-23.8 8.7-5.5 19.2-8.2 25.6-16.9 1.4-1.9 2.4-4 3.1-6.3.6-2.1-2.6-2.9-3.2-.9-3 9.5-13.4 13.6-21.5 17.7-4.6 2.3-8.9 4.9-12.6 8.5-3.4 3.3-6.2 7.2-8.4 11.4-4.9 9.5-6.6 20.3-6 30.9.1 2.7.5 5.5.7 8.2.2 2.5.4 5.3-.7 7.6-1.9 4.2-6.4 6.3-10.4 8-9.8 4.2-20.6 5.7-31.2 4.7-2.5-.2-5.1-.4-7.4-1.4-1.7-.7-3-1.8-3.9-3-2.4-3.1-3.2-7.2-3.4-11-.7-10 1.4-20.2 4.8-29.6 3.5-9.8 8.8-18.8 15-27.1 6.2-8.3 13.5-15.8 21.2-22.7 7.6-6.9 15.5-14 24.5-19.1 2.3-1.3 4.7-2.4 7.2-3.2 1.1-.2.6-1.9-.6-1.7Z" />
    <path d="M160.68 221.33a2425.5 2425.5 0 0 0-17.76 20.23l-8.71 18.8s-2.87 21.73-2.81 30.34l20.48 8.04 12.47-9.63 2.34-36.37s8.29-16.28 9.67-17.81" fill="#fff" />
    <path d="M188.3 200.7c-3.7 1.1-7.3 2.5-10.6 4.5-3.3 2.1-6.4 4.5-9.3 7-6.1 5.3-11.5 11.4-16.9 17.5-5.7 6.4-10.9 13.1-14.8 20.7-3.9 7.5-5.7 16-6.6 24.3-.4 4.2-.6 8.5-.7 12.7 0 3.6-.2 7.5 1 10.9 1.3 3.6 4.2 6.1 8.1 6.4 4.1.4 8.2-1.5 11.8-3.3 3.9-1.9 7.7-4.1 11.2-6.7 1.7-1.3 3.1-2.8 3.9-4.8.8-2 .8-4.1.9-6.2.3-8.7-.2-17.4 1.2-26 1.3-7.8 4.4-15 9.6-21 4.8-5.5 10.9-9.8 17.4-13.1 1.6-.8 3.3-1.6 5-2.3.9-.4 1.6-1.2 1.3-2.3-.2-.9-1.4-1.7-2.3-1.3-13 5.3-25.5 14.3-31.3 27.5-3.4 7.6-4.3 15.9-4.6 24.2-.2 4.2-.2 8.4-.4 12.7-.1 1.9 0 3.8-.6 5.7-.5 1.8-1.9 2.9-3.3 4a80.1 80.1 0 0 1-11 6.3c-2.9 1.4-7 3.5-10.2 2-2.9-1.2-3.4-4.8-3.5-7.6-.2-3.8-.1-7.7.1-11.6.4-8 1.4-16.1 3.7-23.8 1.2-3.9 2.6-7.8 4.7-11.4 2-3.6 4.6-7 7.2-10.2 5-6.1 10.5-12 16.1-17.5 5.4-5.3 11.3-10.1 18.1-13.6 1.7-.9 3.4-1.8 5.3-2.5.7-.2.4-1.5-.5-1.2Z" />
    <path d="m195.3 178.85-21.37-.5-1.62 4.5-6.66 2.55-9.07 8.6s2.64 2.77 4.04 3.77l10.68-3.1 9.19 5.87s20.92 32.57 22.11 31.46c1.13-.96 4.28-8.78 4.28-8.78l5.53-2.53 3.5-5.78-1.47-8.56 5-9.52-24.14-17.98Z" fill="#fff" />
    <path d="M203.16 233.14c2-.67 4.88-4.52 5.22-9.1a11.58 11.58 0 0 0 8.32-6.34 13.95 13.95 0 0 0 1.2-5.09c.06-1.7-3.58-11.85-5.48-11.65.4 2.73.99 3.03 1.55 5.16 2.27 8.7-1.27 14.38-7.47 14.78-.9.1-1.7.7-1.7 1.7.1 3.2-1.2 6.4-3.7 8.4-1 .8-.24 3.04 2.06 2.14ZM183 192.9c2.3.9 3.8 3.2 4.6 5.4.4 1 .6 2 .7 3 .1 1.2-.2 2.2-.5 3.4-.6 1.8 2 2.7 3 1.3.76.31.8 1.4.8 1.9.1 1.6-.1 3.3-.3 4.9-.2 1.3 1.6 2.1 2.6 1.5 2.1-1.3 4.8-.6 5.5 1.9.3 1 .1 2.5 1.2 3.1 1.2.7 2.2-.5 2.4-1.6.6-2.4-1.2-5.2-3.2-6.5a6.92 6.92 0 0 0-4.82-1c.03-1.28.62-3.6-1.08-5.9a3.8 3.8 0 0 0-2.67-1.5c-.19-1.96-.13-3.2-1.63-5.6-1.5-2.5-3.79-3.73-6.4-4.7-.33-.12-.5.2-.2.4Z" />
    <path d="M187.9 193.92c7.2-8.6 13-17.02 18.8-26.62 2.8 4.1 6.6 7.6 10.9 10 2.7 1.5 5.7 2.7 7.3 5.3-8.2 6.4-15.7 13.5-22.4 21.4-2.2 2.6-4.4 5.3-7.3 7.2.2-2 .3-4.1-.4-6-.7-1.9-2.7-3.5-4.7-3.1.27-2.97-2.2-8.18-2.2-8.18Z" fill="#e30613" />
    <path d="M208.1 195.1c-2.4 2.5-4.7 5-7 7.7-1.34 1.6-2.68 3.23-4.18 4.68-.45-1.86-.62-2.72-1.32-3.78a6.87 6.87 0 0 0-3.94-3.01c.01-2.18-.87-5.18-2.13-6.5 2.46-3.22 12.21-16.2 11.82-15.98-.07.04-2-1.05-2.78-1.2-1.1 1.38-10.68 14.68-12.22 17.62 2.15 4.34 2.35 5.37 2.15 7.57-.1.8.8 1.7 1.6 1.6 4.1-.5 3.4 5.1 3.2 7.6-.1 1.4 1.7 2.4 2.8 1.6 2.9-1.9 5.1-4.4 7.3-7 2.3-2.7 4.7-5.3 7.1-7.8l-2.4-3.1Z" />
    <path d="M163.4 196.3c8.6-5.23 15.38 2.68 17.67 5.78 18.6 24.43 37.09 51.85 50 79.66l-8.75 6.68c-17.5-26.5-46.08-54.83-69.82-73.22l10.9-18.9Z" fill="#125ea6" />
    <path d="M232.2 290.6c-1.7-4.6-4-9.2-6.2-13.6-8-16.4-17.5-32.2-27.7-47.4-5.1-7.6-10.4-15-15.9-22.4-2.4-3.3-4.88-6.62-8.28-9.02-3-2.1-5.62-3.15-10.03-.8-3.37 1.8-5.99.92-7.49.12-3-1.8-1.2-5.5.5-7.5a26.52 26.52 0 0 1 13.53-8.08c-.18-.7-.28-1.84.17-2.72 1.6-3 5.8-2.7 8.7-2.8 7.3-.2 14.9.1 21.1 4.5.8.6.1 1.8-.7 1.7-4.6-2.8-9.98-3.41-15.25-3.45-2.6-.03-4.76.06-7.36.35-.9.1-3.48.18-3.4 1.87 3.02-.59 2.53 2.71 1.43 2.88-7.35 1.13-10.65 3.28-14.32 6.65-.9.8-1.8 1.6-2.4 2.6-.2.3-.84 1.91.66 2.52 1.48.61 2.61.1 3.34-.42 1.33-.94 2.7-1.9 4.3-2.3 8.6-1.9 14.7 5.9 19.3 11.9 5.5 7.2 11 14.6 16.2 22.2 10.4 15.1 19.9 30.7 27.9 47.1 2 4.2 4 8.4 5.8 12.6M226.03 289.54a254.9 254.9 0 0 0-8.13-11.44c-4.4-6-9.2-11.8-14.1-17.4-10-11.4-20.7-22.2-32.2-32-6-5.1-12.2-10-18.6-14.5-1-.7-2.3.9-1.4 1.8 12.3 10.6 24.2 21.7 35.5 33.4 11.6 11.9 22.5 24.6 31.8 38.4 1.03 1.58 2.02 3.18 2.98 4.79M201.83 308.26c15.29-2.26 36.08-8.36 44.47-10.97 28.2-9.5 56.8-18.39 84.9-28.19 7.2-2.6 14.4-5.1 21.5-7.8 2-.8 3.8-2 5.8-2.8 1.7-.7 3.3-1.3 5-2 3.6-1.4 7.2-2.9 10.8-4.3 14.2-5.7 28.3-11.7 42.2-18.2 1.1-.6 2.9-.4 3.5.9 3.5 7.3 5.4 15.3 5.1 23.4 0 1.1-.8 2.3-1.9 2.5-16.6 3.1-33 7.1-49.3 11.6-28.9 8.1-57.3 18-85.6 28.1-28.3 10.2-56.6 20.3-85.2 29.8-1.5.5-3.1-.9-3.1-2.4-.1-5.8.01-11.7 0-17.5 0-1.6.91-2 1.83-2.14Z" />
    <path d="M204.72 310.92s8.27-1.27 21.4-4.63c7.36-1.89 36.72-11.65 41.33-13.11 3.92-1.24 8-2.45 13.23-4.15 5.21-1.68 10.9-3.41 16.17-5.09 10.86-3.46 20-6.43 20-6.43s22.55-7.62 32.57-11.22c3.2-1.16 6-2.23 7.78-2.63 4.68-1.04 7.8-2.49 11.23-3.72 2.23-.8 5.86-2.24 10.06-3.96a1662.34 1662.34 0 0 0 30.87-13.07c2.1-.96 7.03-3.14 7.32-3.3 1.2 2.72 3.54 10.67 3.56 16.56-3.29.81-5.42 1.28-6.82 1.67-1.9.53-22.44 5.42-30.78 7.58-1.44.37-6 1.6-8.24 2.2-3.73 1-12.6 3.4-26.87 7.69-8.61 2.59-17.83 5.81-25.25 8.24-9.93 3.26-26.91 9.37-26.91 9.37s-14.1 5-21.12 7.56c-3.91 1.43-7.93 2.84-7.93 2.84s-33.83 12.2-41.03 14.58c-4.41 1.45-17.48 5.77-20.31 6.63-.15-5.56-.15-9.75-.26-13.61Z" fill="#936037" />
    <path d="M240.68 286.08c-.27-2.01-.6-3.94-.88-4.98-.3-1-.6-2.1-1.4-2.8a4.6 4.6 0 0 0-3.4-1c-2.4.2-4 2.1-5.7 3.5-4.4 3.6-8.43 6.87-12 11.2-.93 1.12-.54 3.52.1 4.9a12 12 0 0 0 2.15 2.84c.92.96 1.79 1.95 2.8 2.56.25.15.22-.31.07-.02-1.48 2.96-1.77 6.16-1.32 9.52.4 3.4 1.2 7 2.7 10.2 1.3 2.8 3.9 5.5 7.3 5.2 2.62-.21 3.84-2.08 4.29-4.26.94.56 3.71 2.16 6.71.16a4.05 4.05 0 0 0 1.46-1.8c.85.34 1.58.93 3.84.7 3.08-.3 5.09-3.05 4.79-6.72 2.61 2.54 5.4.9 7.01.12 3.01-1.44 6-5.1 5.34-8.73 0 0 1.39-.71 1.96-1.17 2.8-2.3 4.3-5.9 4-9.4-.3-3.5-2.5-6.5-5.9-7.7a8.76 8.76 0 0 0-4.8-.09 16.83 16.83 0 0 0-1.4-4.51c-1-2.2-2.8-3.9-5.4-3.9-2.5 0-4.8 1.2-6.8 2.4-2.4 1.4-3.98 2.65-5.52 3.78Z" />
    <path d="M222.5 297.85c.99.9 1.8 1.19 4 .03 2.07-1.08 2.82-1.58 5.49-3.04 1.55-.86 2.8-1.65 3.97-2.22 1.97-.96 1.85-.78 1.57-3.46a97.03 97.03 0 0 0-1.1-7.31c-.1-.6-.12-1.26-1.45-1.1-1.11.14-2.11.19-4.01 1.6a172.2 172.2 0 0 0-10.8 9.31c-1.98 1.84-.72 3.03-.39 3.42.6.69 1.87 1.99 2.72 2.77ZM225.39 304.08a9.43 9.43 0 0 0-1.11 4.37c-.07 2.76.51 5.24.63 5.85.25 1.2.93 3.51 1.06 3.93.17.56.63 2.17 1.3 3.26 1.35 2.22 5.01 4.68 4.94-1.09-.02-1.42 1.64-2.27 2.59-1.35.33.33 2.2 1.68 3.61 1.83 1.45.17 2-.48 2.01-.98.02-.39-.44-1.01-.76-1.48-.59-.83-.38-1.92.55-2.36 1.2-.58 2.28.42 2.42.52.22.16.71.82 1.02 1.32.4.65 1.8.89 2.73.73.49-.08 1.74-.26 1.85-1.8.05-.63-.05-1.54-.3-2.66-.22-1.06-.42-2.2-.76-3.58-.31-1.26-.69-2.83-1-3.86-.72-2.41-.66-2.49-1.38-4.17-.35-.84-.74-1.76-.9-2.6a3.4 3.4 0 0 1 .25-2.38c.36-.65 1.17-.88 2.2-1.42.23-.12.37-.36-.26-.7-1.01-.52-2.58-.7-3.03-.77a7.1 7.1 0 0 0-3.76.56 101.3 101.3 0 0 0-6.45 3.36c-1.38.8-6.48 3.64-7.45 5.47ZM256.6 290c-1.44.48-4.19 1.45-6.39 2.6-3.93-2.7-7.32-1.8-8.9-1.66-.18-2.2-.23-2.12-.3-2.84 2-1.45 3.87-2.58 7.44-4.6 1.52-.87 4.1-1.95 5.82-.85 2.03 1.29 2.31 5.1 2.34 7.36ZM262 296.06a30.73 30.73 0 0 0-1.93 4.7 8.01 8.01 0 0 0-.32 2.88c.06.68.32 1.23.54 1.35.33.18.73.13 1.06.06a7.92 7.92 0 0 0 1.53-.55c.84-.37 1.47-.7 2.12-1.18a8.4 8.4 0 0 0 2.25-2.32 7.82 7.82 0 0 0 1.35-4.48c-.02-.47-.02-1.6-.7-3.05a6.51 6.51 0 0 0-1.8-2.2c-.58-.41-1.82-1.36-4.17-1.52-.75-.06-2.5.26-3.77.9-.06.02-1.3.54-2.2 1.1a36.9 36.9 0 0 0-2.78 1.88c-.32.26.06 1.08.26 1.58.26.65 1.21 1.06 2.38 1.3.72.15 1.09.28 1.3.36.85.32 1.33-.04 1.56-.19.73-.5 1.42-1.97 1.58-2.38.1-.26.2-.45.34-.59.21-.2.47-.26.58-.29.98-.2 1.66.44 1.68.9.03.7-.21 1.03-.45 1.21-.28.21-.36.43-.41.53ZM258.27 307.6c-.83 1.38-2.42.59-2.73-.27-.41-1.18-.95-2.5-1.44-3.78-.32-.83-.6-1.65-.91-2.38-.7-1.62-1.78-2.27-2.64-2-.47.14-.84.86-.8 2.21.05 1.4.3 2.94.77 4.43a20.1 20.1 0 0 0 3.08 5.86c.7.97 1.27 1.57 1.59 1.7.28.11 1.05-.04 1.93-.3a6.59 6.59 0 0 0 4.94-5.3c-1.18.25-2.23.4-3.79-.17Z" fill="#fff" />
    <path d="M124.8 284.9c10.8-.9 21.6 4.4 28.6 12.6s10.5 19.1 11 29.9c.2 3.9-2.54 13.3-3.13 14.13-3.4 4.63-16.54.06-16.42-.96 1.23-10.6-4.25-21.87-13.65-27.07-4.9-2.7-10.7-3.9-15.4-6.9-7.3-4.7-11.3-14.1-9.7-22.7" fill="#125ea6" />
    <path d="M124.8 285.5c12.1-.1 23.1 6.7 29.6 16.6 3.4 5.2 5.6 11.1 6.8 17.1 1.1 5.8 1.9 12.6-.3 18.2a13.54 13.54 0 0 1-3.31 4.8c-2.25 2.1-11.06-.28-10.96-.93.29-1.96.42-3.94.27-5.97-.8-11.1-7.6-20.9-17.8-25.4-3.2-1.4-6.6-2.5-9.8-4-2.8-1.4-5.3-3.2-7.3-5.6-3.8-4.6-5.5-10.7-4.9-16.6.1-1.3-1.8-1.4-2.1-.3-1.6 5.7-.5 12.2 2.5 17.3 1.5 2.6 3.6 4.9 6 6.7 2.7 2 5.8 3.3 8.9 4.5 3 1.2 6.1 2.2 8.9 4a25.64 25.64 0 0 1 11.7 20.5c0 1.3 0 2.7-.2 4-.2 1.4 16.6 6.8 20.1 2.1 4.2-5.6 4-13.2 3.2-19.8-.8-6.8-2.8-13.4-6.1-19.4-3.6-6.3-8.8-11.9-15.3-15.4-3.1-1.7-6.5-3-9.9-3.7-3.4-.7-6.8-.7-10.2-.3-.7.5-.5 1.6.2 1.6Z" />
    <path d="M145.4 338.1c-.2 1.3.4 2.7 1.5 3.5 1 .9 2.4 1.3 3.7 1.5 4.5.8 9.3-.3 13-3.1 7.5 8.5 12.3 19.3 13.6 30.5.4 3.3.5 6.8-.6 10-2.2 6.6-9.5 11-16.3 10-.5-.9-.8-1.9-1-3-3.6 4.5-9.5 7.1-15.3 6.8-3-.2-6-1.1-8.2-3.2-2.2-2.1-3.4-5.2-2.7-8.1.6-2.5 2.5-4.4 4.3-6.2 2.9-2.8 5.9-5.4 9.1-7.8-1.3-3.1-2.6-6.2-3.9-9.4-1.4-3.5-2.9-7-3-10.8-.1-3.8 1.4-7.8 4.7-9.6" fill="#f6a11c" />
    <path d="M163.93 337.89c-.44-.09-.87.45-1.23.71-2.5 1.9-5.5 3.2-8.7 3.4-2.7.2-7.7-.3-8-3.8-.2-.6-.9-.8-1.1-.2-1.6 4.5 3.8 6.4 7.2 6.8a18.3 18.3 0 0 0 11.06-2.26" />
    <path d="M162.79 342.12c2.14 2.14 8.61 13.08 10.81 20.98 1.1 4.1 1.9 8.5 1.7 12.7-.2 3.8-1.6 7.1-4.5 9.6a13.2 13.2 0 0 1-9.47 3.3c1.98-2.6 2.43-3.9 2.57-4.24 1.14-2.78 1.67-4.62 1.42-7.7-.18-2.15-.52-3.7-1.08-5.67-.19-.67-.7-2.39-1-3.3l-.15-.47c-.2-.47-.77-.2-.7.04.03.1.04.23.05.3.07 1.1.07 2.63.06 3.03-.08 2.49-.1 3.59-.15 4.14-.32 3.43-.84 4.88-1.06 5.45a18.82 18.82 0 0 1-3.39 6.02c-2.5 3.1-6 5.2-9.8 5.9-3.7.7-8.3.2-11.1-2.6a6.7 6.7 0 0 1-2-4.6c0-2 1.1-3.7 2.5-5.1 3.2-3.4 6.8-6.4 10.5-9.3.5-.4.8-1.4.5-2-2.2-5.3-5.2-10.5-6.6-16.1-1.2-4.6-.3-9 3.5-12.1 1.1-.9-.1-3-1.4-2.5-5.2 2-6.6 8.3-5.9 13.3.4 3.1 1.6 6 2.8 8.8 1.14 2.8 2.12 5.6 3.28 8.4-1.1.88-5.88 4.8-8.88 7.9-2.8 2.9-4.8 6.3-4 10.5 1.6 8.4 11.7 10.8 18.8 9 3.11-.81 6-2.34 8.4-4.42.89 1.72 2.9 1.43 4 1.42 2.2-.02 4.3-.4 6.3-1.3 4-1.6 7.5-4.7 9.2-8.7 2.2-4.9 1.7-10.5.8-15.6-.8-4.9-2.4-9.7-4.4-14.2-2.3-5.2-5.6-9.9-9.4-14.1l-2.98.46.77 2.76Z" />
    <path d="M250.1 96.8c-10.5-1.4-21.3 1.8-30 7.8s-15.3 14.8-19.5 24.5c-6.1 13.9-7.5 30.2-2.1 44.4 6.2 16.1 21.1 28.5 38 32.1 16.9 3.6 35.3-1.6 48.3-13 15.6-13.8 22.8-36.9 16.5-56.7" fill="#e30613" />
    <path d="M243.02 94.15c-3.47.11-6.95.66-10.32 1.65-22.9 6.5-37.4 29.5-40 52.2-1.3 11.5.8 23.4 6.6 33.5 5.1 8.7 13 16.1 21.8 20.9 19.4 10.5 43.9 8 61.3-5.4 16.1-12.4 25.6-34.4 21.8-54.6-.5-2.5-1.85-6.48-3.06-8.78l-2.38.8c.76 1.22 1.54 4.18 1.74 5.28.2 1.3.5 2.5.7 3.8.3 2.3.5 4.7.5 7 0 4.8-.6 9.6-1.8 14.2-2.5 9.3-7.5 17.9-14.5 24.6-14.5 13.9-37 19.2-55.9 12-8.6-3.3-16.7-9.1-22.1-16.6-6.1-8.4-9.5-18.2-9.8-28.5-.5-20.9 10.4-43.1 29.4-52.8 3.71-1.9 7.8-3.3 11.97-4l4.05-5.25Z" />
    <path d="m273.4 188.2-44.05-37.99-14.33 10.88-7.03 19.96 7.91 23.35 11 10.2 21.35 9.7 16.55 6.3c17.2 3.9 36-2.4 48.7-14.7l11-13.3 7-16.1-20.88 13.3-23.49 3.59-11.22-5.2-2.51-9.99Z" fill="#f6a11c" />
    <path d="M277.72 198.82c2.06-.13 5.97-.88 7.78-1.52 8.5-2.9 14.6-10.2 18.3-18.2 2-4.2 3.3-8.7 4-13.3.6-4.1.8-8.8-2.3-12.1-2.7-2.9-7.2-3.5-10.8-2.5-4.2 1.2-7.6 4.3-10.8 7.2-3.5 3.4-6.8 7.1-9.7 11.1l-9.9 15.3c2.2.8 4.5 1.8 6.3 3.3 1.7 1.5 2.5 3.5 3 5.6.22 1.08.26 1.8.41 2.91l3.71 2.2ZM210.23 178.54c.14-1.08.32-2.16.57-3.24 1.1-4.7 3.2-9.2 6.2-13.1 2.6-3.5 6.1-7.7 10.5-8.7 1.9-.4 3.9-.2 5.4 1.2 1.5 1.3 3.88 3.58 4.97 6.81l1.51-3.6c-1.24-2.63-3.68-8.41-9.58-8.61-5.6-.2-9.7 3.9-12.9 8-3.4 4.4-6.4 9.1-8 14.5a39.27 39.27 0 0 0-1.46 6.9c-.45 3.89 1.66 10.1 2.06 12 .8 4.8 1.9 9.8 4.3 14.1 2.4 4.2 6.2 7.3 10.1 10.1 8.2 6 17.6 10.2 27.7 11.6 2.7.4-1.48-3.98-4.32-4.66a56.35 56.35 0 0 1-18.18-8.04c-4-2.7-8.4-5.7-11.1-9.7-2.8-4.2-4.1-9.4-5.5-14.2-.6-2-2.74-7.63-2.27-11.36Z" />
    <path d="M236.7 103.2c10.7-18.7 27.3-34.1 46.8-43.3-1.9 3.2-3.8 6.4-5.6 9.7 29.8-13.4 67.5-6.3 90.4 16.9-5.5-1.8-11.6-1.9-17.2-.3 1.8 3.6 23.35 21.81 21.4 41.5-3.8-11.28-22.1-15.1-27.5-16.2 5.8 10.1 6.6 22.8 2.3 33.5.05-14.9-22.97-21.39-25.9-22.3 4.8 4.5 7.7 11 7.9 17.6-11.62-15.76-27.6-8.6-32.1-4.4" fill="#e30613" />
    <path d="M237.5 103.6c8.7-14.2 20.5-26.5 34.6-35.4 1.96-1.22 3.94-2.37 5.95-3.46-1.33 2.22-.25.36-2.15 3.56-1.2 2 1.1 3.8 3 3 5.7-2.5 11.7-3.9 17.8-4.9a82.72 82.72 0 0 1 53 9.5 71.33 71.33 0 0 1 9.18 6.1c-1.18-.04-3.83-.07-8.58 1.2-1.9.5-2.6 2.6-1.7 4.3 2 3.7 5.2 6.3 8.2 9.1 2.8 2.6 5.1 5.6 7.1 8.8a45.24 45.24 0 0 1 5.43 13.8c-5.2-4.72-12.53-7.7-23.73-10.1-1.9-.4-3.5 1.5-2.5 3.3a37.77 37.77 0 0 1 4.14 24.86c-1.76-2.96-2.79-5.1-6.54-8.26-5.38-4.52-11.9-7.1-18.6-9.1-2.5-.8-4.5 2.6-2.6 4.5a25.49 25.49 0 0 1 6.06 9.04c-.62-.47-.75-.59-1.86-1.34a22.17 22.17 0 0 0-19-2.9c-1.7.5-3.25 1.34-4.75 2.24-1.5.9-2.65 2.06-3.95 3.26-1.3 1.2.7 3.2 2 2 1-1 2.27-1.74 3.48-2.43 1.23-.7 2.72-1.07 4.12-1.47 2.8-.9 5.8-1.1 8.6-.8 5.4.7 11 4 13.3 9 .8 1.8 3.3.7 3.5-.9.35-4.21-.63-8.49-2.53-12.3 2.42.94 4.91 1.76 8.53 4.6 3.93 3.09 7.5 7.3 8 12.4.3 2.5 3.3 2.9 4.2.6a41.27 41.27 0 0 0-.3-30.95c2.27.6 6.7 1.25 11.7 3.85 4 2.1 8.1 5.4 9.7 9.7.8 2.3 4.2 2 4.3-.6.5-8.3-1.6-16.9-5.7-24.1-2-3.6-4.5-7-7.4-9.9-1.8-1.86-3.83-3.5-5.54-5.4 2.38-.24 6.34-.5 11.44 1.1 2.9.9 4.9-2.9 2.9-4.9A82.88 82.88 0 0 0 336.8 64c-12.6-4-26.1-5-39.2-3a73.79 73.79 0 0 0-14.81 3.95c1.3-2.38.51-.95 2.31-4.15 1-1.8-1-3.7-2.8-2.8-15.2 7.6-28.6 18.8-38.8 32.4-2.9 3.9-5.5 8-7.8 12.2-.3 1.1 1.2 2 1.8 1Z" />
    <path d="M230.86 197.52c-2-5.9-4.99-17.2-4.99-17.2l-13.76-3.01-9.79 3.32-3.92 7.15 3 7.01 8.6 2.51 9.91-1.6 10.95 1.82Z" fill="#eb5a3f" />
    <path d="M222.5 177.4c-1.6-.5-3.1-.9-4.8-1.1-3.1-.5-6.3-.5-9.4.2-5.6 1.2-10.6 5.2-11.2 11.2-.7 6.5 5.4 11.1 11.5 11.4 3.6.1 7-1.5 10.6-1.7 3.7-.2 8.85.67 12.15 2.37 0 0-.06-1.66-.16-3.37-5.1-2.5-10.49-3.1-15.99-1.9-2.7.6-5.4 1.6-8.2 1-2.5-.6-5.2-2.2-6.1-4.7-1.7-4.7 2.3-9.2 6.5-10.6 5.2-1.8 10.97-1 16.1.9.2.07 1.57.53 2.53 1.54l-.5-3.79c-.59-.55-2.63-1.33-3.03-1.45Z" />
    <path d="M231.4 194.06c2.32 8.86 6.6 17.44 13.3 23.54 6 5.5 13.3 9.5 21.3 11.1 8.7 1.8 17.7.8 26-2.1 8.5-3 16.2-8.1 22.3-14.7 3.4-3.7 6.5-7.8 9.3-12 2.7-4 3.54-5.9 4.54-8.19-2.97 1.98-6 3.92-9.14 5.69-7.9 4.4-16.5 7.7-25.7 7.6-4-.1-8.2-.7-11.9-2.3a28.51 28.51 0 0 1-9.4-6.9c-.69-.75.3-1.6 1.1-.8 3.2 2.9 7.3 4.6 11.5 5.6 17 4.1 32.6-6.6 45.8-15.9 1.4-1 3.6.3 3.5 2-.5 6.2-3.3 11.6-6.8 16.6-3.6 5.1-7.4 10.2-11.9 14.5-13.8 13.3-34.8 20.1-53.5 14.4a45.78 45.78 0 0 1-28.6-25.3c-1.54-3.63-3.4-8.18-4.54-12-.4-1.33-1.2-3.78-2.16-7-1.39-4.59-1.71-7.27-2.1-10.1-.5-4.2 0-7.19.48-9.03a17.2 17.2 0 0 0-6.48 3.83c-.8.7-2-.2-1.5-1.1 2.4-4 6.5-6.2 11-6.7 1.3-.1 2.2 1.6 1.5 2.6-.5.8-1.2 1.5-1.6 2.3-.4.7-.5 1.7-.6 2.5-.1 2 0 4 .3 5.9.34 2.15.77 4.74 1.35 7.02.99 3.88 2.2 7.26 2.65 8.94Z" />
    <path d="M209 185.8c3.5-1.1 7.8-1.3 11.3.2 1.5.7 2.9 1.6 4.1 2.7 1.2 1.1 2.2 2.4 3.4 3.6 1.1 1.1 2.7-.3 2-1.6-.8-1.6-2.5-3-3.9-3.9-1.6-1-3.3-1.8-5.1-2.3-4.1-1.2-8.1-1.3-12 .3-.7.2-.5 1.2.2 1ZM237.3 160.9c-.07-3.1.4-6.2 1.2-9.2 1.6-5.9 4.7-11.3 9.5-15.1 4.1-3.3 9-5.4 14.2-5.8 5.4-.4 11.3 1.2 14.8 5.7 3.4 4.4 4.8 10.4 4.8 15.9 0 5.7-1.5 11.4-3.8 16.6-4.3 9.7-14.52 21.56-25.2 19.9-5.19-.8-9.3-4.4-11.6-9-3.52-6.41-3.77-13.4-3.9-19Z" />
    <path d="M240.03 161.13c0-14.4 10.36-26.71 23.87-26.44 10.36.2 16.55 9.8 12.55 27.03-3.25 14.03-11.56 23.97-21.57 23.97-10 0-14.85-10.16-14.85-24.56Z" fill="#fff" />
    <path d="M267.48 182.18c9.91-14.4 22.22-27.86 30.43-27.54 10.43.4 5.25 17.16.68 25.47-5 9.06-13.33 14.8-21.56 14.22.48-8.24-7.2-11.32-9.55-12.15Z" fill="#fff" />
    <path d="m263.1 185.5 7.46-8.55 5.04-7.95c-.1-2.5-1.9-4.6-4.5-4.6-2.2 0-4 1.3-5.6 2.6-3 2.4-5.5 5.2-7.8 8.3-2.4 3.3-4.9 7.1-5.2 11.3l10.6-1.1ZM276.89 194.9c2.05-2.04 5.71-5.3 7.51-7.6 1.6-2.1 3.5-4.4 3.8-7.1.2-1.7-.4-3.4-1.9-4.3a4.8 4.8 0 0 0-3.9-.5c-2.51.77-4.38 2.08-6.7 4.33a18.18 18.18 0 0 0-4.03 5.8l5.22 9.38ZM267 115.2c1.2-2.4 4.3-.6 5.6.7 2 2.2 3.3 5.3 4.6 7.9 1.4 2.9 2.4 5.9 3.2 8.9.4 1.6.8 3.1 1.1 4.7.3 1.6.4 4.1 1.7 5.1 1.1.9 2.4.7 3.3-.4.7-1 .5-2.1.4-3.2-.1-1.1-.2-2.2-.5-3.3-.4-1.9-.8-3.7-1.4-5.6-1.2-3.9-2.9-7.8-4.9-11.3-1.8-3.1-4-6.7-7.6-7.9-2.8-1-6.4.1-7.7 3-.6 1.6 1.5 2.9 2.2 1.4ZM293.75 149.55c.73-1.55 2.52-2.5 3.9-3.38a20.7 20.7 0 0 1 5.53-2.33c1.84-.44 3.67-.68 5.65-.4.8.06 1.3.2 2.16.58.38.24.85.58 1.03.9 1.11 2.2 4.61 1.2 4.23-1.34-.9-5.7-9.05-5.6-13.26-4.47a27.96 27.96 0 0 0-7.43 3.47c-2.13 1.42-4 3.16-4.9 5.6-1.21 2.3 2.1 3.39 3.09 1.37Z" />
    <path d="M279.87 178.69c1.43-1.41 3.05-2.1 3.62-1.52.56.57-.14 2.18-1.57 3.6-1.44 1.4-3.06 2.09-3.62 1.51-.57-.57.14-2.18 1.57-3.6ZM266.18 169.18c1.46-1.62 3.33-2.36 4.19-1.65.85.7.36 2.6-1.1 4.21-1.45 1.62-3.33 2.36-4.18 1.65-.85-.71-.37-2.6 1.1-4.21Z" fill="#fff" />

    <path d="M386.8 265c1.8 5.3 3.4 10.6 4.7 16 1.3 5.7 2.2 11.3 3 17.1 1.4 11.3 1.8 22.7 1.1 34.1a137 137 0 0 1-1.7 15.7c-.2 1.2.2 2.3 1.4 2.8 1.1.4 2.4.1 3-1 12.5-22.2 17.3-48.7 13.1-73.8-1.2-7-3.1-13.9-5.7-20.5-.4-1.3-19.2 8.6-18.9 9.6Z" />
    <path d="M407 257.8c-1.7-12.8-5.6-24.9-11.7-36.3-6-11.2-13.8-21.4-23.1-30-5.3-4.9-11.1-9.3-17.2-13.1-1-.6-2.4-.3-3.1.6-.8 1-.6 2.2.2 3.1 6.3 7.8 11.6 16.6 16.2 25.5 5.4 10.3 10 21.2 13.3 32.4 1.8 6 3.1 12 4.2 18.1.2 1.1 21.4 1 21.2-.3Z" />
    <path d="M400.23 335.07c-.04-1.63 3.17-33.47-7.94-62.9l14.53-2.89c5.39 27.67-.96 54.07-6.59 65.8ZM385.94 241.96c-4.75-21.93-15.52-41.1-21.84-51.35 9.22 7.79 23.78 21.18 34.06 46.32l-12.22 5.03ZM376.5 247.6c2.5 7.9 4 16.1 4.8 24.3l31.9-6.3-7.2-29c-10.4 3.3-20.5 7.3-30.4 12" fill="#9d9d9c" />
    <path d="M376.42 246.53c1.65-.9 3.08-1.63 5.58-2.73 2.5-1.2 5-2.4 7.6-3.4 5.2-2.2 10.4-4.3 15.7-6.1 1.3-.4 2.7.5 3 1.7 0 0 .18.88.97 3.8.88 3.53 2.73 10.7 2.73 10.7 1.2 4.8 2.6 9.6 3.6 14.5.2 1.2-.4 2.9-1.8 3.1-5.4.7-10.8 2-16.2 3-2.7.6-5.5 1.1-8.2 1.6-2.6.5-3.97 1.12-6.67 1.12a2.6 2.6 0 0 1-2.67-2.3c-.33-2.09-.76-4.22-1.06-6.32-.2-1.9-.5-3.8-.9-5.7-.8-3.9-1.27-6.35-2.42-10.08-.49-1.55-.6-2.16.74-2.89Z" />
    <path d="M378.47 249.14c1.2 3.11 3.4 13.6 4.3 20.54 5.2-1.06 22.88-4.75 27.27-5.66a968.04 968.04 0 0 1-5.87-24.08c-6.96 2.08-15.47 4.39-25.7 9.2Z" fill="#9d9d9c" />

    <path d="M204.5 87.8c-3.1-1.4-7-2-10.5-1.7-1.7.2-3.5.7-4.7 2a5.87 5.87 0 0 0-1.5 4.6c.4 3.8 3.8 5.9 7.4 5.5 2.2-.3 4.4-.9 6.7-1 2.3-.2 3.41-.55 6.8-.33 1.68.11 2.02-.54 1.7-2.17-.33-1.66-1.97-5.05-5.9-6.9Z" />
    <path d="M208.15 94.46a9.84 9.84 0 0 0-3.87-3.89c-2.27-1.19-4.64-1.43-7.9-1.58-1.4-.06-2.65.3-2.87.37-1.6.5-3.08 2.25-1.9 4.38.74 1.32 2.72 1.5 4.35 1.14 2.1-.45 5.28-.85 7.09-.86 2.07 0 3.59.21 5.1.44Z" fill="#fff" />
    <path d="M436.1 169c1.5 16.7 1.6 33.6.9 50.4-.7 16.8-2.3 33.5-4.9 50.1-.7 4.6-1.4 9.3-2.2 13.9-.8 4.7-1.9 9.4-2.5 14.2-.2 1.5 2.1 1.7 2.6.3 1.3-4 2.2-8.1 3.1-12.2.9-4.2 1.9-8.3 2.6-12.5 1.4-8.4 2.5-16.8 3.3-25.2 1.7-16.8 2.2-33.7 1.7-50.6-.3-9.5-1.1-19-2.1-28.4-.2-1.5-2.6-1.5-2.5 0ZM451.8 207.7c-2.8 20.4-6.6 40.5-10.6 60.7-1.1 5.8-2.6 11.5-3.4 17.3-.2 1.3 1.6 1.8 2 .5 1.6-4.9 2.4-10 3.6-15 1.2-5 2.1-10.1 3.1-15.1 1.9-10.1 3.6-20.2 5.2-30.4.9-5.8 1.7-11.6 2.5-17.4.2-1.5-2.1-2.1-2.4-.6ZM380.65 313.96c-2.1-2.6-4.35-.66-4.95.04-2.1 2.7-4.3 5.7-5.3 9-.6 1.7-.6 3.7.5 5.3 1.97 2.92 7.3 4.2 9.3 4.5 2 .3 4.2.4 6.1-.2 1.9-.6 1.75-3.05 1.51-4.05-.6-2.47-5.68-12.75-7.16-14.59Z" />
    <path d="M385.32 328.28c-1.17-3.1-4.35-10.01-5.67-11.95-1-1.48-2.54-.73-3.28.56-1.28 2.23-2.38 4.04-3.11 5.58-2.39 4.98 2.64 6.58 4.87 7.28 2 .63 4.64.84 5.68.8 1.74-.06 1.87-1.34 1.51-2.27Z" fill="#fff" />
    <path d="M422.15 320.02c.83.04 2.22.05 2.98-.22a4.29 4.29 0 0 0 2.68-3.6c.09-1.8-1.01-3.3-2.71-3.9-1.5-.6-3.3 0-4.4 1.3-1.18 1.45-1.45 3.74-1.4 5.64 0 .45.03.6.68.65.91.07 1.34.08 2.17.13Z" />
    <path d="M421.46 318.04c-.3 0-.59.02-.52-.38.3-1.86 1.05-2.9 1.47-3.17.93-.6 2-.8 3.1.1.27.23 1 1.38.07 2.55-.34.42-.73.84-2.33.87l-1.79.03Z" fill="#fff" />
    <path d="M222.3 87.5c1-6 2-12.2.2-18.1-1.4-4.8-4.6-9.4-9.3-11.3-2.4-1-5.2-1.2-7.5.1-1.8 1-3.1 2.9-3.5 4.9-.5 2.2-.1 4.4 1.3 6.2 1.7 2.1 4.2 3 6.5 4.4a22.76 22.76 0 0 1 8.3 9c.7 1.3 1.61 3.17 2.2 4.8.24.66 1.6.9 1.8 0Z" />
    <path d="M220.85 80.7c-.01-6.42-.8-8.38-1.2-9.9a15.67 15.67 0 0 0-5.18-8.23c-3.06-2.33-6.04-2.33-7.66-1.02-1.83 1.48-2.02 4.37-.7 5.9.5.6 1.45 1.42 3.84 2.53 2.52 1.19 4.78 3.27 5.2 3.63.82.67 2.5 2.44 3.35 3.5.77.95 1.22 1.69 2.35 3.58Z" fill="#fff" />
    <path d="M324.22 170.3c-.98 1.68-.62 4.4 1.48 3.6 2-.7 3.8-1.7 5.7-2.6a147.8 147.8 0 0 1 17.6-6.9c4-1.3 8.1-2.4 12.2-3.4 3.6-.9 7.9-1.9 11-4.1 3.2-2.4 2.1-6.5-.7-8.7-2.4-1.9-5.8-2.2-8.7-2-6.9.5-13.6 3-19.5 6.5-6.8 4-15.28 11.15-19.08 17.6Z" />
    <path d="M328.88 168a49.8 49.8 0 0 1 3.52-4.01c2.07-1.97 2.2-2.1 3.97-3.57a52.57 52.57 0 0 1 24.15-10.54c2.55-.42 5.34-.35 7.15.26 1.3.45 2.35 1.3 2.77 2.25.68 1.52-.55 1.78-2.1 2.6-.87.44-1.71.74-2.64 1.04-2.46.78-4.08 1.12-6.11 1.59-2.16.49-6.96 1.67-10.71 2.7-1.98.56-4.2 1.34-6.16 2.01a145 145 0 0 0-13.84 5.68Z" fill="#fff" />

    <path d="M133.81 399.5c-.17.01-2.95.43-5.4.75-1.73.08-3.13.17-4.22.25h-.03l-.47.03v.03a6.28 6.28 0 0 0-5.13 3.35 7.39 7.39 0 0 0-.87 3.5c0 1.8.06 3.15.1 4.62-.47-.03-.91-.12-1.38-.12-5.72 0-10.6 2.11-14.16 6.28-3.27 3.83-4.84 8.62-4.84 14.12 0 5.49 1.55 10.14 4.8 13.97 3.59 4.18 8.48 6.31 14.2 6.31 2.05 0 3.99-.36 5.8-1 1.26.65 2.7.91 4.29.91 6.45 0 7.28.15 9.4-.4 1.13-.3 1.8-.77 2.66-1.63a6.23 6.23 0 0 0 1.85-4.47c0-.42.1-40.21.09-40.44a6.58 6.58 0 0 0-.38-1.87 6.15 6.15 0 0 0-6.3-4.19Z" />
    <path d="M145.19 401c-4.09 0-6.69 3.2-6.69 6.81 0 2.99.51 32.3.31 37.66-.2 5.5-.31 9.56-.31 12.34 0 3.48 2.35 6.41 5.9 7l.26.03c1.25.16 3.44.25 6.25.25 3.24 0 5.65-.08 6.84-.25l.13-.03c3.8-.63 5.93-3.8 5.93-7.22 0-.93-.02-2.06-.06-3.75l-.25-9.5c.82 0 1.38-.03 2.4-.03 1.04 0 1.6.02 2.41.03-.03 1.4 0 2.84-.1 4.44 0 0-.21 7.54-.21 9.13a6.95 6.95 0 0 0 5.9 6.9c1.16.2 3.52.28 6.91.28 2.18 0 4.18-.08 5.94-.21 0 0 1.76-.26 2.13-.38.9-.28 1.74-.74 2.56-1.56a7.1 7.1 0 0 0 2.06-5.25c0-3.15-.6-31.05-.4-36.69.2-5.87.3-10.21.3-13.1 0-3.9-2.99-6.9-6.9-6.9-1.29 0-2.13.03-3.38.13-.8.06-1.36.06-2.3.06-1.02 0-1.56 0-2.44-.06-1.14-.1-2.03-.13-3.29-.13-4.2 0-6.78 3.3-6.78 7.1 0 3.19.03 5.3.19 8.27l.1 3.7-2.7.02c-1.12 0-1.7-.02-2.59-.03.06-1.19.05-1.33.19-3.75h-.03c.27-3.43.44-6.35.44-8.62 0-1.37-.22-2.48-1.13-3.85a6.25 6.25 0 0 0-5.37-2.84 44 44 0 0 0-3.53.13c-.98.06-1.62.06-2.7.06-1.05 0-1.65 0-2.52-.06a40.4 40.4 0 0 0-3.47-.13Z" />
    <path d="M207.31 416.1c-6.62 0-12.2 2.63-16.15 7.71-3.58 4.64-5.25 10.52-5.25 17.5 0 6.12 1.66 11.53 5.03 16.19 3.94 5.35 9.08 8.19 15.25 8.19 2.2 0 4.31-.53 6.28-1.5.93.6 2.03 1 3.44 1 3.53 0 8.78-.2 9.93-.35 4.07-.51 6.25-3.78 6.25-7.53 0-1.93.36-33.86-.06-34.7a6.7 6.7 0 0 0-3.62-3.24 43.97 43.97 0 0 0-5.41-1.62c-3.07-.7-4.53-.94-5.9-.94-1.2 0-2.2.3-3.07.78a15.6 15.6 0 0 0-6.72-1.5Z" />
    <path d="M246.69 415.6c-6.5 0-12.06 2.61-16.28 7.65-4 4.64-6 10.6-6 17.44 0 6.87 1.96 12.74 6 17.56a20.55 20.55 0 0 0 16.28 7.66c1.8 0 3.64-.31 6.4-.97l.13-.03a17.06 17.06 0 0 0 4.6-1.79c2.27-1.37-1.88-45.46-2.84-45.86a21 21 0 0 0-8.3-1.67Z" />
    <path d="M271.6 399.69c-.74 0-1.42.1-3.82.4l-2.56.32s-1.8 0-3 .03c-1.9.05-1.57.06-1.9.06-3.92 0-6.91 3-6.91 6.9 0 1.34.05 4.54.28 13.76.22 8.93.31 36.15.31 36.15 0 3.38 2.73 6.81 5.47 7.25 1.18.2 3.9.39 5.94.35a94.3 94.3 0 0 0 6.3-.29c2.35-.21 3.78-1.8 4.7-3.46a7.54 7.54 0 0 0 4.4 3.15c1.24.34 2.62.5 4.19.5 3.1 0 5.39-.09 7.06-.28 1.13-.13 2.07-.31 2.94-.62.8-.3 1.56-.7 2.28-1.32a6.2 6.2 0 0 0 2.1-5.96c-.37-1.83-.6-2.2-4.66-7.5l-9.47-12.25c1.11-2.08 2.23-4.13 3.5-6.35.7-1.23 8.86-15.4 9.34-16.19l.85-1.25c.47-.7.91-1.4 1.37-2.15a6.7 6.7 0 0 0 1.06-3.69c-.08-3.53-3.32-6.33-7-6.28-1.6.02-2.85.07-5.18.19-1 .05-1.12.04-1.53.06-1.92.09-3.3.12-4.75.1a8.4 8.4 0 0 0-2.84.28c-1.09.29-2.05.86-2.88 1.59a6.23 6.23 0 0 0-5.6-3.5ZM244.3 507.73a7.4 7.4 0 0 1-4.49.52l-2.1-.47a59.93 59.93 0 0 0-9.38-.31l-6.58.25c-1.15.04-1.97.1-2.66.1a6.6 6.6 0 0 1-6.68-6.63c0-.26-.16-.62-.25-1.13-.57-2.4-.75-3.32-.75-4.25 0-3.43 2.02-5.24 4.5-6.12.81-.3 1.62-.47 2.75-.63 0 0 .44-.1.62-.12.56-.5 1.1-1.44 1.1-1.44h-1.7a6.58 6.58 0 0 1-6.24-4.44 9.71 9.71 0 0 1-.53-3.56c0-.57-.03-.97-.03-1.1a9.94 9.94 0 0 1-.79-3.71c0-1.95.84-3.6 2.15-4.8.25-.23.95-.76.95-.76.5-.35 1-.67 1.54-.96 1.64-.9 3.5-1.6 5.8-2.2 2.4-.6 4.89-.88 7.47-.88 4.2 0 8.18.72 11.98 3.66.64-.51 3.89-2.03 6.77-2.78 2.4-.6 4.85-.88 7.44-.88 4.2 0 7.58.75 11.25 3.13a13.6 13.6 0 0 1 6.37 11.87c0 2.72-.88 5.4-2.34 8.1a6.42 6.42 0 0 1 3.06 2.84 7.4 7.4 0 0 1 .88 3.56c0 .88-.04 1.5-.16 2.44-.05.37-.06.55-.06.97v3.81c0 4.2-3.3 6.6-6.78 6.6-.55 0-.9-.07-1.38-.16l-2.1-.47a59.97 59.97 0 0 0-9.4-.31l-6.6.25c-1.15.04-1.93.1-2.62.1-.54 0-.6-.03-1.01-.1Z" />
    <path d="M134.5 405.2c-.06.4-.1.2-.2 1.9-.2 2.1-.4 4.8-.5 8-.2 3.7-.2 7.9-.2 12.6 0 6.28.13 11.06.44 14.41.08.82.16 1.55.26 2.19.16 1.06.1 1-.3 1.1-.35.05-1.16.08-2.43.09l-5.07.01c-1 0-1.79-.01-1.8-.6-.01-.7-.1-1.4-.1-2.1 0-.62-.4-.4-.6-.2-1.93 2.07-4.6 3-7.6 3-4 0-7.2-1.4-9.6-4.2-2.3-2.7-3.4-6-3.4-10.1s1.1-7.5 3.4-10.2c2.4-2.8 5.6-4.2 9.6-4.2 1.64 0 3.1.3 4.34.93a6.88 6.88 0 0 1 2.26 1.77c.44.54.9.55.9-.2 0-.91 0-2.04-.02-3.44-.02-.9-.04-1.92-.08-3.06-.1-2.9-.1-5-.1-6.5 0-.5.2-.9.5-.9 1.2-.1 4.52-.23 4.98-.26.52-.04 4.62-.7 5.02-.74.22-.02.38.1.3.7Zm-10.6 26c0-1.5-.5-2.8-1.6-3.9a5 5 0 0 0-3.8-1.7c-1.5 0-2.8.6-3.7 1.7a6.28 6.28 0 0 0 0 7.9c.9 1.1 2.2 1.7 3.7 1.7a5 5 0 0 0 3.8-1.7c1.1-1.2 1.6-2.5 1.6-4ZM187.5 456.7c0 .5-.1.8-.3 1-.1.1-.4.1-.9.2-1.3.1-3.2.2-5.5.2-3.4 0-5.3-.1-5.9-.2-.6-.1-.9-.5-.9-1 0-2 .1-4.9.2-8.8.2-3.9.2-6.8.2-8.8 0-1-.2-1.5-.7-1.7-.7-.2-3.3-.3-7.8-.3s-7.1.1-7.8.3c-.5.1-.7.7-.7 1.7 0 1.9.1 4.8.2 8.7.1 3.8.2 6.7.2 8.6 0 .7-.3 1.2-.9 1.3-.7.1-2.7.2-6 .2-2.9 0-4.7-.1-5.5-.2-.6-.1-.9-.5-.9-1.1 0-2.7.1-6.7.3-12.1.2-5.4.3-9.4.3-12.1 0-2.9-.1-7.2-.3-12.9-.2-5.7-.3-10-.3-12.9 0-.5.2-.8.7-.8.7 0 1.7 0 3 .1s2.3.1 3 .1c.7 0 1.7 0 3.1-.1 1.4-.1 2.4-.1 3.1-.1.4 0 .5.2.5.7 0 1.9-.1 4.6-.4 8.3-.2 3.7-.4 6.5-.4 8.3 0 .9.2 1.4.6 1.5.6.2 3.3.3 8.2.3 4.6 0 7.2-.1 8-.3.5-.1.8-.7.8-1.5 0-1.8-.1-4.5-.2-8.1-.2-3.6-.2-6.3-.2-8.1 0-.8.3-1.1.8-1.1.6 0 1.6 0 2.8.1 1.3.1 2.2.1 2.9.1.6 0 1.6 0 2.8-.1 1.3-.1 2.2-.1 2.9-.1.6 0 .9.3.9.9 0 2.8-.1 7.1-.3 12.9-.2 5.7-.3 10-.3 12.9 0 2.7.1 6.7.3 12.1.3 5.2.4 9.3.4 11.9ZM225.5 439.4c0 1.9.1 4.7.3 8.5.2 3.8.3 6.6.3 8.4 0 1-.4 1.5-1.1 1.6-1.97.15-4.1.24-6.43.28l-2.67.02c-.45 0-.55-.25-.61-.68-.08-.5-.35-2.57-.39-2.94-.12-1.21-.7-.38-1-.08-2.4 2.8-5 4.2-7.7 4.2-4.2 0-7.6-1.9-10.4-5.7-2.6-3.6-3.9-7.8-3.9-12.7 0-5.7 1.3-10.3 4-13.8 2.8-3.6 6.6-5.4 11.4-5.4 2.81 0 5.07.96 6.9 2.81.39.4.75.83 1.1 1.29.13.17.33.62.5-.24.07-.31.25-.75.4-1.36.2-1.2.5-1.8.9-1.8.8 0 2.3.3 4.5.8 2.1.5 3.6.9 4.6 1.3.3.1.5.3.5.6 0 .1 0 .4-.1.8-.8 4.3-1.1 9.1-1.1 14.1Zm-10.4.2c0-2.1-.6-3.8-1.7-5.2a5.41 5.41 0 0 0-4.5-2.1c-1.9 0-3.3.7-4.5 2a8.12 8.12 0 0 0-1.7 5.2c0 2 .6 3.7 1.8 5.1 1.2 1.4 2.7 2.1 4.4 2.1 1.8 0 3.3-.7 4.5-2.1 1.1-1.1 1.7-2.9 1.7-5ZM253.2 433.5s-.7-.2-1.9-.6c-1.3-.4-2.3-.6-3.1-.6-1.9 0-3.4.7-4.6 2a8.02 8.02 0 0 0-1.7 5.3c0 2.3.6 4.1 1.9 5.4 1.2 1.3 2.9 1.9 4.9 1.9.9 0 2-.3 3.2-.8 1.2-.6 1.7-.8 1.7-.8.4 0 .8 1.6 1.4 4.7.5 2.9.7 4.8.7 5.7 0 .9-1.3 1.7-4 2.4-2.1.5-3.7.8-5 .8-4.7 0-8.6-1.8-11.7-5.5-3.1-3.7-4.6-8.2-4.6-13.7 0-5.4 1.5-10 4.6-13.6 3.1-3.7 7-5.5 11.7-5.5 3.2 0 6 .8 8.4 2.4.6.3.8.7.8 1 0 .3-.3 1.8-1 4.4-.6 2.5-1 4-1.2 4.5-.2.3-.4.6-.5.6ZM293.5 456.8c0 .7-2.8 1-8.5 1-2.2 0-3.5-.4-3.8-1-.8-1.6-4.54-7.97-6.19-11.15-1.05-2.04-2.79-3.92-3.79-2.42-.52.78.18 7.97.18 9.67v3.7c0 .7-.3 1.1-.9 1.2-.4.1-2.1.1-5.1.1-2.6 0-4.1 0-4.5-.1-.6-.1-.9-.6-.9-1.5v-22.7c0-3-.1-7.5-.3-13.6-.2-6.1-.3-10.6-.3-13.6 0-.6.3-.9.9-.9 1.1 0 2.8-.1 5.1-.1.6 0 1.6-.2 3.1-.4 1.3-.2 2.3-.3 3.1-.3.3 0 .5.4.5 1.1 0 .9-.1 2.2-.2 3.8-.2 1.9-.3 3.2-.3 3.9-.17 4.54-.25 7.74-.26 10.39 0 .44.42.6.62.24a33.36 33.36 0 0 0 1.04-2.03 351 351 0 0 0 6.4-12c.7-1.4.93-1.81 1.44-3.06.36-.87.9-.72 1.9-.72 4.13-.01 7.37-.17 11.71-.4.8-.04.95.58.75.88-1 1.5-1.7 2.6-2.1 3.2-2.8 4.5-6.6 11.2-6.6 11.4-3.54 5.3-6.26 9.55-8.63 15.5.7.95 15.5 19.9 15.63 19.9ZM242.2 493.6c0 .4 0 .9-.1 1.7-.1.8-.1 1.3-.1 1.7v3.8c0 .4-.3.6-.8.6-.2 0-1-.2-2.3-.5-1.5-.3-4.3-.5-8.4-.5-1.3 0-3.2.1-5.7.2s-4.4.2-5.7.2c-.4 0-.7-.2-.7-.6 0-.6-.2-1.4-.4-2.5-.4-1.7-.6-2.7-.6-2.9 0-.4.7-.6 2.1-.8 1.6-.2 2.7-.5 3.1-.9 1.7-1.4 3.4-3.2 5.1-5.3 2.2-2.7 3.3-4.7 3.3-6.1 0-1.2-.4-2.2-1.3-3-.9-.8-1.9-1.2-3-1.2-1.3 0-2.6.3-3.9.8-.9.3-1.8.8-2.8 1.4l-1.3.8c-.6 0-.8-.7-.8-2 0-1 0-1.8-.1-2.2 0-.2-.2-.7-.4-1.3-.2-.6-.3-1-.3-1.3 0-.2.1-.4.4-.6 1.4-1 3.2-1.7 5.5-2.3 2-.5 4-.7 6-.7 3.1 0 5.8.7 7.9 2.1 2.5 1.6 3.7 3.9 3.7 6.9 0 4-3 8.6-9 13.9 4.3-.2 7.6-.3 10.1-.3.2-.1.5.3.5.9ZM268.4 493.6c0 .4 0 .9-.1 1.7-.1.8-.1 1.3-.1 1.7v3.8c0 .4-.3.6-.8.6-.2 0-1-.2-2.3-.5-1.5-.3-4.3-.5-8.4-.5-1.3 0-3.2.1-5.7.2s-4.4.2-5.7.2c-.4 0-.7-.2-.7-.6 0-.6-.2-1.4-.4-2.5-.4-1.7-.6-2.7-.6-2.9 0-.4.7-.6 2.1-.8 1.6-.2 2.7-.5 3.1-.9 1.7-1.4 3.4-3.2 5.1-5.3 2.2-2.7 3.3-4.7 3.3-6.1 0-1.2-.4-2.2-1.3-3-.9-.8-1.9-1.2-3-1.2-1.3 0-2.6.3-3.9.8-.9.3-1.8.8-2.8 1.4l-1.3.8c-.6 0-.8-.7-.8-2 0-1 0-1.8-.1-2.2 0-.2-.2-.7-.4-1.3-.2-.6-.3-1-.3-1.3 0-.2.1-.4.4-.6 1.4-1 3.2-1.7 5.5-2.3 2-.5 4-.7 6-.7 3.1 0 5.8.7 7.9 2.1 2.5 1.6 3.7 3.9 3.7 6.9 0 4-3 8.6-9 13.9 4.3-.2 7.6-.3 10.1-.3.3-.1.5.3.5.9Z" fill="#fff" />

    <path d="M394.7 357c1.1-3.7 2.3-7.5 4.9-10.2 2.7-2.7 7.3-3.9 10.3-1.5.4-3.2.8-6.6 2.8-9.1 2-2.5 6-3.8 8.5-1.7 2.6-9.8 14.4-13.5 24.3-15.5l47.1-9.6c-9.8 43.1-20.5 86-32 128.6-.2.84-24.36 16.93-53.76 24.82-17.61 4.73-26.44 2.87-42.49 5.08-21.25 2.93-51.95 9.6-54.95 10.1 2-.9 2.5-3.6 2-5.7-.4-2.1-1.5-4.2-1.5-6.4 0-2.6 1.5-4.9 3-7l10.9-16c-3 1.1-6.7.4-8.5-2.2-1.8-2.6-.4-7 2.7-7.5-7.1-3.5-10.6-11.4-13.5-18.8-5.1-12.9-10.3-25.9-15.4-38.8 31.5-13.9 64-27 98.3-30.6l-.6 5.6c3.2-1.6 7.6 1.2 7.4 4.8" fill="#fff" />
    <path d="M461.9 443c1-2.3 1.6-4.8 2.2-7.2l2.1-7.9 4.2-15.8c2.7-10.4 5.4-20.9 8-31.4 5.3-20.9 10.3-41.9 15.2-63l1.8-7.7c.5-2.3-1.4-4.1-3.6-3.6-12.1 2.5-24.3 5-36.4 7.4-5.3 1.1-10.7 2.1-15.9 3.5-4.2 1.2-8.4 2.7-12 5.2a22.09 22.09 0 0 0-7.52 8.71c-.83-.07-4.88-.61-7.98 2.09-2.37 2.08-3.4 5.14-3.98 8.22-.89 0-5.52-.02-8.72 2.68-2.52 2.1-3.88 5.15-4.84 8.27-.41 1.33-.76 2.68-1.09 3.97-.5 2.1 2.13 2.76 2.73.96 1.2-3.3 2.4-7.1 5.2-9.4 2.2-1.8 5.1-2.3 7.4-.6 1.7 1.3 3.6-.5 3.8-2.2.3-2.6.6-5.7 2.4-7.7 1.3-1.5 3.5-2.3 5.2-1.1 1.2.9 3.1 0 3.4-1.4.9-3.5 3.4-6.1 6.5-7.9 3.4-2 7.1-3.2 11-4.2 4.9-1.3 10-2.1 15-3.1 5.8-1.2 11.6-2.4 17.5-3.6 5.07-1.07 10.17-2.22 15.29-3.14-.1 1.72-8.69 37.04-13.79 57.74-5.1 20.7-10.5 41.4-16 62-.6 2.4-1.1 4.8-2 7.1-.7 1.8 2.8 7.9 4.9 3.1ZM452.16 438.98c-9.65 4.54-25.09 11.99-31.84 14.6-6.68 2.59-23.76 8.04-26.76 9-6.74 2.18-13.02 1.66-17.36.82-1.1-.21-2.1-.2-3.2 0-2.3.2-4.5.8-6.7 1.2-4.3.9-8.6 1.8-12.9 2.6-8.6 1.8-17.4 3.53-26 5.43-2.3.5-4.13.81-7.17 1.25-1.82.26-3.02.39-4.42.83-.9.3-7.18 1.67-7.18 1.67-.47.45-.84.8-1.36 1.09-1 .36-1.47.23-2.27 1.03s-1 2.1-1.3 3.2c-.3 1.1-.5 2.3-.8 3.4-.5 2-.9 4-1.4 6-1.9 8.3-4.2 19-6.2 27.2l76.99-15.13 76.82-47.82s4.55-17.07 3.05-16.37Z" />
    <path d="M440.04 450.22c-13.63 6.34-17.85 7.7-26.85 11.11-5.36 2.04-9.82 3.33-13.62 4.53-5.9 1.86-11.71 2.71-13 2.76-4.11.13-5.29.23-7.4-.06-.99-.13-3.4-.1-7.05.6-3.61.68-9.6 1.82-11.75 2.26-3.14.65-14.68 2.7-17.68 3.38-1.37.31-17.7 3.02-19.43 3.4-2.07.46-6.81 1.47-8.85 2.04-5.3 1.48-5 3.01-5.43 5.18-.5 2.5-2.45 10.06-3.17 13.42-.36 1.64-2.4 9.69-3.34 14.14 6.8-.9 14.04-2.62 17.27-3.25 9-1.8 23.13-6.36 24.27-6.67 3.72-1 16.08-5.63 17.7-6.28 3.24-1.28 3.05-1.13 10.66-4.48a210.2 210.2 0 0 0 13.8-6.6c5.66-3.01 11.77-6.3 17.04-9.38 5.26-3.09 13.05-8.25 25.62-16.14 3.45-2.8 11.21-9.96 11.21-9.96Z" fill="#fff" />
    <path d="M313.92 475.19c-.12-.76-.02.11-.32-2.69-.2-1.7-.8-3.3-1.2-4.9-.4-1.6-.2-3 .6-4.5 1.7-3.3 4.1-6.2 6.2-9.2 2.3-3.3 4.8-6.4 7-9.7 1.3-1.9-.9-4.7-3.1-4-1.9.6-4.6.6-5.7-1.3-.3-.5-.3-1.3 0-2.1.2-.7.6-1 1.3-1.1 2.1-.4 2.6-3.8.6-4.8-6.1-3.1-9.1-9.5-11.5-15.6-3.4-8.5-6.7-17-10.1-25.5-1.7-4.23-3.31-8.46-4.98-12.7-.3-.76 46.78-19.9 72.68-25.6 6.3-1.4 12.74-2.57 19.14-3.44.03.48.06.64.16 2.54.1 1.4 1.64 2.51 3 1.7 1.6-.96 2.8-.2 3.1 0 1.1.7 2.82 2.81 2.82 4.11.2-1.42 1.08-2.36 1.16-3.38.07-.94-1.4-2.8-2.28-3.33-1-.6-3-.85-3.13-1.04-.1-.16.43-1.46.73-3.66.2-1.4-1.4-2.8-2.7-2.7-27.2 2.7-53.3 11.5-78.5 21.8-7.1 2.9-14.2 6-21.3 9.1-1 .5-1.7 2.2-1.3 3.3 3.6 9.1 7.3 18.2 10.9 27.2 1.8 4.4 3.5 8.8 5.3 13.2 1.4 3.5 3 6.9 5.1 10a27.37 27.37 0 0 0 5.71 6.42s-2.51 3.68-.91 7.68c1.12 2.7 6.32 4.92 6.32 4.92s-1.32 2.18-3.42 5.28c-2 3-4.2 5.9-5.9 9-1.8 3.2-2.1 6.3-1 9.8.5 1.6 1.75 4.93.05 6.56-.47.45 5.6-.64 5.47-1.38ZM315.1 498.3c7.5-1.6 14.9-3.5 22.4-5.4 3.7-1 7.4-1.8 11.2-2.6 3.8-.8 7.6-1.6 11.4-2 .5-.1 1-.3 1.2-.9.5-2.2.7-4.4.5-6.6-.1-.9-.8-1.4-1.6-1.2-9.8 1.7-19.5 3.9-29.2 5.8-4.9 1-11.07 2.18-15.87 3.38-1.8.4-1.78.45-2.38 2.35-.6 1.9-.65 4.17-.25 6.17.1.6.2 1.5 2.6 1Z" />
    <path d="M358.4 486.02c.42-.07.65-.02.73-.66.07-.62.16-1.87.17-2.53.02-.57-.1-.6-.6-.5-2.58.55-3.18.7-9.88 1.96-3.64.7-6.44 1.19-9.26 1.7l-7.66 1.42c-6.36 1.19-8.53 1.64-8.53 1.64l-7.89 1.52c-.37.07-.74.2-.85.64-.1.44-.34 1.7-.39 2.13-.05.43-.06 1.85-.08 2.05-.1.63.34.79 1.01.7 1.08-.13 2.73-.88 7.53-1.95 3.35-.75 10.69-3 11.41-3.16.72-.15 6.24-1.58 11.04-2.47 3.78-.7 5.14-1.27 8.1-1.68 2.58-.36 5.01-.79 5.15-.81Z" fill="#fff" />
    <path d="M321.06 379.07a27.8 27.8 0 0 1 7.74-4.27c2.6-1 5.3-1.9 8.1-2.5 6.4-1.4 13-1.6 19.5-1.5 3.4 0 6.8.2 10.2.4 3.1.2 6.3.3 9.4 1.1 1.7.4 3.3 1.1 4.9 1.8 1.1.5 2.3 1 3.5 1.1 1.1.1 1.9.1 3.1-.4.9-.3 1.5-.8 2.2-1.4 1.6-1.5 3.1-3.1 4.9-4.4a11 11 0 0 1 7.2-2.2c2.7.1 5.5 1 8.2.5 2.7-.4 4.3-2.6 6-4.5 7.5-8.6 16.8-15.6 27-20.7 2.5-1.2 5.2-2.3 7.8-3.4 2.5-1 5.8-2.8 8.6-2.1 3.7.9 3.6 5 3.5 8-.1 3.3-.3 6.5-.5 9.8-.9 13.2-2.5 26.4-4.9 39.5-1.2 6.6-2.5 13.1-4.1 19.5-.7 3.2-1.5 6.3-2.4 9.5-.9 3-1.6 6.1-2.7 9-1.3 3.1-3.6 4.8-6.9 5.6-3.2.8-6.5 1.5-9.8 2.2-6.7 1.5-13.3 2.9-20 4.3l-25.33 5.44-15.17 3.26c-6.7 1.5-13.3 2.9-20 4.3-6.7 1.5-13.5 3-20.3 3.2-1.7 0-2.7-1.7-2.4-3.2.4-1.6.8-3.2 1.4-4.8.7-1.5 1.2-3.1 1.7-4.7.9-3.1 2.1-6.1 3.5-9.1 1.2-2.6 3.5-5.7 2.8-8.8-.7-2.6-3.4-3.8-5.6-4.9-1.8-.9-1.7-3.7 0-4.6 1.21-.63.9-1.6.9-2.5 0-1.4-.8-2.6-2.1-3.6-3.2-2.6-7.1-3.9-9.8-7.1-5-6-6.65-10.27-5.82-19.17.38-3.99 4.68-7.86 5.68-8.66Z" />
    <path d="M438.92 432.12c4.1-.83 4.15-1.6 5.14-4.9.98-3.26 2.2-7.86 3.43-12.74 2.87-11.39 4.12-19.98 5.12-24.36.98-4.28 2.3-14.9 3.16-23.73a367.2 367.2 0 0 0 1.06-13.7s.3-6.48.38-10.25c-6.1 1.11-16.3 6.18-20.06 8.62-9.52 6.17-13.24 10.11-18.31 15.47-4.93 5.2-9.16 5.07-12 4.8-2.27-.23-3.08-.41-4.59-.5-3.27-.19-5.45.7-8.79 4.33-4.94 5.38-8.36 6.8-14.31 4.09a24.38 24.38 0 0 0-9.12-2.37c-1.9-.12-8.94-.45-9.97-.49-4.23-.15-7.1-.24-12.02.04-5.63.31-6.74.69-9.82 1.22a47.1 47.1 0 0 0-9.1 2.77c-2.7 1.1-3.78 1.44-5.05 2.04-4.29 2.05-4.99 6.19-5.07 7.9-.11 2.36.15 3.78.66 5.57a18.73 18.73 0 0 0 3.26 6.44c2.24 2.71 4.78 4.06 5.84 4.66 5.12 2.91 9.07 5.16 9.92 10.23.47 2.85-.48 4.03-1.04 4.98 1.69 1.5 3.24 3.37 3.8 5.6.98 4.05-1.72 8.49-2.92 10.97-3.03 6.29-4.52 10.4-4.83 15.92 12.1-1.94 35.1-7.25 59.23-12.58 24.16-5.33 25.92-5.63 37.52-8.2 2.37-.53 7.45-1.62 8.48-1.83Z" fill="#125ea6" />
    <path d="M343.52 394.86a2.76 2.76 0 1 1 5.52 0 2.76 2.76 0 0 1-5.52 0ZM357.88 424.04l6.83-1.16c.41-.07.81.26.88.75.07.49-.2.94-.63 1l-6.83 1.18c-.41.07-.81-.27-.88-.76-.07-.48.2-.94.63-1ZM373.62 421.01l1.82-.23c.34-.05.66.3.71.77.05.47-.18.9-.52.94l-1.82.23c-.33.05-.65-.3-.7-.77-.06-.47.17-.9.51-.94ZM379.97 419.93l7.82-.96c.46-.06.88.3.94.81.05.5-.29.96-.75 1.02l-7.81.95c-.47.06-.9-.3-.94-.8-.06-.5.28-.96.74-1.02ZM397.56 416.79l8.62-1.08c.41-.05.8.41.86 1.03.07.62-.21 1.16-.62 1.21l-8.63 1.07c-.4.06-.79-.4-.85-1.02-.07-.62.2-1.16.62-1.21ZM350.22 433.58l1.84-.3c.32-.06.64.26.7.72.07.45-.14.86-.47.92l-1.84.3c-.32.06-.64-.26-.7-.72-.07-.45.14-.86.47-.92ZM357.71 432.71l12.88-2.54c.34-.07.68.31.77.84.1.54-.1 1.02-.44 1.09l-12.88 2.54c-.34.07-.68-.3-.77-.84-.1-.53.1-1.02.44-1.09ZM389.54 425.77l10.62-1.74c.44-.07.87.39.96 1.02.09.63-.2 1.2-.64 1.28l-10.62 1.73c-.44.07-.87-.38-.96-1.02-.09-.63.2-1.2.64-1.27ZM406.1 422.88l7.6-.57c.53-.04.98.38 1.01.94.04.56-.35 1.05-.87 1.09l-7.6.57c-.52.04-.97-.38-1-.94-.04-.56.35-1.05.87-1.09ZM420.03 421.3l6.49-.5c.48-.03.91.5.96 1.22.04.7-.31 1.3-.8 1.34l-6.48.5c-.49.03-.92-.51-.96-1.22-.05-.7.3-1.3.79-1.35ZM433.61 419.34l5.4-1.06c.65-.13 1.26.34 1.38 1.03.12.7-.31 1.36-.95 1.48l-5.4 1.06c-.65.13-1.26-.33-1.38-1.03-.12-.7.31-1.36.95-1.48ZM347 441.76l5.36-1.12c.46-.1.92.23 1 .74.1.5-.2 1-.68 1.1l-5.35 1.11c-.47.1-.92-.23-1.01-.73-.1-.51.21-1 .68-1.1ZM359.31 439.45l5.56-1.16c.37-.08.76.32.86.88.1.57-.12 1.1-.5 1.17l-5.55 1.16c-.38.07-.77-.32-.87-.88-.1-.57.12-1.1.5-1.17ZM370.41 436.8l14.27-2.96c.56-.11 1.1.28 1.2.88.1.6-.26 1.18-.81 1.3l-14.27 2.96c-.56.11-1.1-.28-1.2-.88-.1-.6.25-1.18.81-1.3ZM391.77 432.73l6.72-1.58c.5-.11 1 .23 1.1.77.11.55-.2 1.08-.7 1.2l-6.73 1.57c-.5.12-1-.22-1.1-.77-.12-.54.2-1.08.7-1.2ZM406.77 429.83l2.12-.42c.54-.1 1.06.28 1.15.86.1.59-.26 1.15-.8 1.25l-2.11.42c-.54.1-1.06-.28-1.16-.87-.1-.58.26-1.14.8-1.24ZM376.53 428.93l7.93-1.3c.48-.08.92.3 1 .85.07.54-.26 1.05-.73 1.13l-7.94 1.3c-.47.07-.92-.3-.99-.85-.07-.55.25-1.06.73-1.13ZM425.3 377.05l3.1 5.02 3.1 5.03h-12.41l3.1-5.03 3.1-5.02ZM417.48 389.25l2.92 4.68 2.92 4.68h-11.68l2.92-4.68 2.92-4.68ZM432.96 389.51l3.06 4.69 3.06 4.68H426.86l3.05-4.68 3.05-4.69ZM356.7 384.62c18.02 12.06 8.38 25.34.61 31.22-1.61 1.22-3.64-.86-1.97-2.23 7.29-5.98 14.81-16.52-.97-26.64-1.42-.92-.22-4.05 2.32-2.35ZM343.45 404.8c0-1.48 1.3-2.69 2.9-2.69 1.61 0 2.91 1.2 2.91 2.7 0 1.48-1.3 2.69-2.9 2.69-1.6 0-2.9-1.2-2.9-2.7Z" fill="#fff" />
    <path d="M26.8 275C26.8 137.92 137.92 26.8 275 26.8c137.08 0 248.2 111.12 248.2 248.2 0 137.08-111.12 248.2-248.2 248.2-137.08 0-248.2-111.12-248.2-248.2Z" fill="none" stroke="#000" stroke-width="15" />
</svg>