<svg xmlns="http://www.w3.org/2000/svg" viewBox="0 0 1116.14 486.48" fill="#f97316">
	<path d="M1116.14 143.67h-81.5v-28c0-18.79-16.33-34-36.5-34h-90.5c-19.9 0-36 15.21-36 34l-.5 178.32c0 19.54 16.33 35.34 36.5 35.34h90.5c19.92 0 36.04-15.06 36.04-33.67v-24.5h-81.04v-82.5h163v107c0 64.3-48.98 116.33-109.5 116.33h-107c-60.8 0-110-52.03-110-116.33V115.67c0-63.93 49.2-115.67 110-115.67h107c60.52 0 109.5 51.73 109.5 115.67v28ZM3.48 331.67h42.33l-1-250H3.48V0h171.33c86.23 0 156 76.33 156 170.67v76c0 91.39-69.77 165.33-156 165.33H3.48v-80.33Zm246-93v-68c0-49.19-33.4-89-74.67-89h-47.33l-.67 250h48c41.27 0 74.67-41.6 74.67-93ZM593.48 329.33h37.33l-10.67-40h-128l-10.67 40h37.33V412h-162v-82.67h40L494.81 0h125.33l97.33 329.33h38.67V412H593.47v-82.67ZM558.15 81.66h-4l-35.33 124h74.67l-35.33-124ZM35.02 453.03c0 10.42-6.2 15.63-18.61 15.63h-12v-30.94H16.4c12.41 0 18.61 5.1 18.61 15.3Zm-6.95 0c0-1.56-.18-2.96-.54-4.2s-.98-2.28-1.88-3.14a8.63 8.63 0 0 0-3.6-1.97c-1.51-.45-3.4-.68-5.68-.68h-5.16v20.3h5.16c2.26 0 4.15-.23 5.65-.7 1.51-.47 2.71-1.14 3.6-2.03s1.52-1.96 1.89-3.23.55-2.72.55-4.35ZM52.27 445.75c1.69 0 3.21.13 4.56.39s2.5.71 3.45 1.37a6.39 6.39 0 0 1 2.18 2.67c.51 1.12.76 2.55.76 4.29v14.2h-6.45v-1.17c-1.07.55-2.22.97-3.46 1.27s-2.57.45-3.98.45c-1.32 0-2.56-.17-3.69-.5a9.57 9.57 0 0 1-2.96-1.42c-.84-.61-1.49-1.34-1.97-2.18s-.72-1.77-.72-2.79c0-5.42 5.25-8.13 15.74-8.13h1.05a9.19 9.19 0 0 0-.18-1.61c-.1-.46-.32-.85-.65-1.17-.33-.32-.81-.56-1.43-.73s-1.46-.25-2.51-.25c-1.31 0-2.34.17-3.1.52-.76.34-1.28.99-1.56 1.95h-6.64c.77-4.77 4.63-7.15 11.58-7.15Zm4.49 12.96h-1.9c-5.51 0-8.27 1.14-8.27 3.42 0 .75.36 1.34 1.08 1.76s1.68.63 2.9.63 2.38-.21 3.5-.62a6.3 6.3 0 0 0 2.7-1.82v-3.38ZM81.8 468.71c-.83.17-1.59.3-2.27.38-.69.08-1.33.12-1.92.12-1.53 0-2.74-.15-3.65-.46-.91-.3-1.6-.76-2.08-1.36s-.79-1.36-.92-2.26c-.14-.91-.21-1.96-.21-3.16v-11.04h-2.98v-4.64h2.98v-5.58h6.56v5.58h3.92v4.64h-3.92v11.2c0 .52.03.93.08 1.24s.13.55.23.73.23.29.39.34c.16.05.33.08.54.08.4 0 .88-.03 1.43-.08s1.16-.13 1.82-.22v4.5ZM96.72 445.75c1.69 0 3.21.13 4.56.39s2.5.71 3.45 1.37a6.39 6.39 0 0 1 2.18 2.67c.51 1.12.76 2.55.76 4.29v14.2h-6.45v-1.17c-1.07.55-2.22.97-3.46 1.27s-2.57.45-3.98.45c-1.32 0-2.56-.17-3.69-.5a9.57 9.57 0 0 1-2.96-1.42c-.84-.61-1.49-1.34-1.97-2.18s-.72-1.77-.72-2.79c0-5.42 5.25-8.13 15.74-8.13h1.05a9.19 9.19 0 0 0-.18-1.61c-.1-.46-.32-.85-.65-1.17-.33-.32-.81-.56-1.43-.73s-1.46-.25-2.51-.25c-1.31 0-2.34.17-3.1.52-.76.34-1.28.99-1.56 1.95h-6.64c.77-4.77 4.63-7.15 11.58-7.15Zm4.49 12.96h-1.9c-5.51 0-8.27 1.14-8.27 3.42 0 .75.36 1.34 1.08 1.76s1.68.63 2.9.63 2.38-.21 3.5-.62a6.3 6.3 0 0 0 2.7-1.82v-3.38ZM126.25 468.71c-.83.17-1.59.3-2.27.38-.69.08-1.33.12-1.92.12-1.53 0-2.74-.15-3.65-.46-.91-.3-1.6-.76-2.08-1.36s-.79-1.36-.92-2.26c-.14-.91-.21-1.96-.21-3.16v-11.04h-2.98v-4.64h2.98v-5.58h6.56v5.58h3.92v4.64h-3.92v11.2c0 .52.03.93.08 1.24s.13.55.23.73.23.29.39.34c.16.05.33.08.54.08.4 0 .88-.03 1.43-.08s1.16-.13 1.82-.22v4.5ZM153.38 461.66a9.24 9.24 0 0 1-1.56 3.23c-.71.94-1.56 1.73-2.56 2.37s-2.13 1.12-3.39 1.45c-1.26.33-2.61.49-4.04.49-1.93 0-3.69-.27-5.28-.8a11.53 11.53 0 0 1-4.09-2.31 10.38 10.38 0 0 1-2.65-3.69c-.62-1.45-.94-3.1-.94-4.95s.3-3.44.91-4.89a10.41 10.41 0 0 1 2.56-3.69 11.25 11.25 0 0 1 3.94-2.33c1.53-.54 3.22-.81 5.07-.81s3.63.27 5.17.8 2.84 1.3 3.93 2.3c1.08 1 1.92 2.23 2.51 3.68.59 1.45.88 3.1.88 4.95v1.76H135.7a6.34 6.34 0 0 0 2.14 3.97 6.14 6.14 0 0 0 3.98 1.32 5.93 5.93 0 0 0 2.91-.74 4.5 4.5 0 0 0 1.13-.89c.32-.35.56-.76.7-1.23h6.81Zm-6.53-7.1a5.64 5.64 0 0 0-2.07-3.09c-.96-.69-2.1-1.03-3.42-1.03s-2.44.34-3.42 1.03-1.67 1.72-2.1 3.09h11ZM182.93 468.67h-7.78l-7.47-9.91-1.43 1.2v8.72h-6.48v-30.94h6.48v15.42l7.83-6.87h8.52l-10.45 8.67 10.78 13.71ZM193.69 447.6a10.97 10.97 0 0 1 6.12-1.85c6.23 0 9.35 2.85 9.35 8.55v14.37h-6.56v-14.2c0-1.39-.26-2.38-.79-2.98s-1.39-.89-2.61-.89c-1.76 0-3.6.91-5.51 2.72v15.35h-6.48v-22.38h6.48v1.31ZM227.57 445.75c1.91 0 3.63.27 5.17.8s2.84 1.3 3.93 2.3c1.08 1 1.92 2.23 2.51 3.68.59 1.45.88 3.1.88 4.95s-.3 3.49-.9 4.95c-.6 1.45-1.44 2.68-2.52 3.69s-2.4 1.78-3.94 2.31-3.25.8-5.13.8-3.55-.26-5.09-.79-2.85-1.28-3.94-2.27a10.21 10.21 0 0 1-2.55-3.68c-.61-1.46-.91-3.13-.91-5s.3-3.49.9-4.95a10.23 10.23 0 0 1 6.46-5.98c1.54-.53 3.25-.8 5.13-.8Zm0 18.77c.85 0 1.63-.15 2.34-.45.72-.3 1.33-.74 1.83-1.34s.9-1.33 1.19-2.2.43-1.9.43-3.07-.14-2.2-.43-3.07-.68-1.61-1.19-2.19-1.12-1.03-1.83-1.32c-.72-.3-1.5-.45-2.34-.45s-1.65.15-2.37.45-1.33.74-1.83 1.32c-.51.59-.9 1.32-1.19 2.19-.29.88-.43 1.9-.43 3.07s.14 2.2.43 3.07c.28.88.68 1.61 1.19 2.2.51.59 1.12 1.04 1.83 1.34s1.51.45 2.37.45ZM252.44 468.67h-6.45v-30.94h6.45v30.94ZM270.86 445.75c1.91 0 3.63.27 5.17.8s2.84 1.3 3.93 2.3c1.08 1 1.92 2.23 2.51 3.68.59 1.45.88 3.1.88 4.95s-.3 3.49-.9 4.95c-.6 1.45-1.44 2.68-2.52 3.69s-2.4 1.78-3.94 2.31-3.25.8-5.13.8-3.55-.26-5.09-.79-2.85-1.28-3.94-2.27a10.21 10.21 0 0 1-2.55-3.68c-.61-1.46-.91-3.13-.91-5s.3-3.49.9-4.95a10.23 10.23 0 0 1 6.46-5.98c1.54-.53 3.25-.8 5.13-.8Zm0 18.77c.85 0 1.63-.15 2.34-.45.72-.3 1.33-.74 1.83-1.34s.9-1.33 1.19-2.2.43-1.9.43-3.07-.14-2.2-.43-3.07-.68-1.61-1.19-2.19-1.12-1.03-1.83-1.32c-.72-.3-1.5-.45-2.34-.45s-1.65.15-2.37.45-1.33.74-1.83 1.32c-.51.59-.9 1.32-1.19 2.19-.29.88-.43 1.9-.43 3.07s.14 2.2.43 3.07c.28.88.68 1.61 1.19 2.2.51.59 1.12 1.04 1.83 1.34s1.51.45 2.37.45ZM295.37 470.75c.39 1.55 1.74 2.32 4.05 2.32 1.56 0 2.79-.45 3.68-1.34s1.42-2.28 1.59-4.17a10.79 10.79 0 0 1-5.79 1.64c-1.8 0-3.4-.28-4.78-.83a9.42 9.42 0 0 1-5.63-6.03 14.57 14.57 0 0 1-.73-4.75c0-1.84.29-3.5.87-4.96s1.38-2.7 2.4-3.73c1.02-1.02 2.22-1.81 3.61-2.36s2.88-.82 4.48-.82c1.05 0 2.04.1 2.98.3s1.82.5 2.65.89v-.66h6.45v20.62c0 7.23-3.88 10.85-11.64 10.85a17.7 17.7 0 0 1-4.29-.48 11.37 11.37 0 0 1-3.34-1.38 6.82 6.82 0 0 1-3.32-5.14h6.75Zm9.37-18.33a8.45 8.45 0 0 0-5.35-1.99c-1.51 0-2.71.59-3.61 1.78-.9 1.19-1.35 2.98-1.35 5.39 0 2.28.42 4 1.27 5.17a4.13 4.13 0 0 0 3.53 1.75c1.93 0 3.77-.98 5.51-2.93v-9.16ZM332.15 452.57c-.44-1.42-1.77-2.13-4-2.13-.57 0-1.09.04-1.57.12-.48.08-.9.2-1.25.35s-.64.35-.84.59-.3.5-.3.8c0 .23.05.43.15.6.1.16.35.32.74.48s.98.32 1.75.5 1.82.41 3.14.69c1.62.33 3.02.67 4.2 1.03s2.17.8 2.96 1.34a5.03 5.03 0 0 1 1.76 1.95c.39.77.58 1.72.58 2.86a5.9 5.9 0 0 1-.77 2.95c-.52.91-1.24 1.7-2.18 2.37s-2.07 1.2-3.41 1.58-2.83.57-4.48.57c-6.91 0-10.75-2.53-11.52-7.59h6.62c.35 1.94 1.97 2.91 4.85 2.91a6.2 6.2 0 0 0 3.27-.7c.74-.47 1.12-1.04 1.12-1.71 0-.31-.08-.57-.23-.79-.16-.21-.46-.41-.92-.59s-1.09-.36-1.9-.55l-3.14-.7c-1.58-.33-2.94-.66-4.08-1s-2.08-.75-2.81-1.24c-.74-.49-1.28-1.11-1.64-1.84s-.54-1.66-.54-2.79c0-.97.24-1.87.72-2.71s1.16-1.56 2.04-2.18c.88-.62 1.95-1.1 3.2-1.45s2.65-.53 4.19-.53c6.71 0 10.3 2.27 10.78 6.82h-6.48ZM368.4 461.66a9.24 9.24 0 0 1-1.56 3.23c-.71.94-1.56 1.73-2.56 2.37s-2.13 1.12-3.39 1.45c-1.26.33-2.61.49-4.04.49-1.93 0-3.69-.27-5.28-.8a11.53 11.53 0 0 1-4.09-2.31 10.38 10.38 0 0 1-2.65-3.69c-.62-1.45-.94-3.1-.94-4.95s.3-3.44.91-4.89a10.41 10.41 0 0 1 2.56-3.69 11.25 11.25 0 0 1 3.94-2.33c1.53-.54 3.22-.81 5.07-.81s3.63.27 5.17.8 2.84 1.3 3.93 2.3c1.08 1 1.92 2.23 2.51 3.68.59 1.45.88 3.1.88 4.95v1.76h-18.14a6.34 6.34 0 0 0 2.14 3.97 6.14 6.14 0 0 0 3.98 1.32 5.93 5.93 0 0 0 2.91-.74 4.5 4.5 0 0 0 1.13-.89c.32-.35.56-.76.7-1.23h6.81Zm-6.53-7.1a5.64 5.64 0 0 0-2.07-3.09c-.96-.69-2.1-1.03-3.42-1.03s-2.44.34-3.42 1.03-1.67 1.72-2.1 3.09h11ZM397.96 468.67h-7.78l-7.47-9.91-1.43 1.2v8.72h-6.48v-30.94h6.48v15.42l7.83-6.87h8.52l-10.45 8.67 10.78 13.71ZM413.37 468.71c-.83.17-1.59.3-2.27.38-.69.08-1.33.12-1.92.12-1.53 0-2.74-.15-3.65-.46-.91-.3-1.6-.76-2.08-1.36s-.79-1.36-.92-2.26c-.14-.91-.21-1.96-.21-3.16v-11.04h-2.98v-4.64h2.98v-5.58h6.56v5.58h3.92v4.64h-3.92v11.2c0 .52.03.93.08 1.24s.13.55.23.73.23.29.39.34c.16.05.33.08.54.08.4 0 .88-.03 1.43-.08s1.16-.13 1.82-.22v4.5ZM423.96 443.5h-6.45v-5.77h6.45v5.77Zm0 25.17h-6.45v-22.38h6.45v22.38ZM442.38 445.75c1.91 0 3.63.27 5.17.8s2.84 1.3 3.93 2.3c1.08 1 1.92 2.23 2.51 3.68.59 1.45.88 3.1.88 4.95s-.3 3.49-.9 4.95c-.6 1.45-1.44 2.68-2.52 3.69s-2.4 1.78-3.94 2.31-3.25.8-5.13.8-3.55-.26-5.09-.79-2.85-1.28-3.94-2.27a10.21 10.21 0 0 1-2.55-3.68c-.61-1.46-.91-3.13-.91-5s.3-3.49.9-4.95a10.23 10.23 0 0 1 6.46-5.98c1.54-.53 3.25-.8 5.13-.8Zm0 18.77c.85 0 1.63-.15 2.34-.45.72-.3 1.33-.74 1.83-1.34s.9-1.33 1.19-2.2.43-1.9.43-3.07-.14-2.2-.43-3.07-.68-1.61-1.19-2.19-1.12-1.03-1.83-1.32c-.72-.3-1.5-.45-2.34-.45s-1.65.15-2.37.45-1.33.74-1.83 1.32c-.51.59-.9 1.32-1.19 2.19-.29.88-.43 1.9-.43 3.07s.14 2.2.43 3.07c.28.88.68 1.61 1.19 2.2.51.59 1.12 1.04 1.83 1.34s1.51.45 2.37.45ZM467.27 447.6a10.97 10.97 0 0 1 6.12-1.85c6.23 0 9.35 2.85 9.35 8.55v14.37h-6.56v-14.2c0-1.39-.26-2.38-.79-2.98-.52-.59-1.39-.89-2.6-.89-1.76 0-3.6.91-5.51 2.72v15.35h-6.48v-22.38h6.48v1.31ZM513.18 461.66c-.33 1.22-.85 2.3-1.56 3.23s-1.56 1.73-2.56 2.37c-1 .64-2.13 1.12-3.39 1.45s-2.61.49-4.04.49c-1.93 0-3.69-.27-5.28-.8s-2.95-1.3-4.09-2.31-2.02-2.24-2.65-3.69c-.63-1.45-.94-3.1-.94-4.95s.3-3.44.91-4.89 1.46-2.68 2.56-3.69 2.42-1.79 3.94-2.33 3.22-.81 5.07-.81 3.63.27 5.17.8a10.17 10.17 0 0 1 6.44 5.98c.59 1.45.88 3.1.88 4.95v1.76H495.5c.33 1.77 1.04 3.09 2.14 3.97s2.42 1.32 3.98 1.32a5.93 5.93 0 0 0 2.91-.74c.43-.24.81-.54 1.13-.89s.56-.76.7-1.23h6.81Zm-6.53-7.1a5.64 5.64 0 0 0-2.07-3.09c-.96-.69-2.1-1.03-3.42-1.03s-2.44.34-3.42 1.03-1.67 1.72-2.1 3.09h11ZM526.05 447.6a10.97 10.97 0 0 1 6.12-1.85c6.23 0 9.35 2.85 9.35 8.55v14.37h-6.56v-14.2c0-1.39-.26-2.38-.79-2.98-.52-.59-1.39-.89-2.61-.89-1.76 0-3.6.91-5.51 2.72v15.35h-6.48v-22.38h6.48v1.31ZM562.47 452.57c-.44-1.42-1.77-2.13-4-2.13-.57 0-1.09.04-1.57.12-.48.08-.9.2-1.25.35s-.64.35-.84.59c-.2.23-.3.5-.3.8 0 .23.05.43.15.6.1.16.35.32.75.48.39.16.98.32 1.75.5s1.82.41 3.14.69c1.62.33 3.02.67 4.2 1.03 1.19.36 2.17.8 2.96 1.34a5.03 5.03 0 0 1 1.76 1.95c.39.77.58 1.72.58 2.86a5.9 5.9 0 0 1-.77 2.95c-.51.91-1.24 1.7-2.18 2.37s-2.07 1.2-3.4 1.58c-1.33.38-2.83.57-4.48.57-6.91 0-10.75-2.53-11.52-7.59h6.62c.35 1.94 1.97 2.91 4.85 2.91 1.43 0 2.52-.23 3.27-.7s1.12-1.04 1.12-1.71c0-.31-.08-.57-.23-.79s-.46-.41-.92-.59-1.09-.36-1.9-.55l-3.14-.7a51.12 51.12 0 0 1-4.08-1 10.38 10.38 0 0 1-2.81-1.24c-.74-.49-1.28-1.11-1.64-1.84s-.54-1.66-.54-2.79c0-.97.24-1.87.72-2.71a6.8 6.8 0 0 1 2.04-2.18c.88-.62 1.95-1.1 3.2-1.45 1.25-.35 2.65-.53 4.19-.53 6.71 0 10.3 2.27 10.78 6.82h-6.48ZM625.09 468.67h-7.58l-3.97-8.86H600.8l-3.8 8.86h-7.2l14.01-30.96h6.45l14.83 30.96Zm-13.67-13.76-4.41-9.82-4.16 9.82h8.58ZM643.73 451.77c-.57-.2-1.11-.36-1.61-.46-.5-.1-1.2-.15-2.08-.15s-1.69.19-2.43.57-1.46.97-2.18 1.77v15.16h-6.48v-22.38h6.48v1.29a8.48 8.48 0 0 1 6.52-1.76c.48.05 1.08.13 1.78.26v5.7ZM654.34 447.41a10.59 10.59 0 0 1 5.84-1.66c1.76 0 3.34.28 4.71.83a9.7 9.7 0 0 1 3.49 2.34 9.96 9.96 0 0 1 2.15 3.64c.49 1.42.73 3 .73 4.73s-.29 3.43-.87 4.9a10.53 10.53 0 0 1-6 6.16c-1.38.56-2.88.84-4.49.84-1.1 0-2.1-.1-2.99-.29s-1.75-.5-2.58-.93v.68h-6.48v-30.94h6.48v9.68Zm0 15.12a9.19 9.19 0 0 0 2.54 1.49c.88.34 1.81.5 2.79.5 1.51 0 2.71-.61 3.6-1.83s1.34-3.02 1.34-5.39-.42-4-1.27-5.14a4.1 4.1 0 0 0-3.5-1.72c-1.89 0-3.72.98-5.49 2.95v9.14ZM700.19 461.66c-.33 1.22-.85 2.3-1.56 3.23s-1.56 1.73-2.56 2.37c-1 .64-2.13 1.12-3.39 1.45s-2.61.49-4.04.49c-1.93 0-3.69-.27-5.28-.8s-2.95-1.3-4.09-2.31-2.02-2.24-2.65-3.69c-.63-1.45-.94-3.1-.94-4.95s.3-3.44.91-4.89 1.46-2.68 2.56-3.69 2.42-1.79 3.94-2.33 3.22-.81 5.07-.81 3.63.27 5.17.8a10.17 10.17 0 0 1 6.44 5.98c.59 1.45.88 3.1.88 4.95v1.76h-18.14c.33 1.77 1.04 3.09 2.14 3.97s2.42 1.32 3.98 1.32a5.93 5.93 0 0 0 2.91-.74c.43-.24.81-.54 1.13-.89s.56-.76.7-1.23h6.81Zm-6.53-7.1a5.64 5.64 0 0 0-2.07-3.09c-.96-.69-2.1-1.03-3.42-1.03s-2.44.34-3.42 1.03-1.67 1.72-2.1 3.09h11ZM717.73 468.71c-.83.17-1.58.3-2.27.38s-1.33.12-1.92.12c-1.53 0-2.74-.15-3.65-.46a4.3 4.3 0 0 1-2.08-1.36c-.48-.6-.79-1.36-.92-2.26s-.21-1.96-.21-3.16v-11.04h-2.98v-4.64h2.98v-5.58h6.56v5.58h3.92v4.64h-3.92v11.2a8 8 0 0 0 .08 1.24c.06.31.13.55.23.73.1.17.23.29.39.34s.34.08.54.08c.4 0 .88-.03 1.43-.08s1.16-.13 1.82-.22v4.5ZM735.37 452.57c-.44-1.42-1.77-2.13-4-2.13-.57 0-1.09.04-1.57.12-.48.08-.9.2-1.25.35s-.64.35-.84.59c-.2.23-.3.5-.3.8 0 .23.05.43.15.6.1.16.35.32.75.48.39.16.98.32 1.75.5s1.82.41 3.14.69c1.62.33 3.02.67 4.2 1.03 1.19.36 2.17.8 2.96 1.34a5.03 5.03 0 0 1 1.76 1.95c.39.77.58 1.72.58 2.86a5.9 5.9 0 0 1-.77 2.95c-.51.91-1.24 1.7-2.18 2.37s-2.07 1.2-3.4 1.58c-1.33.38-2.83.57-4.48.57-6.91 0-10.75-2.53-11.52-7.59h6.62c.35 1.94 1.97 2.91 4.85 2.91 1.43 0 2.52-.23 3.27-.7s1.12-1.04 1.12-1.71c0-.31-.08-.57-.23-.79s-.46-.41-.92-.59-1.09-.36-1.9-.55l-3.14-.7a51.12 51.12 0 0 1-4.08-1 10.38 10.38 0 0 1-2.81-1.24c-.74-.49-1.28-1.11-1.64-1.84s-.54-1.66-.54-2.79c0-.97.24-1.87.72-2.71a6.8 6.8 0 0 1 2.04-2.18c.88-.62 1.95-1.1 3.2-1.45 1.25-.35 2.65-.53 4.19-.53 6.71 0 10.3 2.27 10.78 6.82h-6.48ZM783.62 468.67h-6.56v-14.2c0-1.41-.2-2.4-.61-2.99s-1.08-.88-2.04-.88c-1.62 0-3.32.9-5.1 2.7v15.38h-6.45v-14.2c0-1.41-.21-2.4-.62-2.99-.41-.59-1.1-.88-2.05-.88-1.6 0-3.29.9-5.07 2.7v15.38h-6.48v-22.38h6.48v1.29a9.36 9.36 0 0 1 5.76-1.82c1.71 0 3.15.25 4.31.75s2.09 1.25 2.77 2.25a15.6 15.6 0 0 1 2.03-1.57c.62-.39 1.2-.69 1.75-.9.55-.21 1.09-.35 1.63-.42s1.08-.11 1.65-.11c5.73 0 8.6 2.85 8.6 8.55v14.37ZM801.85 445.75c1.69 0 3.21.13 4.56.39 1.35.26 2.5.71 3.45 1.37.95.66 1.67 1.55 2.18 2.67s.76 2.55.76 4.29v14.2h-6.45v-1.17a15.5 15.5 0 0 1-3.46 1.27c-1.24.3-2.57.45-3.98.45-1.32 0-2.55-.17-3.69-.5s-2.13-.81-2.96-1.42a6.9 6.9 0 0 1-1.97-2.18 5.52 5.52 0 0 1-.72-2.79c0-5.42 5.25-8.13 15.74-8.13h1.05a9.19 9.19 0 0 0-.18-1.61c-.1-.46-.32-.85-.65-1.17-.33-.32-.81-.56-1.43-.73s-1.46-.25-2.51-.25c-1.31 0-2.34.17-3.1.52s-1.28.99-1.56 1.95h-6.64c.77-4.77 4.63-7.15 11.58-7.15Zm4.49 12.96h-1.9c-5.51 0-8.27 1.14-8.27 3.42 0 .75.36 1.34 1.08 1.76.72.42 1.68.63 2.89.63s2.38-.21 3.5-.62 2.02-1.02 2.7-1.82v-3.38ZM835.01 451.77c-.57-.2-1.11-.36-1.61-.46-.5-.1-1.2-.15-2.08-.15s-1.69.19-2.43.57-1.46.97-2.18 1.77v15.16h-6.48v-22.38h6.48v1.29a8.48 8.48 0 0 1 6.52-1.76c.48.05 1.08.13 1.78.26v5.7ZM862.31 468.67h-7.78l-7.47-9.91-1.43 1.2v8.72h-6.48v-30.94h6.48v15.42l7.83-6.87h8.52l-10.45 8.67 10.78 13.71ZM873.06 447.6a10.97 10.97 0 0 1 6.12-1.85c6.23 0 9.35 2.85 9.35 8.55v14.37h-6.56v-14.2c0-1.39-.26-2.38-.79-2.98-.52-.59-1.39-.89-2.61-.89-1.76 0-3.6.91-5.51 2.72v15.35h-6.48v-22.38h6.48v1.31ZM906.75 445.75c1.69 0 3.21.13 4.56.39 1.35.26 2.5.71 3.45 1.37.95.66 1.67 1.55 2.18 2.67s.76 2.55.76 4.29v14.2h-6.45v-1.17a15.5 15.5 0 0 1-3.46 1.27c-1.24.3-2.57.45-3.98.45-1.32 0-2.55-.17-3.69-.5s-2.13-.81-2.96-1.42a6.9 6.9 0 0 1-1.97-2.18 5.52 5.52 0 0 1-.72-2.79c0-5.42 5.25-8.13 15.74-8.13h1.05a9.19 9.19 0 0 0-.18-1.61c-.1-.46-.32-.85-.65-1.17-.33-.32-.81-.56-1.43-.73s-1.46-.25-2.51-.25c-1.31 0-2.34.17-3.1.52s-1.28.99-1.56 1.95h-6.64c.77-4.77 4.63-7.15 11.58-7.15Zm4.49 12.96h-1.9c-5.51 0-8.27 1.14-8.27 3.42 0 .75.36 1.34 1.08 1.76.72.42 1.68.63 2.89.63s2.38-.21 3.5-.62 2.02-1.02 2.7-1.82v-3.38ZM940.61 467.5c-.88.55-1.81.97-2.77 1.27a12.87 12.87 0 0 1-7.85-.38 9.42 9.42 0 0 1-5.63-6.03 14.57 14.57 0 0 1-.73-4.75c0-1.84.29-3.5.87-4.96s1.38-2.7 2.4-3.73a10.52 10.52 0 0 1 3.61-2.36c1.39-.55 2.88-.82 4.48-.82 1.05 0 2.04.1 2.98.3.94.2 1.82.5 2.65.89v-9.21h6.45v30.94h-6.45v-1.17Zm0-15.07a8.45 8.45 0 0 0-5.35-1.99c-1.51 0-2.71.59-3.61 1.78s-1.35 2.98-1.35 5.39c0 2.28.42 4 1.27 5.14a4.12 4.12 0 0 0 3.53 1.72c1.93 0 3.77-.98 5.51-2.93v-9.12ZM968.02 452.57c-.44-1.42-1.77-2.13-4-2.13-.57 0-1.09.04-1.57.12-.48.08-.9.2-1.25.35s-.64.35-.84.59c-.2.23-.3.5-.3.8 0 .23.05.43.15.6.1.16.35.32.75.48.39.16.98.32 1.75.5s1.82.41 3.14.69c1.62.33 3.02.67 4.2 1.03 1.19.36 2.17.8 2.96 1.34a5.03 5.03 0 0 1 1.76 1.95c.39.77.58 1.72.58 2.86a5.9 5.9 0 0 1-.77 2.95c-.51.91-1.24 1.7-2.18 2.37s-2.07 1.2-3.4 1.58c-1.33.38-2.83.57-4.48.57-6.91 0-10.75-2.53-11.52-7.59h6.62c.35 1.94 1.97 2.91 4.85 2.91 1.43 0 2.52-.23 3.27-.7s1.12-1.04 1.12-1.71c0-.31-.08-.57-.23-.79s-.46-.41-.92-.59-1.09-.36-1.9-.55l-3.14-.7a51.12 51.12 0 0 1-4.08-1 10.38 10.38 0 0 1-2.81-1.24c-.74-.49-1.28-1.11-1.64-1.84s-.54-1.66-.54-2.79c0-.97.24-1.87.72-2.71a6.8 6.8 0 0 1 2.04-2.18c.88-.62 1.95-1.1 3.2-1.45 1.25-.35 2.65-.53 4.19-.53 6.71 0 10.3 2.27 10.78 6.82h-6.48ZM987.37 470.75c.39 1.55 1.74 2.32 4.05 2.32 1.56 0 2.79-.45 3.68-1.34s1.42-2.28 1.58-4.17a10.79 10.79 0 0 1-5.79 1.64c-1.8 0-3.4-.28-4.78-.83a9.42 9.42 0 0 1-5.63-6.03 14.57 14.57 0 0 1-.73-4.75c0-1.84.29-3.5.87-4.96s1.38-2.7 2.4-3.73a10.52 10.52 0 0 1 3.61-2.36c1.39-.55 2.88-.82 4.48-.82 1.05 0 2.04.1 2.98.3.94.2 1.82.5 2.65.89v-.66h6.45v20.62c0 7.23-3.88 10.85-11.63 10.85-1.58 0-3.01-.16-4.29-.48s-2.39-.78-3.34-1.38a7.35 7.35 0 0 1-2.27-2.2 6.74 6.74 0 0 1-1.05-2.94h6.75Zm9.37-18.33a8.45 8.45 0 0 0-5.35-1.99c-1.51 0-2.71.59-3.61 1.78s-1.35 2.98-1.35 5.39c0 2.28.42 4 1.27 5.17a4.12 4.12 0 0 0 3.53 1.75c1.93 0 3.77-.98 5.51-2.93v-9.16ZM1025.42 451.77c-.57-.2-1.11-.36-1.61-.46-.5-.1-1.2-.15-2.08-.15s-1.69.19-2.43.57-1.46.97-2.18 1.77v15.16h-6.48v-22.38h6.48v1.29a8.48 8.48 0 0 1 6.52-1.76c.48.05 1.08.13 1.78.26v5.7ZM1045.08 467.35a10.97 10.97 0 0 1-6.18 1.85c-6.23 0-9.35-2.84-9.35-8.53v-14.39h6.59v14.2c0 1.39.27 2.38.8 2.98.53.59 1.4.89 2.59.89 1.98 0 3.83-.9 5.54-2.7v-15.38h6.48v22.38h-6.48v-1.31ZM1065.48 447.41a10.59 10.59 0 0 1 5.84-1.66c1.76 0 3.34.28 4.71.83a9.7 9.7 0 0 1 3.49 2.34 9.96 9.96 0 0 1 2.15 3.64c.49 1.42.73 3 .73 4.73s-.29 3.43-.87 4.9a10.53 10.53 0 0 1-6 6.16c-1.38.56-2.88.84-4.49.84-1.1 0-2.1-.09-2.99-.27s-1.75-.48-2.58-.9v9.26h-6.48v-31.01h6.48v1.12Zm0 15.16a8.3 8.3 0 0 0 5.32 1.95c1.51 0 2.71-.61 3.6-1.83s1.34-3.02 1.34-5.39-.42-4-1.27-5.14a4.1 4.1 0 0 0-3.5-1.72c-1.89 0-3.72.98-5.49 2.95v9.19ZM1094.81 447.41a10.59 10.59 0 0 1 5.84-1.66c1.76 0 3.34.28 4.71.83a9.7 9.7 0 0 1 3.49 2.34 9.96 9.96 0 0 1 2.15 3.64c.49 1.42.73 3 .73 4.73s-.29 3.43-.87 4.9a10.53 10.53 0 0 1-6 6.16c-1.38.56-2.88.84-4.49.84-1.1 0-2.1-.09-2.99-.27s-1.75-.48-2.58-.9v9.26h-6.48v-31.01h6.48v1.12Zm0 15.16a8.3 8.3 0 0 0 5.32 1.95c1.51 0 2.71-.61 3.6-1.83s1.34-3.02 1.34-5.39-.42-4-1.27-5.14a4.1 4.1 0 0 0-3.5-1.72c-1.89 0-3.72.98-5.49 2.95v9.19Z" />
</svg>