<svg xmlns="http://www.w3.org/2000/svg" xml:space="preserve" viewBox="0 0 160 160"><path d="M52.629 188.621c.055 75.625 61.184 136.75 135.992 137.004 75.695-.254 136.817-61.379 137.004-137.004-.187-74.871-61.309-135.992-137.004-135.992-74.808 0-135.937 61.121-135.992 135.992Z" style="fill:none;stroke:#000;stroke-width:10;stroke-linecap:butt;stroke-linejoin:miter;stroke-miterlimit:3.8599999;stroke-dasharray:none;stroke-opacity:1" transform="matrix(.54216 0 0 -.54216 -22.287 182.86)"/><path d="M74.523 200.137c1.414-.059 2.34.117 3.336.703 1.797 1.035 2.957 2.93 3.25 5.371.555 4.578-2.375 7.832-7.629 8.469-5.214.633-8.828-1.809-9.378-6.321-.489-4.035 1.523-7.011 5.218-7.668l.399 3.254c-2.047.45-3.075 1.914-2.82 3.985.312 2.578 2.59 3.847 6.132 3.418 3.586-.442 5.535-2.285 5.215-4.903-.14-1.164-.656-2.07-1.512-2.597-.488-.313-.933-.43-1.828-.528l-.383-3.183" style="fill:#000;fill-opacity:1;fill-rule:nonzero;stroke:none" transform="matrix(.54216 0 0 -.54216 -22.287 182.86)"/><path d="M74.523 200.137c1.414-.059 2.34.117 3.336.703 1.797 1.035 2.957 2.93 3.25 5.371.555 4.578-2.375 7.832-7.629 8.469-5.214.633-8.828-1.809-9.378-6.321-.489-4.035 1.523-7.011 5.218-7.668l.399 3.254c-2.047.45-3.075 1.914-2.82 3.985.312 2.578 2.59 3.847 6.132 3.418 3.586-.442 5.535-2.285 5.215-4.903-.14-1.164-.656-2.07-1.512-2.597-.488-.313-.933-.43-1.828-.528z" style="fill:none;stroke:#231f20;stroke-width:1.12189996;stroke-linecap:butt;stroke-linejoin:miter;stroke-miterlimit:10;stroke-dasharray:none;stroke-opacity:1" transform="matrix(.54216 0 0 -.54216 -22.287 182.86)"/><path d="m71.297 187.367-7.445-.148.07-3.375 16.402.328-.07 3.394-6.145-.121-.125 6.481 6.145.117-.07 3.379-16.403-.332.063-3.367 7.453.144.125-6.5" style="fill:#000;fill-opacity:1;fill-rule:nonzero;stroke:none" transform="matrix(.54216 0 0 -.54216 -22.287 182.86)"/><path d="m71.297 187.367-7.445-.148.07-3.375 16.402.328-.07 3.394-6.145-.121-.125 6.481 6.145.117-.07 3.379-16.403-.332.063-3.367 7.453.144z" style="fill:none;stroke:#231f20;stroke-width:1.12521994;stroke-linecap:butt;stroke-linejoin:miter;stroke-miterlimit:10;stroke-dasharray:none;stroke-opacity:1" transform="matrix(.54216 0 0 -.54216 -22.287 182.86)"/><path d="m68.703 169.988-3.101-1.59.554-3.425 15.332 8.23-.597 3.699-17.172 3.141.55-3.402 3.45-.567zm2.637 1.367-.684 4.231 6.692-1.082z" style="fill:#000;fill-opacity:1;fill-rule:nonzero;stroke:none" transform="matrix(.54216 0 0 -.54216 -22.287 182.86)"/><path d="m68.703 169.988-3.101-1.59.554-3.425 15.332 8.23-.597 3.699-17.172 3.141.55-3.402 3.45-.567zm2.637 1.367-.684 4.231 6.692-1.082z" style="fill:none;stroke:#231f20;stroke-width:1.12820005;stroke-linecap:butt;stroke-linejoin:miter;stroke-miterlimit:10;stroke-dasharray:none;stroke-opacity:1" transform="matrix(.54216 0 0 -.54216 -22.287 182.86)"/><path d="m83.883 161.863-.88 3.282-15.91-4.266 2.923-10.891 2.722.735-2.039 7.617 13.184 3.523" style="fill:#000;fill-opacity:1;fill-rule:nonzero;stroke:none" transform="matrix(.54216 0 0 -.54216 -22.287 182.86)"/><path d="m83.883 161.863-.88 3.282-15.91-4.266 2.923-10.891 2.722.735-2.039 7.617z" style="fill:none;stroke:#231f20;stroke-width:1.12977004;stroke-linecap:butt;stroke-linejoin:miter;stroke-miterlimit:10;stroke-dasharray:none;stroke-opacity:1" transform="matrix(.54216 0 0 -.54216 -22.287 182.86)"/><path d="m84.277 148.137-10.605-7.699 1.312-3.102 12.891 2.312-11.758-4.98 1.32-3.105 15.086 6.398-1.98 4.676-13.133-2.442 10.852 7.825-1.969 4.636-15.086-6.394 1.313-3.11 11.757 4.985" style="fill:#000;fill-opacity:1;fill-rule:nonzero;stroke:none" transform="matrix(.54216 0 0 -.54216 -22.287 182.86)"/><path d="m84.277 148.137-10.605-7.699 1.312-3.102 12.891 2.312-11.758-4.98 1.32-3.105 15.086 6.398-1.98 4.676-13.133-2.442 10.852 7.825-1.969 4.636-15.086-6.394 1.313-3.11z" style="fill:none;stroke:#231f20;stroke-width:1.12416005;stroke-linecap:butt;stroke-linejoin:miter;stroke-miterlimit:10;stroke-dasharray:none;stroke-opacity:1" transform="matrix(.54216 0 0 -.54216 -22.287 182.86)"/><path d="m88.375 129.309 4.398-6.528 2.332 1.582-4.398 6.516 3.082 2.082 4.75-7.043 2.336 1.57-6.64 9.848-13.614-9.191 6.863-10.176 2.34 1.582-4.98 7.375 3.531 2.383" style="fill:#000;fill-opacity:1;fill-rule:nonzero;stroke:none" transform="matrix(.54216 0 0 -.54216 -22.287 182.86)"/><path d="m88.375 129.309 4.398-6.528 2.332 1.582-4.398 6.516 3.082 2.082 4.75-7.043 2.336 1.57-6.64 9.848-13.614-9.191 6.863-10.176 2.34 1.582-4.98 7.375z" style="fill:none;stroke:#231f20;stroke-width:1.12641001;stroke-linecap:butt;stroke-linejoin:miter;stroke-miterlimit:10;stroke-dasharray:none;stroke-opacity:1" transform="matrix(.54216 0 0 -.54216 -22.287 182.86)"/><path d="m96.957 115.684 2.438-3.02c.921-1.141.863-2-.211-2.859-.102-.086-.278-.235-.524-.403a13.176 13.176 0 0 1-.851-.664c-1.192-.957-1.524-1.336-1.871-2.168l2.285-2.832.472.395c-.097.586.04.957.602 1.402 3.715 3.117 3.832 3.332 3.219 5.528 1.722-.985 3.339-.868 4.902.402 1.016.82 1.664 1.926 1.801 3.047.129 1.054-.242 2.09-1.121 3.183l-5.543 6.856-12.793-10.332 2.125-2.625zm2.195 1.777 3.332 2.684 2.567-3.172c.609-.75.793-1.121.785-1.653-.008-.535-.316-1.043-.914-1.519-.613-.5-1.25-.727-1.754-.637-.473.078-.844.359-1.449 1.113l-2.567 3.184" style="fill:#000;fill-opacity:1;fill-rule:nonzero;stroke:none" transform="matrix(.54216 0 0 -.54216 -22.287 182.86)"/><path d="m96.957 115.684 2.438-3.02c.921-1.141.863-2-.211-2.859-.102-.086-.278-.235-.524-.403a13.176 13.176 0 0 1-.851-.664c-1.192-.957-1.524-1.336-1.871-2.168l2.285-2.832.472.395c-.097.586.04.957.602 1.402 3.715 3.117 3.832 3.332 3.219 5.528 1.722-.985 3.339-.868 4.902.402 1.016.82 1.664 1.926 1.801 3.047.129 1.054-.242 2.09-1.121 3.183l-5.543 6.856-12.793-10.332 2.125-2.625zm2.195 1.777 3.332 2.684 2.567-3.172c.609-.75.793-1.121.785-1.653-.008-.535-.316-1.043-.914-1.519-.613-.5-1.25-.727-1.754-.637-.473.078-.844.359-1.449 1.113z" style="fill:none;stroke:#231f20;stroke-width:1.12797999;stroke-linecap:butt;stroke-linejoin:miter;stroke-miterlimit:10;stroke-dasharray:none;stroke-opacity:1" transform="matrix(.54216 0 0 -.54216 -22.287 182.86)"/><path d="M118.375 100.918c1.012 1.113 1.426 2.07 1.426 3.281 0 1.641-.914 3.34-2.66 4.922-2.911 2.637-5.832 2.805-7.969.43-1.707-1.875-1.59-3.653.457-6.348l1.394-1.875c1.379-1.824 1.575-2.844.688-3.828-.926-1.016-2.414-.79-3.93.586-1.695 1.531-2 3.113-.906 4.48l-2.434 2.207c-2.199-2.734-1.699-5.757 1.399-8.562 3.129-2.844 6.305-3.047 8.535-.586 1.734 1.914 1.676 3.79-.18 6.262l-1.566 2.078c-1.469 1.965-1.668 2.781-.871 3.672.832.91 2.172.754 3.457-.41 1.582-1.426 1.859-2.891.832-4.2l2.328-2.109" style="fill:#000;fill-opacity:1;fill-rule:nonzero;stroke:none" transform="matrix(.54216 0 0 -.54216 -22.287 182.86)"/><path d="M118.375 100.918c1.012 1.113 1.426 2.07 1.426 3.281 0 1.641-.914 3.34-2.66 4.922-2.911 2.637-5.832 2.805-7.969.43-1.707-1.875-1.59-3.653.457-6.348l1.394-1.875c1.379-1.824 1.575-2.844.688-3.828-.926-1.016-2.414-.79-3.93.586-1.695 1.531-2 3.113-.906 4.48l-2.434 2.207c-2.199-2.734-1.699-5.757 1.399-8.562 3.129-2.844 6.305-3.047 8.535-.586 1.734 1.914 1.676 3.79-.18 6.262l-1.566 2.078c-1.469 1.965-1.668 2.781-.871 3.672.832.91 2.172.754 3.457-.41 1.582-1.426 1.859-2.891.832-4.2z" style="fill:none;stroke:#231f20;stroke-width:1.12302995;stroke-linecap:butt;stroke-linejoin:miter;stroke-miterlimit:10;stroke-dasharray:none;stroke-opacity:1" transform="matrix(.54216 0 0 -.54216 -22.287 182.86)"/><path d="m140.215 90.352 4.359-2.012 1.184 2.558-11.957 5.516-1.184-2.558 4.528-2.086-5.707-12.368 3.07-1.414 5.707 12.364" style="fill:#000;fill-opacity:1;fill-rule:nonzero;stroke:none" transform="matrix(.54216 0 0 -.54216 -22.287 182.86)"/><path d="m140.215 90.352 4.359-2.012 1.184 2.558-11.957 5.516-1.184-2.558 4.528-2.086-5.707-12.368 3.07-1.414z" style="fill:none;stroke:#231f20;stroke-width:1.12752998;stroke-linecap:butt;stroke-linejoin:miter;stroke-miterlimit:10;stroke-dasharray:none;stroke-opacity:1" transform="matrix(.54216 0 0 -.54216 -22.287 182.86)"/><path d="m148.852 79.64 7.461-2.6.929 2.679-7.461 2.586 1.227 3.523 8.055-2.793.925 2.668-11.261 3.914-5.411-15.586 11.645-4.043.934 2.676-8.45 2.934 1.407 4.043" style="fill:#000;fill-opacity:1;fill-rule:nonzero;stroke:none" transform="matrix(.54216 0 0 -.54216 -22.287 182.86)"/><path d="m148.852 79.64 7.461-2.6.929 2.679-7.461 2.586 1.227 3.523 8.055-2.793.925 2.668-11.261 3.914-5.411-15.586 11.645-4.043.934 2.676-8.45 2.934z" style="fill:none;stroke:#231f20;stroke-width:1.13138998;stroke-linecap:butt;stroke-linejoin:miter;stroke-miterlimit:10;stroke-dasharray:none;stroke-opacity:1" transform="matrix(.54216 0 0 -.54216 -22.287 182.86)"/><path d="m163.496 73.144 1.953 1.434 4.039-8.008 3.946-.691-5.512 10.39 7.621 5.81-3.906.675-7.504-5.969 1.219 7.063-3.305.566-2.789-16.074 3.305-.574.933 5.378" style="fill:#000;fill-opacity:1;fill-rule:nonzero;stroke:none" transform="matrix(.54216 0 0 -.54216 -22.287 182.86)"/><path d="m163.496 73.144 1.953 1.434 4.039-8.008 3.946-.691-5.512 10.39 7.621 5.81-3.906.675-7.504-5.969 1.219 7.063-3.305.566-2.789-16.074 3.305-.574z" style="fill:none;stroke:#231f20;stroke-width:1.11897004;stroke-linecap:butt;stroke-linejoin:miter;stroke-miterlimit:10;stroke-dasharray:none;stroke-opacity:1" transform="matrix(.54216 0 0 -.54216 -22.287 182.86)"/><path d="m186.121 65.281 3.383-.105.484 16.406-3.371.098-.34-11.153-6.164 11.348-3.468.105-.489-16.406 3.375-.093.336 11.335 6.254-11.535" style="fill:#000;fill-opacity:1;fill-rule:nonzero;stroke:none" transform="matrix(.54216 0 0 -.54216 -22.287 182.86)"/><path d="m186.121 65.281 3.383-.105.484 16.406-3.371.098-.34-11.153-6.164 11.348-3.468.105-.489-16.406 3.375-.093.336 11.335z" style="fill:none;stroke:#231f20;stroke-width:1.12550998;stroke-linecap:butt;stroke-linejoin:miter;stroke-miterlimit:10;stroke-dasharray:none;stroke-opacity:1" transform="matrix(.54216 0 0 -.54216 -22.287 182.86)"/><path d="m197.266 81.367-3.371-.246 1.144-16.394 3.379.234-1.152 16.406" style="fill:#000;fill-opacity:1;fill-rule:nonzero;stroke:none" transform="matrix(.54216 0 0 -.54216 -22.287 182.86)"/><path d="m197.266 81.367-3.371-.246 1.144-16.394 3.379.234z" style="fill:none;stroke:#231f20;stroke-width:1.12775004;stroke-linecap:butt;stroke-linejoin:miter;stroke-miterlimit:10;stroke-dasharray:none;stroke-opacity:1" transform="matrix(.54216 0 0 -.54216 -22.287 182.86)"/><path d="M213.066 79.133c-.253 1.473-.753 2.383-1.699 3.125-1.289 1.004-3.183 1.336-5.5.933-3.855-.672-5.769-2.859-5.222-5.996.429-2.488 1.894-3.484 5.261-3.535l2.324-.047c2.29-.039 3.208-.515 3.43-1.816.235-1.348-.859-2.371-2.859-2.727-2.258-.386-3.672.344-4.082 2.043l-3.227-.554c.805-3.41 3.488-4.875 7.59-4.164 4.141.722 6.25 3.086 5.684 6.347-.442 2.54-1.946 3.637-5.02 3.696l-2.598.046c-2.441.059-3.203.403-3.41 1.575-.215 1.21.735 2.168 2.434 2.46 2.098.36 3.418-.316 3.808-1.925l3.086.539" style="fill:#000;fill-opacity:1;fill-rule:nonzero;stroke:none" transform="matrix(.54216 0 0 -.54216 -22.287 182.86)"/><path d="M213.066 79.133c-.253 1.473-.753 2.383-1.699 3.125-1.289 1.004-3.183 1.336-5.5.933-3.855-.672-5.769-2.859-5.222-5.996.429-2.488 1.894-3.484 5.261-3.535l2.324-.047c2.29-.039 3.208-.515 3.43-1.816.235-1.348-.859-2.371-2.859-2.727-2.258-.386-3.672.344-4.082 2.043l-3.227-.554c.805-3.41 3.488-4.875 7.59-4.164 4.141.722 6.25 3.086 5.684 6.347-.442 2.54-1.946 3.637-5.02 3.696l-2.598.046c-2.441.059-3.203.403-3.41 1.575-.215 1.21.735 2.168 2.434 2.46 2.098.36 3.418-.316 3.808-1.925z" style="fill:none;stroke:#231f20;stroke-width:1.11897004;stroke-linecap:butt;stroke-linejoin:miter;stroke-miterlimit:10;stroke-dasharray:none;stroke-opacity:1" transform="matrix(.54216 0 0 -.54216 -22.287 182.86)"/><path d="m220.715 74.402 1.055 2.192 7.351-5.215 3.828 1.25-9.773 6.617 4.031 8.742-3.789-1.23-3.855-8.828-2.239 6.836-3.203-1.043 5.09-15.579 3.199 1.043-1.695 5.215" style="fill:#000;fill-opacity:1;fill-rule:nonzero;stroke:none" transform="matrix(.54216 0 0 -.54216 -22.287 182.86)"/><path d="m220.715 74.402 1.055 2.192 7.351-5.215 3.828 1.25-9.773 6.617 4.031 8.742-3.789-1.23-3.855-8.828-2.239 6.836-3.203-1.043 5.09-15.579 3.199 1.043z" style="fill:none;stroke:#231f20;stroke-width:1.12421;stroke-linecap:butt;stroke-linejoin:miter;stroke-miterlimit:10;stroke-dasharray:none;stroke-opacity:1" transform="matrix(.54216 0 0 -.54216 -22.287 182.86)"/><path d="m244.316 81.563 2.422-2.5 3.125 1.523-12.324 12.266-3.359-1.641 1.972-17.324 3.094 1.511-.457 3.457zm-2.07 2.128-3.848-1.882-.898 6.707z" style="fill:#000;fill-opacity:1;fill-rule:nonzero;stroke:none" transform="matrix(.54216 0 0 -.54216 -22.287 182.86)"/><path d="m244.316 81.563 2.422-2.5 3.125 1.523-12.324 12.266-3.359-1.641 1.972-17.324 3.094 1.511-.457 3.457zm-2.07 2.128-3.848-1.882-.898 6.707z" style="fill:none;stroke:#231f20;stroke-width:1.12702;stroke-linecap:butt;stroke-linejoin:miter;stroke-miterlimit:10;stroke-dasharray:none;stroke-opacity:1" transform="matrix(.54216 0 0 -.54216 -22.287 182.86)"/><path d="m268.645 102.656 4.761-5.73 2.602 2.156-10.5 12.637-2.617-2.18 3.933-4.726-4.988-4.149-3.938 4.727-2.593-2.161 10.496-12.624 2.597 2.16-4.765 5.73 5.012 4.16" style="fill:#000;fill-opacity:1;fill-rule:nonzero;stroke:none" transform="matrix(.54216 0 0 -.54216 -22.287 182.86)"/><path d="m268.645 102.656 4.761-5.73 2.602 2.156-10.5 12.637-2.617-2.18 3.933-4.726-4.988-4.149-3.938 4.727-2.593-2.161 10.496-12.624 2.597 2.16-4.765 5.73z" style="fill:none;stroke:#231f20;stroke-width:1.12641001;stroke-linecap:butt;stroke-linejoin:miter;stroke-miterlimit:10;stroke-dasharray:none;stroke-opacity:1" transform="matrix(.54216 0 0 -.54216 -22.287 182.86)"/><path d="m268.594 121.406-1.66-1.836 2.031-1.836 1.66 1.829zm2.801 3.098-1.661-1.84 2.036-1.836 1.66 1.828zm.773-5.219c-1.543-1.695-2.234-3.601-2.063-5.64.188-2.141 1.333-4.297 3.149-5.942 1.812-1.64 4.082-2.574 6.211-2.539 2.09.024 3.875.891 5.437 2.629 1.575 1.727 2.254 3.594 2.071 5.664-.164 2.063-1.336 4.309-3.059 5.859-1.894 1.719-4.148 2.637-6.297 2.618-2.109-.032-3.867-.899-5.449-2.649zm2.148-1.914c1.856 2.055 4.688 1.848 7.325-.535 2.48-2.246 2.937-5.117 1.132-7.117-1.828-2.016-4.714-1.828-7.265.476-2.539 2.317-3.02 5.164-1.192 7.176" style="fill:#000;fill-opacity:1;fill-rule:nonzero;stroke:none" transform="matrix(.54216 0 0 -.54216 -22.287 182.86)"/><path d="m268.594 121.406-1.66-1.836 2.031-1.836 1.66 1.829zm2.801 3.098-1.661-1.84 2.036-1.836 1.66 1.828zm.773-5.219c-1.543-1.695-2.234-3.601-2.063-5.64.188-2.141 1.333-4.297 3.149-5.942 1.812-1.64 4.082-2.574 6.211-2.539 2.09.024 3.875.891 5.437 2.629 1.575 1.727 2.254 3.594 2.071 5.664-.164 2.063-1.336 4.309-3.059 5.859-1.894 1.719-4.148 2.637-6.297 2.618-2.109-.032-3.867-.899-5.449-2.649zm2.148-1.914c1.856 2.055 4.688 1.848 7.325-.535 2.48-2.246 2.937-5.117 1.132-7.117-1.828-2.016-4.714-1.828-7.265.476-2.539 2.317-3.02 5.164-1.192 7.176z" style="fill:none;stroke:#231f20;stroke-width:1.12302995;stroke-linecap:butt;stroke-linejoin:miter;stroke-miterlimit:10;stroke-dasharray:none;stroke-opacity:1" transform="matrix(.54216 0 0 -.54216 -22.287 182.86)"/><path d="m291.953 133.953-3.293-5.723 2.453-1.406 1.867 3.254c.758-.539 1.129-1.015 1.395-1.738a4.31 4.31 0 0 0-.305-3.699c-1.367-2.375-4.414-2.883-7.351-1.196-3.074 1.77-4.074 4.336-2.637 6.828.586 1.016 1.367 1.707 2.313 2.032.585.207 1.046.234 1.933.058l1.582 2.766c-3.133 1.324-6.363.008-8.347-3.441-2.364-4.11-.938-8.653 3.503-11.2 4.329-2.492 9.106-1.484 11.321 2.371 1.101 1.926 1.164 3.606.183 5.625l2.082-.718 1.004 1.754-7.703 4.433" style="fill:#000;fill-opacity:1;fill-rule:nonzero;stroke:none" transform="matrix(.54216 0 0 -.54216 -22.287 182.86)"/><path d="m291.953 133.953-3.293-5.723 2.453-1.406 1.867 3.254c.758-.539 1.129-1.015 1.395-1.738a4.31 4.31 0 0 0-.305-3.699c-1.367-2.375-4.414-2.883-7.351-1.196-3.074 1.77-4.074 4.336-2.637 6.828.586 1.016 1.367 1.707 2.313 2.032.585.207 1.046.234 1.933.058l1.582 2.766c-3.133 1.324-6.363.008-8.347-3.441-2.364-4.11-.938-8.653 3.503-11.2 4.329-2.492 9.106-1.484 11.321 2.371 1.101 1.926 1.164 3.606.183 5.625l2.082-.718 1.004 1.754z" style="fill:none;stroke:#231f20;stroke-width:1.12887001;stroke-linecap:butt;stroke-linejoin:miter;stroke-miterlimit:10;stroke-dasharray:none;stroke-opacity:1" transform="matrix(.54216 0 0 -.54216 -22.287 182.86)"/><path d="M295.977 149.844c-1.368.636-2.414.742-3.575.383-1.562-.493-2.922-1.875-3.918-4.028-1.648-3.582-.925-6.426 1.985-7.769 2.312-1.067 3.972-.422 5.945 2.351l1.379 1.895c1.328 1.863 2.258 2.363 3.457 1.804 1.25-.574 1.484-2.07.625-3.933-.969-2.09-2.383-2.852-4.031-2.219l-1.379-2.984c3.281-1.289 6.023.094 7.793 3.902 1.765 3.852 1.015 6.953-2.012 8.352-2.351 1.086-4.133.468-5.937-2.051l-1.536-2.129c-1.433-1.992-2.156-2.422-3.242-1.926-1.133.52-1.386 1.86-.652 3.43.898 1.941 2.219 2.656 3.777 2.058l1.321 2.864" style="fill:#000;fill-opacity:1;fill-rule:nonzero;stroke:none" transform="matrix(.54216 0 0 -.54216 -22.287 182.86)"/><path d="M295.977 149.844c-1.368.636-2.414.742-3.575.383-1.562-.493-2.922-1.875-3.918-4.028-1.648-3.582-.925-6.426 1.985-7.769 2.312-1.067 3.972-.422 5.945 2.351l1.379 1.895c1.328 1.863 2.258 2.363 3.457 1.804 1.25-.574 1.484-2.07.625-3.933-.969-2.09-2.383-2.852-4.031-2.219l-1.379-2.984c3.281-1.289 6.023.094 7.793 3.902 1.765 3.852 1.015 6.953-2.012 8.352-2.351 1.086-4.133.468-5.937-2.051l-1.536-2.129c-1.433-1.992-2.156-2.422-3.242-1.926-1.133.52-1.386 1.86-.652 3.43.898 1.941 2.219 2.656 3.777 2.058z" style="fill:none;stroke:#231f20;stroke-width:1.12752998;stroke-linecap:butt;stroke-linejoin:miter;stroke-miterlimit:10;stroke-dasharray:none;stroke-opacity:1" transform="matrix(.54216 0 0 -.54216 -22.287 182.86)"/><path d="m303.77 155-1.211 2.109 8.457 3.133 1.125 3.867-10.989-4.336-4.953 8.262-1.109-3.824 5.113-8.164-6.914 2.012-.945-3.246 15.754-4.586.933 3.242L303.77 155" style="fill:#000;fill-opacity:1;fill-rule:nonzero;stroke:none" transform="matrix(.54216 0 0 -.54216 -22.287 182.86)"/><path d="m303.77 155-1.211 2.109 8.457 3.133 1.125 3.867-10.989-4.336-4.953 8.262-1.109-3.824 5.113-8.164-6.914 2.012-.945-3.246 15.754-4.586.933 3.242z" style="fill:none;stroke:#231f20;stroke-width:1.125;stroke-linecap:butt;stroke-linejoin:miter;stroke-miterlimit:10;stroke-dasharray:none;stroke-opacity:1" transform="matrix(.54216 0 0 -.54216 -22.287 182.86)"/><path d="M297.168 176.309c-.273-2.266.266-4.231 1.582-5.789 1.387-1.641 3.555-2.739 5.984-3.032 2.434-.3 4.829.246 6.536 1.504 1.691 1.223 2.644 2.961 2.918 5.285.285 2.317-.223 4.231-1.571 5.817-1.328 1.582-3.586 2.738-5.879 3.015-2.539.309-4.902-.242-6.64-1.5-1.707-1.238-2.649-2.957-2.93-5.3zm2.859-.325c.332 2.746 2.766 4.215 6.289 3.786 3.325-.407 5.356-2.473 5.024-5.153-.324-2.691-2.785-4.207-6.195-3.789-3.407.41-5.45 2.461-5.118 5.156" style="fill:#000;fill-opacity:1;fill-rule:nonzero;stroke:none" transform="matrix(.54216 0 0 -.54216 -22.287 182.86)"/><path d="M297.168 176.309c-.273-2.266.266-4.231 1.582-5.789 1.387-1.641 3.555-2.739 5.984-3.032 2.434-.3 4.829.246 6.536 1.504 1.691 1.223 2.644 2.961 2.918 5.285.285 2.317-.223 4.231-1.571 5.817-1.328 1.582-3.586 2.738-5.879 3.015-2.539.309-4.902-.242-6.64-1.5-1.707-1.238-2.649-2.957-2.93-5.3zm2.859-.325c.332 2.746 2.766 4.215 6.289 3.786 3.325-.407 5.356-2.473 5.024-5.153-.324-2.691-2.785-4.207-6.195-3.789-3.407.41-5.45 2.461-5.118 5.156z" style="fill:none;stroke:#231f20;stroke-width:1.12189996;stroke-linecap:butt;stroke-linejoin:miter;stroke-miterlimit:10;stroke-dasharray:none;stroke-opacity:1" transform="matrix(.54216 0 0 -.54216 -22.287 182.86)"/><path d="m299.121 189.473.067-3.375 16.398.328-.227 11.23-2.808-.058.152-7.852-13.582-.273" style="fill:#000;fill-opacity:1;fill-rule:nonzero;stroke:none" transform="matrix(.54216 0 0 -.54216 -22.287 182.86)"/><path d="m299.121 189.473.067-3.375 16.398.328-.227 11.23-2.808-.058.152-7.852z" style="fill:none;stroke:#231f20;stroke-width:1.12521994;stroke-linecap:butt;stroke-linejoin:miter;stroke-miterlimit:10;stroke-dasharray:none;stroke-opacity:1" transform="matrix(.54216 0 0 -.54216 -22.287 182.86)"/><path d="m310.547 211.25 3.105 1.602-.554 3.437-15.332-8.242.593-3.692 17.168-3.144-.547 3.398-3.449.567zm-2.637-1.355.684-4.231-6.692 1.082z" style="fill:#000;fill-opacity:1;fill-rule:nonzero;stroke:none" transform="matrix(.54216 0 0 -.54216 -22.287 182.86)"/><path d="m310.547 211.25 3.105 1.602-.554 3.437-15.332-8.242.593-3.692 17.168-3.144-.547 3.398-3.449.567zm-2.637-1.355.684-4.231-6.692 1.082z" style="fill:none;stroke:#231f20;stroke-width:1.12820005;stroke-linecap:butt;stroke-linejoin:miter;stroke-miterlimit:10;stroke-dasharray:none;stroke-opacity:1" transform="matrix(.54216 0 0 -.54216 -22.287 182.86)"/><path d="m77.606 247.969 4.527-4.473-2.906-5.742 5.855 2.922 4.617-4.602-1.078 6.328 5.742 2.911-6.422 1.015-1.148 6.387-2.914-5.774z" style="fill:none;stroke:#231f20;stroke-width:1.12196004;stroke-linecap:butt;stroke-linejoin:miter;stroke-miterlimit:10;stroke-dasharray:none;stroke-opacity:1" transform="matrix(.54216 0 0 -.54216 -22.287 182.86)"/><path d="m83.867 246.895 2.902 5.761 1.145-6.367 6.418-.996-5.73-2.91 1.085-6.309-4.609 4.571-5.836-2.918 2.89 5.73-4.519 4.465 6.254-1.027" style="fill:#231f20;fill-opacity:1;fill-rule:nonzero;stroke:none" transform="matrix(.54216 0 0 -.54216 -22.287 182.86)"/><path d="m114.961 270.73 4.937 4.114c1.922 1.594 2.758 3.047 2.758 4.785.024 2.012-.863 4.168-2.492 6.133-1.609 1.933-3.57 3.203-5.57 3.566-1.699.313-3.254-.246-5.196-1.867l-4.933-4.102zm.797 4.329-6.895 8.3 2.336 1.942c1.961 1.633 4.067 1.066 6.383-1.727 2.305-2.773 2.473-4.941.516-6.57l-2.34-1.945" style="fill:#000;fill-opacity:1;fill-rule:nonzero;stroke:none" transform="matrix(.54216 0 0 -.54216 -22.287 182.86)"/><path d="m114.961 270.73 4.937 4.114c1.922 1.594 2.758 3.047 2.758 4.785.024 2.012-.863 4.168-2.492 6.133-1.609 1.933-3.57 3.203-5.57 3.566-1.699.313-3.254-.246-5.196-1.867l-4.933-4.102zm.797 4.329-6.895 8.3 2.336 1.942c1.961 1.633 4.067 1.066 6.383-1.727 2.305-2.773 2.473-4.941.516-6.57z" style="fill:none;stroke:#231f20;stroke-width:1.12641001;stroke-linecap:butt;stroke-linejoin:miter;stroke-miterlimit:10;stroke-dasharray:none;stroke-opacity:1" transform="matrix(.54216 0 0 -.54216 -22.287 182.86)"/><path d="m135.844 288.906 2.531-2.355 3.012 1.672-12.809 11.543-3.246-1.797 2.805-17.059 2.992 1.649-.625 3.41zm-2.153 2.012-3.718-2.051-1.219 6.602z" style="fill:#000;fill-opacity:1;fill-rule:nonzero;stroke:none" transform="matrix(.54216 0 0 -.54216 -22.287 182.86)"/><path d="m135.844 288.906 2.531-2.355 3.012 1.672-12.809 11.543-3.246-1.797 2.805-17.059 2.992 1.649-.625 3.41zm-2.153 2.012-3.718-2.051-1.219 6.602z" style="fill:none;stroke:#231f20;stroke-width:1.11783004;stroke-linecap:butt;stroke-linejoin:miter;stroke-miterlimit:10;stroke-dasharray:none;stroke-opacity:1" transform="matrix(.54216 0 0 -.54216 -22.287 182.86)"/><path d="m144.789 304.375 4.457 1.738-1.016 2.61-12.218-4.731 1.015-2.613 4.621 1.785 4.895-12.637 3.141 1.211-4.895 12.637" style="fill:#000;fill-opacity:1;fill-rule:nonzero;stroke:none" transform="matrix(.54216 0 0 -.54216 -22.287 182.86)"/><path d="m144.789 304.375 4.457 1.738-1.016 2.61-12.218-4.731 1.015-2.613 4.621 1.785 4.895-12.637 3.141 1.211z" style="fill:none;stroke:#231f20;stroke-width:1.12189996;stroke-linecap:butt;stroke-linejoin:miter;stroke-miterlimit:10;stroke-dasharray:none;stroke-opacity:1" transform="matrix(.54216 0 0 -.54216 -22.287 182.86)"/><path d="m164.836 299.316 1.769-2.968 3.36.761-9.106 14.661-3.625-.821-2.043-17.199 3.34.762.34 3.457zm-1.516 2.52-4.148-.938.664 6.692z" style="fill:#000;fill-opacity:1;fill-rule:nonzero;stroke:none" transform="matrix(.54216 0 0 -.54216 -22.287 182.86)"/><path d="m164.836 299.316 1.769-2.968 3.36.761-9.106 14.661-3.625-.821-2.043-17.199 3.34.762.34 3.457zm-1.516 2.52-4.148-.938.664 6.692z" style="fill:none;stroke:#231f20;stroke-width:1.11897004;stroke-linecap:butt;stroke-linejoin:miter;stroke-miterlimit:10;stroke-dasharray:none;stroke-opacity:1" transform="matrix(.54216 0 0 -.54216 -22.287 182.86)"/><path d="m178.336 311.816 4.793.344-.199 2.813-13.141-.93.199-2.813 4.973.352.953-13.594 3.371.246-.949 13.582" style="fill:#000;fill-opacity:1;fill-rule:nonzero;stroke:none" transform="matrix(.54216 0 0 -.54216 -22.287 182.86)"/><path d="m178.336 311.816 4.793.344-.199 2.813-13.141-.93.199-2.813 4.973.352.953-13.594 3.371.246z" style="fill:none;stroke:#231f20;stroke-width:1.12775004;stroke-linecap:butt;stroke-linejoin:miter;stroke-miterlimit:10;stroke-dasharray:none;stroke-opacity:1" transform="matrix(.54216 0 0 -.54216 -22.287 182.86)"/><path d="m192.273 306.328 7.856-.547.191 2.813-7.847.547.254 3.711 8.484-.586.195 2.812-11.855.82-1.149-16.394 12.262-.859.195 2.812-8.886.613.3 4.258" style="fill:#000;fill-opacity:1;fill-rule:nonzero;stroke:none" transform="matrix(.54216 0 0 -.54216 -22.287 182.86)"/><path d="m192.273 306.328 7.856-.547.191 2.813-7.847.547.254 3.711 8.484-.586.195 2.812-11.855.82-1.149-16.394 12.262-.859.195 2.812-8.886.613z" style="fill:none;stroke:#231f20;stroke-width:1.12775004;stroke-linecap:butt;stroke-linejoin:miter;stroke-miterlimit:10;stroke-dasharray:none;stroke-opacity:1" transform="matrix(.54216 0 0 -.54216 -22.287 182.86)"/><path d="m208.723 302.844 2.019 1.324 3.621-8.211 3.907-.879-4.969 10.645 7.898 5.41-3.855.879-7.805-5.567 1.582 6.981-3.269.742-3.614-15.906 3.274-.742 1.211 5.324" style="fill:#000;fill-opacity:1;fill-rule:nonzero;stroke:none" transform="matrix(.54216 0 0 -.54216 -22.287 182.86)"/><path d="m208.723 302.844 2.019 1.324 3.621-8.211 3.907-.879-4.969 10.645 7.898 5.41-3.855.879-7.805-5.567 1.582 6.981-3.269.742-3.614-15.906 3.274-.742z" style="fill:none;stroke:#231f20;stroke-width:1.11897004;stroke-linecap:butt;stroke-linejoin:miter;stroke-miterlimit:10;stroke-dasharray:none;stroke-opacity:1" transform="matrix(.54216 0 0 -.54216 -22.287 182.86)"/><path d="m231.316 289.375 3.137-1.25 6.074 15.254-3.144 1.25-4.121-10.383-1.922 12.785-3.227 1.278-6.062-15.254 3.137-1.239 4.199 10.547 1.929-12.988" style="fill:#000;fill-opacity:1;fill-rule:nonzero;stroke:none" transform="matrix(.54216 0 0 -.54216 -22.287 182.86)"/><path d="m231.316 289.375 3.137-1.25 6.074 15.254-3.144 1.25-4.121-10.383-1.922 12.785-3.227 1.278-6.062-15.254 3.137-1.239 4.199 10.547z" style="fill:none;stroke:#231f20;stroke-width:1.12600994;stroke-linecap:butt;stroke-linejoin:miter;stroke-miterlimit:10;stroke-dasharray:none;stroke-opacity:1" transform="matrix(.54216 0 0 -.54216 -22.287 182.86)"/><path d="m250 298.496-2.937 1.688-8.208-14.266 2.942-1.688L250 298.496" style="fill:#000;fill-opacity:1;fill-rule:nonzero;stroke:none" transform="matrix(.54216 0 0 -.54216 -22.287 182.86)"/><path d="m250 298.496-2.937 1.688-8.208-14.266 2.942-1.688z" style="fill:none;stroke:#231f20;stroke-width:1.12887001;stroke-linecap:butt;stroke-linejoin:miter;stroke-miterlimit:10;stroke-dasharray:none;stroke-opacity:1" transform="matrix(.54216 0 0 -.54216 -22.287 182.86)"/><path d="m251.941 285.098 2.407.429.086-9.043 3.261-2.382-.359 11.847 9.473 1.852-3.235 2.355-9.433-2.051 4.25 5.829-2.739 1.992-9.675-13.289 2.734-1.981 3.23 4.442" style="fill:#000;fill-opacity:1;fill-rule:nonzero;stroke:none" transform="matrix(.54216 0 0 -.54216 -22.287 182.86)"/><path d="m251.941 285.098 2.407.429.086-9.043 3.261-2.382-.359 11.847 9.473 1.852-3.235 2.355-9.433-2.051 4.25 5.829-2.739 1.992-9.675-13.289 2.734-1.981z" style="fill:none;stroke:#231f20;stroke-width:1.12735999;stroke-linecap:butt;stroke-linejoin:miter;stroke-miterlimit:10;stroke-dasharray:none;stroke-opacity:1" transform="matrix(.54216 0 0 -.54216 -22.287 182.86)"/><path d="m294.094 254.98-6.242-1.472-3.36 5.555-.637-6.563-6.382-1.484 5.972-2.461-.586-6.465 4.297 4.949 6.074-2.43-3.367 5.567z" style="fill:none;stroke:#231f20;stroke-width:1.13060999;stroke-linecap:butt;stroke-linejoin:miter;stroke-miterlimit:10;stroke-dasharray:none;stroke-opacity:1" transform="matrix(.54216 0 0 -.54216 -22.287 182.86)"/><path d="m289.902 250.188 3.379-5.579-6.086 2.422-4.304-4.961.586 6.477-5.997 2.461 6.407 1.492.617 6.582 3.379-5.566 6.25 1.484-4.231-4.812" style="fill:#231f20;fill-opacity:1;fill-rule:nonzero;stroke:none" transform="matrix(.54216 0 0 -.54216 -22.287 182.86)"/><path d="M85.625 190.625c-.25 56.875 45.813 102.941 102.996 102.996 56.192-.055 102.258-46.121 102.004-102.996.254-56.504-45.812-102.559-102.004-102.996-57.183.437-103.246 46.492-102.996 102.996" style="fill:#000;fill-opacity:1;fill-rule:nonzero;stroke:none" transform="matrix(.54216 0 0 -.54216 -22.287 182.86)"/><path d="M85.625 190.625c-.25 56.875 45.813 102.941 102.996 102.996 56.192-.055 102.258-46.121 102.004-102.996.254-56.504-45.812-102.559-102.004-102.996-57.183.437-103.246 46.492-102.996 102.996Z" style="fill:none;stroke:#231f20;stroke-width:.625;stroke-linecap:butt;stroke-linejoin:miter;stroke-miterlimit:3.8599999;stroke-dasharray:none;stroke-opacity:1" transform="matrix(.54216 0 0 -.54216 -22.287 182.86)"/><path d="M138.621 166.621" style="fill:#fff;fill-opacity:1;fill-rule:nonzero;stroke:none" transform="matrix(.54216 0 0 -.54216 -22.287 182.86)"/><path d="M116.625 159.727c-2.742 4.328-4.523 14.289-5 20h51.004v20h-51.004c.645 4.55 1.758 12.05 5 18h-22.29c-6.272-17.844-5.097-39.707.29-58h22" style="fill:#f35e23;fill-opacity:1;fill-rule:nonzero;stroke:none" transform="matrix(.54216 0 0 -.54216 -22.287 182.86)"/><path d="M118.621 156.262c10.281-21.711 21.684-26.77 22.004-26.992v46.992h22.004v-55.996c-.465-7.461-15.094-20.586-32.004-9.004-15.629 9.551-29.535 30.078-35 45h22.996" style="fill:#f35e23;fill-opacity:1;fill-rule:nonzero;stroke:none" transform="matrix(.54216 0 0 -.54216 -22.287 182.86)"/><path d="M148.621 231.621" style="fill:none;stroke:#231f20;stroke-width:.55624998;stroke-linecap:butt;stroke-linejoin:miter;stroke-miterlimit:3.8599999;stroke-dasharray:none;stroke-opacity:1" transform="matrix(.54216 0 0 -.54216 -22.287 182.86)"/><path d="M143.621 242.266v15.996h17.004v27.004c-15.816-4.145-31.949-13.43-45-27.004h9v-17H103.18c-4.157-7.082-7.407-16.875-8.418-20.996h65.863v22h-17.004" style="fill:#f35e23;fill-opacity:1;fill-rule:nonzero;stroke:none" transform="matrix(.54216 0 0 -.54216 -22.287 182.86)"/><path d="M161.625 244.629" style="fill:none;stroke:#231f20;stroke-width:.55624998;stroke-linecap:butt;stroke-linejoin:miter;stroke-miterlimit:3.8599999;stroke-dasharray:none;stroke-opacity:1" transform="matrix(.54216 0 0 -.54216 -22.287 182.86)"/><path d="M187.629 271.621c45.34-.469 82-37.187 82-81.992 0-45.274-36.66-81.926-82-82v163.992" style="fill:#f35e23;fill-opacity:1;fill-rule:nonzero;stroke:none" transform="matrix(.54216 0 0 -.54216 -22.287 182.86)"/></svg>