<?xml version="1.0" encoding="utf-8"?>
<!-- Generator: Adobe Illustrator 16.0.0, SVG Export Plug-In . SVG Version: 6.00 Build 0)  -->
<!DOCTYPE svg PUBLIC "-//W3C//DTD SVG 1.1//EN" "http://www.w3.org/Graphics/SVG/1.1/DTD/svg11.dtd">
<svg version="1.1" id="Layer_1" xmlns="http://www.w3.org/2000/svg" xmlns:xlink="http://www.w3.org/1999/xlink" x="0px" y="0px"
	 viewBox="0 0 612 792" enable-background="new 0 0 612 792" xml:space="preserve">
<g>
	<path d="M526.005,371.427c-10.653,3.011-20.841,7.455-30.364,12.999c-1.092-12.817-4.732-23.6-10.365-32.846
		c0.572-0.63,1.237-1.195,1.763-1.858c0.637-0.804,1.258-1.646,2.062-2.309c0.789-0.633,1.726-1.075,2.65-1.521
		c3.734-1.719,7.472-3.448,11.194-5.182c2.871-1.326,6.047-3.016,6.786-6.011c0.452-1.838-0.147-3.769-0.775-5.562
		c-2.251-6.385-5.042-12.57-8.156-18.6c-0.04-0.473-0.089-0.972-0.229-1.533c-6.183-24.961-12.802-50.781-29.308-70.846
		c-2.683-3.274-5.687-6.474-7.198-10.399c-1.044-2.759-1.286-5.721-1.491-8.652c-0.628-8.88-0.883-17.879-3.468-26.422
		c-2.83-9.34-8.335-17.711-14.424-25.475c-6.823-8.683-14.69-16.952-24.657-22.01c-14.839-7.583-33.77-7.025-48.114,1.414
		c1.244,7.317,10.442,9.855,16.893,13.824c4.223,2.603,7.601,6.274,10.915,9.896c3.627,3.977,7.276,7.947,10.916,11.918
		c-10.074-2.397-21.983-6.547-24-16.415c-4.807,0.232-8.558,4.608-9.475,9.201c-0.928,4.584,0.329,9.305,1.75,13.764
		c4.828,15.13,11.622,29.656,20.164,43.143c2.005,3.171,4.128,6.283,6.643,9.085c9.511,10.546,23.853,15.515,37.517,20.062
		c-2.667,6.452,0.513,13.683,3.857,19.834c8.914,16.418,19.407,32.007,31.151,46.663c-1.22,2.834-3.677,5.5-6.486,8.08
		c-32.939-28.995-96.147-34.575-168.947-34.575c-71.028,0-133,2.681-166.568,29.875c-2.846-2.611-5.367-5.32-6.599-8.202
		c11.741-14.647,22.231-30.232,31.142-46.65c3.344-6.15,6.528-13.382,3.866-19.831c13.666-4.556,27.989-9.515,37.513-20.07
		c2.519-2.804,4.634-5.91,6.641-9.077c8.549-13.496,15.333-28.007,20.155-43.134c1.43-4.468,2.693-9.184,1.767-13.789
		c-0.918-4.577-4.682-8.956-9.481-9.188c-2.028,9.866-13.921,14.021-23.999,16.403c3.638-3.955,7.274-7.925,10.911-11.896
		c3.316-3.632,6.701-7.307,10.92-9.899c6.446-3.982,15.644-6.52,16.887-13.832c-14.346-8.434-33.258-8.993-48.115-1.422
		c-9.975,5.086-17.832,13.332-24.656,22.03c-6.086,7.736-11.581,16.113-14.415,25.463c-2.584,8.546-2.854,17.546-3.467,26.43
		c-0.209,2.931-0.467,5.885-1.506,8.635c-1.51,3.942-4.497,7.126-7.202,10.408c-16.489,20.056-23.102,45.897-29.297,70.842
		c-0.144,0.577-0.195,1.075-0.24,1.541c-3.1,6.033-5.902,12.212-8.145,18.589c-0.631,1.796-1.241,3.735-0.771,5.569
		c0.738,2.995,3.918,4.681,6.774,6.01c3.73,1.726,7.459,3.463,11.193,5.189c0.931,0.441,1.876,0.873,2.654,1.514
		c0.812,0.659,1.425,1.489,2.058,2.3c0.399,0.509,0.908,0.922,1.33,1.414c-6.547,9.874-10.734,21.841-12.062,36.462
		c-8.681-4.77-17.877-8.656-27.459-11.353c-29,17.045-55.91,37.411-80.038,60.536c4.265,2.63,9.852,2.412,14.58,0.698
		c4.714-1.704,8.788-4.728,12.871-7.6c17.366-12.205,36.225-22.414,56.064-30.334c5.54,9.584,14.455,16.782,23.197,23.75
		c2.023,1.619,4.046,3.241,6.073,4.855c0.15,0.391,0.29,0.78,0.442,1.176c-6-1.25-12.065-2.19-18.199-2.466
		c-20.822,20.109-39.209,42.581-54.631,66.824c4.119,1.372,8.785,0.09,12.407-2.293c3.617-2.374,6.406-5.719,9.241-8.947
		c12.051-13.738,25.773-26.054,40.817-36.653c6.667,6.964,15.704,11.248,24.523,15.39c3.209,1.503,6.419,3.019,9.625,4.519
		c1.138,1.225,2.266,2.432,3.449,3.632c-5.275,0.354-10.525,0.978-15.683,2.137c-12.994,22.331-23.279,46.135-30.553,70.783
		c3.922,0.206,7.627-2.025,10.177-4.93c2.528-2.912,4.106-6.466,5.755-9.93c6.986-14.731,15.788-28.654,26.153-41.381
		c7.529,4.453,16.423,6.03,25.104,7.542c4.057,0.69,8.111,1.404,12.17,2.111c0.056-0.14,0.105-0.312,0.152-0.455
		c33.9,20.7,78.09,33.97,126.474,33.97c55.109,0,104.786-17.188,139.977-42.979c0.682-0.119,1.364-0.239,2.046-0.361
		c8.677-1.491,17.562-3.081,25.093-7.543c10.36,12.731,19.177,26.658,26.161,41.382c1.644,3.463,3.216,7.025,5.751,9.945
		c2.535,2.9,6.249,5.123,10.181,4.914c-7.284-24.641-17.56-48.452-30.549-70.776c-3.936-0.896-7.929-1.536-11.938-1.955
		c0.51-0.583,1.007-1.18,1.495-1.774c1.496-0.551,2.979-1.113,4.47-1.681c9.137-3.43,18.487-7.001,25.722-13.396
		c14.111,11.725,26.766,25.093,37.627,39.718c2.556,3.426,5.069,6.984,8.479,9.63c3.4,2.662,7.938,4.31,12.169,3.278
		c-13.36-25.372-29.806-49.225-48.889-70.899c-5.492-0.188-10.989,0.164-16.448,0.748c1.732-1.376,3.458-2.745,5.18-4.133
		c8.726-6.968,17.669-14.165,23.207-23.75c19.835,7.92,38.7,18.129,56.052,30.334c4.093,2.872,8.167,5.896,12.884,7.6
		c4.717,1.714,10.303,1.932,14.567-0.698C581.93,408.838,555.013,388.472,526.005,371.427z"/>
</g>
</svg>
