<?xml version="1.0" encoding="utf-8"?>
<!-- Generator: Adobe Illustrator 16.0.0, SVG Export Plug-In . SVG Version: 6.00 Build 0)  -->
<!DOCTYPE svg PUBLIC "-//W3C//DTD SVG 1.1//EN" "http://www.w3.org/Graphics/SVG/1.1/DTD/svg11.dtd">
<svg version="1.1" id="Layer_1" xmlns="http://www.w3.org/2000/svg" xmlns:xlink="http://www.w3.org/1999/xlink" x="0px" y="0px"
	 viewBox="0 0 612 792" enable-background="new 0 0 612 792" xml:space="preserve">
<g>
	<g>
		<path d="M506.856,268.421l-19.719,65.023l-52.558-52.03l-28.056,52.03l-38.56-104.059l-84.118,104.059l-35.024-73.842
			l-49.076,57.064l-35.066-57.064l-63.096,73.842l-19.313-37.009c-25.787,63.469-40.788,131.991-40.788,191.416
			c0,165.592,116.043,299.828,259.229,299.828c143.125,0,259.141-134.236,259.141-299.828
			C559.853,419.569,540.09,339.244,506.856,268.421z"/>
		<path d="M167.518,184.676l38.064,55.257l45.948-59.393l38.93,72.051l78.46-108.046l44.075,102.015l25.204-53.325l55.293,49.4
			l16.236-65.927c-12.955-24.155-27.432-47.123-43.208-67.898l-23.252-27.99c-44.021-48.219-95.604-78.967-149.19-76.345
			c-91.678,4.482-166.95,105.521-206.892,221.028l21.273,36.009L167.518,184.676z"/>
	</g>
</g>
</svg>
