<?xml version="1.0" encoding="utf-8"?>
<!-- Generator: Adobe Illustrator 16.0.0, SVG Export Plug-In . SVG Version: 6.00 Build 0)  -->
<!DOCTYPE svg PUBLIC "-//W3C//DTD SVG 1.1//EN" "http://www.w3.org/Graphics/SVG/1.1/DTD/svg11.dtd">
<svg version="1.1" id="Layer_1" xmlns="http://www.w3.org/2000/svg" xmlns:xlink="http://www.w3.org/1999/xlink" x="0px" y="0px"
	 viewBox="0 0 612 792" enable-background="new 0 0 612 792" xml:space="preserve">
<g>
	<g>
		<g>
			<path d="M111.582,346.963c-14.365,0-26.057-11.085-26.057-24.755c0-13.649,11.691-24.719,26.057-24.719
				c14.384,0,26.048,11.069,26.048,24.719C137.629,335.878,125.965,346.963,111.582,346.963 M174.844,201.847
				C71.25,245.431,3.298,338.025,3.298,338.025c0.537,0.589,45.835,53.543,93.636,41.418c2.557-0.646,2.521,6.262,1.164,8.399
				c-2.929,4.588-10.007,4.695-15.494,4.695c-29.145,0-60.046-23.48-75.772-37.427c22.286,26.448,82.432,91.494,160.666,126.831
				C225.88,387.376,183.979,232.468,174.844,201.847"/>
			<path d="M511.01,307.535c-20.262-21.216-49.447-48.48-84.82-72.217c-7.205-4.838-10.617-18.287-41.5-41.334
				c-48.552-36.242-51.148-32.837-96.134-34.943c-3.28-0.155-15.385,22.335-18.696,22.335c-29.246,0-57.408,6.18-83.829,16.056
				c8.943,28.854,53.969,188.157-7.497,289.185c23.455,9.517,48.392,16.186,74.312,18.273c5.618,0.45,11.304,0.688,17.014,0.688
				c8.707,0,17.304-0.547,25.802-1.565c14.11-1.696,27.913-4.722,41.295-8.771c81.327-24.615,148.079-87.367,181.777-123.991
				c0,0,60.166,85.166,81.955,75.172c23.654-10.845-6.979-62.331-9.662-114.453c-2.557-49.834,23.672-100.405,7.915-110.268
				C578.08,208.643,511.01,307.535,511.01,307.535"/>
		</g>
	</g>
</g>
</svg>
