<?xml version="1.0" encoding="utf-8"?>
<!-- Generator: Adobe Illustrator 16.0.0, SVG Export Plug-In . SVG Version: 6.00 Build 0)  -->
<!DOCTYPE svg PUBLIC "-//W3C//DTD SVG 1.1//EN" "http://www.w3.org/Graphics/SVG/1.1/DTD/svg11.dtd">
<svg version="1.1" id="Layer_1" xmlns="http://www.w3.org/2000/svg" xmlns:xlink="http://www.w3.org/1999/xlink" x="0px" y="0px"
	 viewBox="0 0 612 792" enable-background="new 0 0 612 792" xml:space="preserve">
<g>
	<g>
		<path d="M292.612,618.685c14.231-30.546,26.744-61.73,37.007-93.714c7.735,7.856,19.746,12.466,34.893,12.161
			c15.909-0.316,29.793-5.893,43.208-14.027c59.617-36.147,84.636-92.098,89.458-161.624
			c-33.369,39.899-80.562,52.94-125.321,70.657c-8.093,3.205-15.361,7.507-21.789,12.733c3.938-20.585,6.842-41.524,8.705-62.833
			c20.147,16.824,40.684,16.383,61.147-1.596c50.928-44.744,52.3-181.739-1.833-234.208c-4.087,54.278-35.566,94.081-60.819,137.461
			c-2.739-21.31-7.094-42.279-12.924-62.926c20.773-12.869,36.524-41.601,27.888-70.104C357.68,102.56,320.556,64.792,313.971,5.754
			c-40.787,61.296-75.791,112.872-45.273,188.004c5.825,14.335,33.984,29.341,43.464,32.441c2.189,21.975,3.482,43.587,3.718,64.741
			c-4.464-4.644-8.991-9.257-12.925-14.379c-4.917-6.381-9.895-12.686-15.186-18.708c-1.478-1.667-2.949-3.308-4.456-4.923
			c-6.317-6.757-11.353-14.523-17.318-21.59c-8.766-10.386-17.651-20.701-27.219-30.356c-1.292-1.316-13.664-11.184-13.491-12.211
			c-9.777,57.833-9.743,109.852,14.246,159.665c18.909,39.267,45.401,51.097,71.102,35.223c-3.684,29.726-9.213,58.48-16.499,86.127
			c-1.421-7.628-3.85-15.535-7.643-23.564c-2.002-4.253-4.037-8.717-7.008-12.279c-27.657-33.139-57.628-64.324-84.798-107.478
			c-14.292,59.669-18.927,111.563,1.937,162.417c14.389,35.032,46.045,49.723,73.612,37.941c2.734-1.163,5.134-2.712,7.44-4.346
			c-9.29,23.593-25.006,54.302-42.556,86.104c-3.934-16.957-12.802-32.657-26.928-47.073
			c-21.491-21.931-41.451-44.924-54.502-73.317c-5.454-11.852-15.701-22.914-22.731-1.35
			c-17.846,54.704-28.146,109.844,1.387,164.395c15.951,29.476,33.675,42.159,55.837,38.893
			c-10.581,17.887-20.341,34.227-28.157,47.486c-8.09,13.765-17.188,32.744,2.368,44.312c20.408,12.094,36.536-0.255,47.796-17.416
			c8.948-13.65,17.623-27.416,26.057-41.289c11.462,18.525,33.71,20.947,71.908,9.46c86.086-25.924,133.747-90.066,166.466-180.754
			c-45.652,23.997-83.099,43.783-125.331,51.279C329.67,606.691,310.569,611.492,292.612,618.685z"/>
	</g>
</g>
</svg>
