<?xml version="1.0" encoding="utf-8"?>
<!-- Generator: Adobe Illustrator 16.0.0, SVG Export Plug-In . SVG Version: 6.00 Build 0)  -->
<!DOCTYPE svg PUBLIC "-//W3C//DTD SVG 1.1//EN" "http://www.w3.org/Graphics/SVG/1.1/DTD/svg11.dtd">
<svg version="1.1" id="Layer_1" xmlns="http://www.w3.org/2000/svg" xmlns:xlink="http://www.w3.org/1999/xlink" x="0px" y="0px"
	 viewBox="0 0 612 792" enable-background="new 0 0 612 792" xml:space="preserve">
<g>
	<path d="M474.521,514.76c2.656-4.072,3.37-8.217,3.521-12.475c0.05-1.968,2.199-5.81-2.602-4.871
		c-3.556,0.714-9.863-2.1-9.526,5.434C466.185,508.513,471.08,510.857,474.521,514.76 M445.981,589.685
		c3.727-2.581,3.631-5.222,4.309-7.522c7.487-24.838,6.202-49.807,1.261-74.835c-0.337-1.657,0.382-4.077-2.023-4.52
		c-2.149-0.432-3.952,1.034-5.414,2.531c-1.737,1.737-1.677,4.053-2.109,6.287c-2.947,15.718-0.823,31.392,0.392,47.064
		C443.189,568.704,444.691,578.638,445.981,589.685 M422.299,509.486c3.404-4.62,4.438-10.626,10.425-12.484
		c2.336-0.738,2.306-2.26,0.864-4.213c-10.205-13.845-21.413-26.425-37.332-34.596c-6.81-3.465-12.454-3.686-18.712,0.191
		c-1.667,1.015-3.153,2.707-5.905,2.35c-0.356-3.224,1.521-5.583,3.615-7.477c4.721-4.244,1.828-5.408-2.279-7.156
		c-10.043-4.27-20.087-1.387-30.141-0.688c-2.024,0.156-4.014,1.29-6.107,0.156c-0.667-3.144,3.687-3.26,3.737-6.749
		c-6.554-0.789-13.248-1.578-19.932-2.381c12.086-4.962,24.611-1.602,37.006-2.621c-11.27-5.685-23.604-8.383-34.621-14.604
		c10.887-3.145,21.509-0.056,32.592,1.586c-1.481-3.961-5.002-6.387-5.941-11.083c10.009,2.627,16.868,9.211,25.817,14.212
		c-1.747-7.428,3.525-11.027,6.95-15.547c2.591-3.436,5.766-3.34,9.19-1.684c3.128,1.543,4.278,3.165,0.607,5.695
		c-0.989,0.713,0.818,2.32,1.603,3.375c2.35,3.073,5.268,5.846,6.93,9.229c4.389,8.849,11.861,11.842,21.805,11.792
		c-3.078-4.65-8.281-6.729-11.561-10.646c-1.146-1.341-3.313-2.506-2.3-4.51c1.015-1.979,3.254-1.055,5.001-0.758
		c1.598,0.281,3.149,0.738,4.691,1.189c11.098,3.135,17.405-1.982,16.551-13.298c-0.226-3.022-2.214-5.95,3.024-8.069
		c2.893-1.17-8.478-31.181-6.157-37.448c1.929-5.223-1.718-10.053-4.435-14.392c-2.415-3.836-4.213-7.503-2.485-11.993
		c0.507-1.335,0.683-2.531-0.12-3.851c-4.38-7.357-19.395-8.653-24.442-1.888c-4.102,5.438-10.279,5.086-15.763,5.157
		c-10.485,0.081-20.313-13.75-17.517-23.452c0.975-3.435,3.144-3.506,5.841-2.431c2.687,1.024,5.317,2.33,8.552,3.756
		c0.562-4.208-1.798-6.659-3.022-9.421c-2.336-5.327-1.692-9.842,3.986-12.484c2.446-1.135,3.496-2.229,1.984-4.479
		c-2.164-3.219-4.038-6.267-3.731-10.536c0.181-2.582-2.059-2.039-3.967-0.975c-14.253,8.045-28.865,1.813-33.084-13.961
		c-0.447-1.677-1.693-3.164-2.691-4.67c-1.834-2.742-1.898-4.835,1.596-6.458c4.48-2.16,5.048-4.58,0-6.85
		c-1.285-0.603-2.852-1.577-2.41-2.958c2.271-7.296-3.214-6.896-7.724-7.719c-2.681-0.512-5.805-0.823-7.828-2.35
		c-3.18-2.46-6.891-5.54-6.64-9.793c0.267-5.046,6.524-3.042,9.392-5.865c-4.867-2.636-10.009-4.73-14.277-7.904
		c-3.947-2.933-11.731-5.333-4.961-12.635c0.723-0.758,0.441-1.833-0.332-2.416c-4.771-3.485-5.042-8.818-6.162-13.845
		c-0.356-1.623-1.28-3.325-2.865-3.536c-6.745-0.919-10.164-7.302-16.464-9.104c-4.052-1.13-7.168-4.008-8.637-8.221
		c-1.291-3.727-3.909-6.488-6.883-9.145c-10.206-9.155-20.536-18.304-33.402-23.657c-5.968-2.481-11.038-6.163-16.69-8.879
		c-4.715-2.249-7.041-5.794-8.607-10.018c-2.601-6.926-0.155-10.763,7.382-11.736c13.973-1.783,27.583-1.336,40.491,5.368
		c3.722,1.923,8.69,1.306,12.763,1.391c13.342,0.11,25.621,5.303,38.945,6.081c12.443,0.693,25.284,4.425,36.608,10.566
		c3.837,2.069,6.458,5.761,7.522,10.18c0.392,1.678,0.267,3.676,2.441,4.384c0.472-0.372,0.913-0.558,1.154-0.859
		c1.777-2.27-2.842-6.669,1.849-7.352c4.619-0.663,9.963-0.999,13.488,3.395c2.762,3.435,4.438,6.714,10.676,6.534
		c5.564-0.126,8.166,6.583,10.134,11.695c1.342,3.505,1.647,7.352,7.001,2.873c3.997-3.37,9.441,0.903,11.209,8.325
		c2.993-0.788,4.198-6.377,7.773-4.012c4.294,2.863,9.069,7.111,7.864,12.59c-1.657,7.542,1.105,13.268,4.57,19.284
		c1.175,2.054,1.637,3.736,4.419,1.662c2.063-1.591,3.842-6.502,6.854-3.339c2.968,3.128,7.396,6.498,6.111,12.113
		c-0.633,2.757-1.682,5.559-1.145,8.477c1.728,0.729,2.717-0.573,3.957-0.979c3.456-1.11,7.262-5.363,10.415-0.749
		c2.822,4.119,4.399,9.441,0.402,13.835c-4.058,4.5-4.269,5.892,1.787,9.848c8.964,5.826,14.258,14.915,11.601,26.787
		c-1.582,7.131,6.498,17.636,6.544,17.937c1.501,6.704,8.24,8.437,12.077,12.746c2.37,2.642-0.121,7.402-2.611,10.536
		c-2.21,2.762-3.385,5.655-3.671,9.2c-0.477,5.805-2.938,10.692-7.829,14.513c-4.278,3.385-6.533,7.422,0.09,11.033
		c3.546,1.983,1.908,7.518,6.694,8.843c3.5,0.954,6.785,2.677,10.702,4.289c-2.411,3.625-5.483,3.083-8.005,0.874
		c-4.751-4.228-9.3-4.414-13.82-0.104c-6.127,5.824-12.972,4.203-19.851,2.023c-8.442-2.667-6.032,5.362-8.402,8.355
		c-2.46,3.094,1.426,20.439,3.706,22.217c6.469,5.007,1.697,26.867,6.931,31.181c5.614,4.635,6.759,12.238,7.823,19.098
		c1.527,9.953,5.373,18.883,11.063,27.158c2.802-0.537,2.194-2.721,2.37-4.349c1.883-16.989,7.438-32.894,14.669-48.34
		c0.769-1.607,1.798-3.556,1.436-5.092c-1.185-5.082-0.13-7.538,5.866-7.674c3.54-0.075,4.229-3.731,4.51-6.729
		c0.307-3.405,1.456-5.543,5.614-4.981c3.982,0.522,6.097-1.849,6.74-5.323c1.25-7.131,5.96-10.189,12.86-11.214
		c2.917-0.432,5.72-1.582,9.184-2.596c-0.221,2.581,0.343,4.941,2.621,6.718c1.567,1.186-7.812,5.74-9.159,8.166
		c-2.374,4.369-3.113,9.23-4.841,13.8c-0.979,2.622-6.407,10.029-7.938,13.559c-1.814,4.248-5.449,7.121-8.854,10.219
		c-7.196,6.604-12.906,14.006-11.61,24.553c0.382,3.022-1.044,5.734-2.862,8.125c-1.817,2.359-3.796,4.57-5.645,6.859
		c-1.697,2.055-4.801,4.43-3.013,6.88c1.763,2.421,4.64-0.421,6.799-1.245c14.694-5.52,29.353-11.053,45.247-12.524
		c3.887-0.361,7.573-1.858,11.154-3.585c15.551-7.562,32.495-8.291,49.313-9.392c1.769-0.13,3.761-0.28,5.223,1.743
		c-21.468,10.973-42.7,21.709-67.694,23.366c-14.668,1.015-29.634,1.742-43.755,6.779c-2.06,0.738-4.62,0.738-6.167,3.751
		c14.287-0.286,28.478-2.274,42.857,3.962c-2.662,1.854-4.37,1-5.998,0.713c-10.273-2.008-20.277-0.391-30.181,2.12
		c-1.386,0.357-2.962,0.873-2.591,2.541c0.392,1.787,2.159,1.557,3.455,1.125c16.417-5.384,32.593-0.904,48.723,1.396
		c6.101,0.879,11.258-0.251,16.741-2.43c8.658-3.445,17.587-4.56,26.751,0.149c-6.859,1.467-13.643,3.205-20.543,4.299
		c-5.133,0.814-1.312,2.854-0.854,4.575c-5.533,0.688-11.238-0.235-16.365,2.667c1.229,3.163,5.734,1.723,6.984,5.162
		c-12.865,1.155-25.62,2.29-39.722,3.546c6.136,3.385,11.138,6.503,15.417,13.278c-10.537-4.611-19.526-7.81-29.017-9.522
		c-2.27-0.381-4.51-1.055-6.81-1.265c-11.485-1.065-12.254-0.393-14.162,10.767c-0.598,3.556-1.185,7.201-2.57,10.476
		c-8.778,21.156-8.679,44.081-14.433,65.766c-4.45,16.873-9.758,33.516-14.961,50.188c-3.404,10.987-7.165,21.865-10.922,32.732
		c-1.637,4.751-12.82,8.226-17.044,5.555c-2.351-1.477-0.683-3.305-0.231-4.801c3.204-10.577,6.122-21.283,9.988-31.658
		c7.899-21.202,6.725-42.816,4.616-64.69c-1.879-19.264-3.657-38.598-0.975-57.932c0.502-3.737-0.362-5.78-4.821-4.741
		C428.164,508.653,425.211,508.994,422.299,509.486"/>
	<path d="M106.702,333.994c-64.861-15.954-95.593,24.577-70.946,73.103c14.353,28.288,39.25,44.032,77.261,36.79
		C186.981,429.811,169.553,349.461,106.702,333.994z M120.53,375.675c-10.003-13.573-22.792-27.448-43.271-31.391l1.409-0.598
		c10.591-4.781,23.716,1.582,31.788,7.833C116.015,355.793,128.716,370.403,120.53,375.675z"/>
	<path d="M243.766,442.204c-58.605-18.019-86.383,27.751-64.104,82.519c12.979,31.909,35.466,49.666,69.806,41.501
		C316.309,550.324,300.56,459.66,243.766,442.204z M256.265,489.259c-9.049-15.342-20.594-30.975-39.1-35.444l1.276-0.652
		c9.569-5.408,21.426,1.768,28.732,8.809C252.182,466.807,263.669,483.282,256.265,489.259z"/>
	<path d="M221.546,311.325c-46.394,5.575-51.612,46.031-19.176,77.296c18.913,18.219,40.077,23.627,61.475,7.332
		C305.497,364.235,266.507,305.922,221.546,311.325z M244.797,340.241c-11.045-7.904-23.932-15.226-38.196-12.604l0.691-0.864
		c4.982-6.73,15.467-5.374,22.721-2.752C235.002,325.839,248.104,333.794,244.797,340.241z"/>
	<path d="M62.98,467.072c-66.499,6.328-73.974,52.202-27.484,87.62C62.598,575.333,92.91,581.47,123.558,563
		C183.248,527.022,127.383,460.936,62.98,467.072z M96.274,499.845c-15.824-8.959-34.284-17.265-54.728-14.308l0.987-0.938
		c7.143-7.628,22.168-6.127,32.554-3.114C82.241,483.523,101.01,492.523,96.274,499.845z"/>
</g>
</svg>
