<?xml version="1.0" encoding="utf-8"?>
<!-- Generator: Adobe Illustrator 16.0.0, SVG Export Plug-In . SVG Version: 6.00 Build 0)  -->
<!DOCTYPE svg PUBLIC "-//W3C//DTD SVG 1.1//EN" "http://www.w3.org/Graphics/SVG/1.1/DTD/svg11.dtd">
<svg version="1.1" id="Layer_1" xmlns="http://www.w3.org/2000/svg" xmlns:xlink="http://www.w3.org/1999/xlink" x="0px" y="0px"
	 viewBox="0 0 612 792" enable-background="new 0 0 612 792" xml:space="preserve">
<g>
	<path d="M171.136,241.782c-56.845,41.27-137.298,0-137.298,0s41.816-89.342,77.243-129.917h124.85
		c35.405,40.575,77.265,129.917,77.265,129.917S227.907,200.542,171.136,241.782 M263.652,108.993
		c7.683-4.672,12.964-14.696,12.964-26.399c0-16.111-10.122-29.201-22.612-29.201H93.002c-12.484,0-22.579,13.09-22.579,29.201
		c0,11.703,5.271,21.727,12.949,26.399c-34.521,45.538-69.375,119.631-71.106,123.291l-2.104,4.559v4.939v414.215
		c0,42.975,36.112,77.981,80.46,77.981h165.763c44.397,0,80.555-35.007,80.555-77.981V241.782v-4.963l-2.166-4.535
		C333.027,228.625,298.148,154.531,263.652,108.993"/>
	<path d="M501.452,543.958c-23.672,15.514-82.466-0.351-82.466-0.351l-4.59-57.977h170.946l-4.527,58.647
		C580.815,544.278,525.14,528.358,501.452,543.958 M399.104,471.84l20,255.267h161.612l19.98-255.267H399.104z"/>
</g>
</svg>
