<?xml version="1.0" encoding="utf-8"?>
<!-- Generator: Adobe Illustrator 16.0.0, SVG Export Plug-In . SVG Version: 6.00 Build 0)  -->
<!DOCTYPE svg PUBLIC "-//W3C//DTD SVG 1.1//EN" "http://www.w3.org/Graphics/SVG/1.1/DTD/svg11.dtd">
<svg version="1.1" id="Layer_1" xmlns="http://www.w3.org/2000/svg" xmlns:xlink="http://www.w3.org/1999/xlink" x="0px" y="0px"
	 viewBox="0 0 612 792" enable-background="new 0 0 612 792" xml:space="preserve">
<g>
	<path d="M603.982,340.357C576.772,192.48,437.303,85.975,269.37,85.52c-70.929-2.544-137.466,20.2-194.565,67.388
		c-32.559,26.907-53,60.244-59.062,102.285c-7.631,52.744,3.707,102.523,19.862,152.011c5.38,16.501,7.875,30.931-6.851,45.692
		c-31.043,31.204-29.493,43.164,6.577,68.633c11.355,8.059,23.816,15.082,36.658,20.688c29.003,12.718,56.153,26.954,74.288,53.682
		c9.212,13.613,25.114,16.292,40.754,15.372c21.238-1.223,36.951,6.685,50.391,21.94c10.49,11.861,22.223,22.756,34.104,33.412
		c34.082,30.569,56.417,26.948,72.564-14.558c9.078-23.326,23.432-34.617,48.418-37.261c12.984-1.355,25.597-6.096,38.501-8.798
		C578.99,574.803,622.906,443.143,603.982,340.357z M107.273,488.421c-11.739-120.544,0.221-238.551,46.574-352.644
		C126.092,251.955,115.853,370.055,107.273,488.421z M140.334,485.993c-7.432-142.951,63.321-259.74,142.439-373.693
		C221.718,232.327,148.941,348.451,140.334,485.993z M369.083,166.592C294.828,284.155,222.021,402.458,157.76,525.116
		C204.73,393.899,279.524,276.55,369.083,166.592z M172.57,560.03c100.223-109.924,206.185-215.451,298.209-332.112
		C393.056,355.096,285.598,459.702,172.57,560.03z M203.432,581.645C322.563,509.931,448.891,447.382,547.506,349.4
		C459.145,460.559,333.22,523.567,203.432,581.645z M255.155,595.457c113.771-31.443,220.294-76.815,317.86-139.405
		C483.135,533.42,376.862,579.287,255.155,595.457z"/>
</g>
</svg>
