<?xml version="1.0" encoding="utf-8"?>
<!-- Generator: Adobe Illustrator 16.0.0, SVG Export Plug-In . SVG Version: 6.00 Build 0)  -->
<!DOCTYPE svg PUBLIC "-//W3C//DTD SVG 1.1//EN" "http://www.w3.org/Graphics/SVG/1.1/DTD/svg11.dtd">
<svg version="1.1" id="Layer_1" xmlns="http://www.w3.org/2000/svg" xmlns:xlink="http://www.w3.org/1999/xlink" x="0px" y="0px"
	 viewBox="0 0 612 792" enable-background="new 0 0 612 792" xml:space="preserve">
<g>
	<g>
		<path d="M190.208,390.5c6.83,6.774,13.586,13.607,20.728,20.037c2.509,2.25,4.983,4.533,7.528,6.744
			c3.281,2.854,6.66,5.622,10.002,8.364c3.849,3.213,8.011,5.905,12.451,8.216c8.349,4.344,17.18,7.351,26.169,9.993
			c13.609,3.97,27.424,6.769,41.443,9.062c10.194,1.682,20.438,3.113,30.718,4.211c0.495,0.065,0.988,0.096,1.473,0.156
			c0.627,0.146,0.796,0.411,0.688,1.122c-0.037,0.253-0.109,0.53-0.17,0.784c-0.277,0.953,0.061,1.653,0.797,2.257
			c2.474,2.026,4.656,4.48,6.984,6.695c0.459,0.393,0.894,0.898,1.437,1.231c0.687,0.41,1.255,0.879,1.665,1.525
			c0.351,0.452,0.7,0.838,1.097,1.285c5.49,5.706,11.258,11.171,16.542,17.084c2.401,2.655,4.983,5.146,7.505,7.667
			c1.701,1.707,3.318,3.444,5.043,5.062c0.833,0.784,1.629,1.508,2.015,2.63c0.326,0.94,1.11,1.424,2.039,1.75
			c0.844,0.277,1.786,0.307,2.716,0.265c1.146-0.108,2.23-0.41,3.316-0.736c2.461-0.832,4.813-1.904,7.143-3.172
			c4.211-2.293,8.252-4.958,12.101-7.796c2.051-1.482,3.994-3.027,5.937-4.476c1.025-0.791,2.039-0.976,3.112-0.132
			c0.254,0.241,0.579,0.368,0.894,0.556c23.272,15.442,46.535,30.91,69.868,46.317c2.908,1.954,5.852,3.866,8.759,5.844
			c0.928,0.604,1.847,0.912,2.979,0.64c6.238-1.374,9.882-5.024,11.317-11.226c0.242-0.923,0.107-1.81-0.435-2.619
			c-0.361-0.566-0.736-1.181-1.17-1.76c-4.476-6.732-8.964-13.562-13.501-20.306c-12.559-19.016-25.155-37.902-37.738-56.887
			c-0.325-0.47-0.64-0.929-0.905-1.411c-0.399-0.676-0.41-1.321,0.072-1.997c0.557-0.717,1.099-1.466,1.628-2.226
			c3.861-4.962,7.565-10.077,10.703-15.567c1.701-2.94,3.172-5.999,4.126-9.254c0.373-1.213,0.542-2.491,0.542-3.768
			c-0.047-1.514-0.553-2.757-1.846-3.571c-0.941-0.575-1.64-1.298-2.425-2.038c-4.477-4.474-8.965-8.932-13.428-13.374
			c-5.272-5.267-10.545-10.506-15.818-15.757c-0.603-0.58-1.157-1.273-1.917-1.668c-0.978-0.548-1.688-1.357-2.461-2.16
			c-2.39-2.452-4.731-4.944-7.408-7.149c-0.978-0.777-1.617-1.703-1.87-2.946c-0.508-2.618-1.109-5.235-1.617-7.83
			c-1.811-10.038-3.632-20.122-5.453-30.139c-1.641-8.71-3.366-17.406-5.382-26.073c-2.413-10.638-5.079-21.183-8.939-31.405
			c-2.316-6.144-5.091-12.043-9.266-17.183c-2.98-3.744-5.984-7.42-9.146-10.983c-3.97-4.479-7.998-8.896-12.041-13.226
			c-4.344-4.693-9.013-9.055-13.247-13.848c-2.196-2.464-4.621-4.714-6.962-7.032c-10.473-10.275-20.596-20.866-31.332-30.919
			c-7.166-6.69-13.839-13.875-21.113-20.534c-5.128-4.646-9.87-9.752-15.058-14.402c-4.331-3.868-8.265-8.169-12.645-12.054
			c-4.222-3.804-8.107-7.958-12.342-11.73c-3.462-3.065-6.66-6.461-10.11-9.532c-3.716-3.302-7.142-6.939-10.871-10.228
			c-3.016-2.642-5.791-5.529-8.771-8.204c-3.68-3.367-7.228-6.856-10.931-10.217c-2.377-2.146-4.646-4.433-7.07-6.583
			c-3.476-3.083-6.684-6.401-10.16-9.456c-2.208-1.952-4.294-4.039-6.478-6.012c-3.825-3.33-7.493-6.813-11.136-10.314
			c-2.245-2.205-4.656-4.211-7.275-6.037c-7.83-5.54-16.456-9.009-26-10.339c-1.424-0.208-2.775-0.112-4.138,0.372
			c-3.113,1.043-6.093,2.216-9.097,3.489c-14.346,6.184-27.666,14.225-40.261,23.455c-4.44,3.212-8.723,6.554-12.897,10.068
			c-2.136,1.84-4.332,3.589-6.383,5.577c-1.58,1.52-3.318,2.904-4.935,4.325c-0.361,0.283-0.748,0.455-1.085,0.667l-12.62,12.638
			c-0.325,0.814-0.959,1.373-1.532,2.002c-3.342,3.574-6.732,7.082-9.977,10.741c-3.488,3.973-7.046,7.918-10.461,12.013
			c-5.049,6-9.875,12.161-14.357,18.635c-4.036,5.758-7.745,11.694-10.967,17.935c-3.56,6.768-6.527,13.799-8.578,21.162
			c-0.833,2.946-1.352,5.935-1.991,8.906c-0.181,0.903-0.169,1.829-0.023,2.736c1.574,9.532,5.188,18.251,11.112,25.9
			c1.942,2.546,4.21,4.86,6.412,7.209c4.977,5.254,10.074,10.4,14.912,15.739c3.3,3.595,6.781,6.927,9.984,10.557
			c3.799,4.249,7.974,8.123,11.763,12.373c3.632,4.057,7.667,7.781,11.317,11.857c4.404,4.925,9.242,9.44,13.646,14.318
			c4.548,4.997,9.482,9.613,14.055,14.553c9.978,10.84,20.607,21.02,30.971,31.547c0.591,0.624,1.098,1.272,1.521,1.993
			l54.485,54.483C188.93,389.412,189.593,389.955,190.208,390.5z M94.931,248.913c0,0,48.501-56.624,66.14-74.136
			c15.479-15.393,65.573-57.705,65.573-57.705L357.44,247.844c0,0-51.385,40.632-67.02,56.242
			c-17.302,17.349-64.693,75.598-64.693,75.598L94.931,248.913z"/>
		<path d="M514.949,565.145c4.982,43.011-28.088,71.447-37.559,109.73c-10.521,42.288,14.671,70.447,57.271,73.645
			c36.8,2.793,71.68-24.655,70.303-64.427c-0.977-29.148-23.478-56.622-45.41-74.549c-16.627-13.514-31.636-19.304-40.95-39.346
			L514.949,565.145z"/>
	</g>
</g>
</svg>
