<?xml version="1.0" encoding="utf-8"?>
<!-- Generator: Adobe Illustrator 16.0.0, SVG Export Plug-In . SVG Version: 6.00 Build 0)  -->
<!DOCTYPE svg PUBLIC "-//W3C//DTD SVG 1.1//EN" "http://www.w3.org/Graphics/SVG/1.1/DTD/svg11.dtd">
<svg version="1.1" id="Layer_1" xmlns="http://www.w3.org/2000/svg" xmlns:xlink="http://www.w3.org/1999/xlink" x="0px" y="0px"
	 viewBox="0 0 612 792" enable-background="new 0 0 612 792" xml:space="preserve">
<g>
	<g>
		<path d="M472.979,449.828c-60.69-25.693-120.552-53.225-180.77-79.983c-61.457-27.341-123.222-53.997-184.191-82.35
			c-23.715-11.034-35.985-6.26-49.145,16.186C-19.979,438.091-2.069,563.617,87.426,686.883
			c24.182,33.346,41.197,43.127,88.866,41.82c166.01-4.482,255.743-94.807,316.938-229.265
			C504.92,473.791,498.66,460.663,472.979,449.828z M428.362,488.869c-1.108,13.075-2.342,27.782-9.063,38.505
			c-50.633,80.557-132.337,117.644-222.923,153.097c4.808-24.666,20.356-30.35,31.197-39.452
			c50.338-42.324,96.241-87.765,122.586-148.716c4.145-9.627,11.187-18.459,18.348-26.349c10.45-11.518,23.28-19.31,40.169-13.063
			C425.829,459.263,429.643,473.691,428.362,488.869z"/>
		<path d="M578.568,233.593c-19.17-36.011-51.242-58.837-83.032-82.132c-25.368-18.549-39.001-40.703-31.309-72.308
			c3.104-12.78,8.779-26.345-9.521-34.084c-16.616-7.014-25.808,1.872-34.322,13.417c-18.412,24.958-44.359,29.629-73.44,25.27
			c-31.284-4.705-62.418-10.476-93.818-14.366c-46.986-5.792-87.758,7.394-118.147,43.385
			c-19.093,22.641-35.252,46.607-42.645,76.631c-13.308,53.972-15.079,53.613,37.811,77.232
			c57.583,25.72,115.233,51.295,172.85,76.906c61.334,27.292,122.734,54.581,184.082,81.894c1.262,0.56,2.606,0.963,3.767,1.673
			c27.783,17.194,48.219,7.228,67.858-14.783C604.682,360.761,611.747,295.975,578.568,233.593z M558.251,344.167
			c-0.862,0.732-4.509,6.303-8.745,6.79c-7.884,0.902-12.195-6.11-13.865-12.466c-11.417-43.658-44.758-68.506-81.279-91.124
			c-21.099-13.094-31.827-31.761-15.808-53.954c15.356-21.198,36.33-13.463,55.261-3.375
			C547.272,218.522,581.551,296.688,558.251,344.167z"/>
	</g>
</g>
</svg>
