<?xml version="1.0" encoding="utf-8"?>
<!-- Generator: Adobe Illustrator 16.0.0, SVG Export Plug-In . SVG Version: 6.00 Build 0)  -->
<!DOCTYPE svg PUBLIC "-//W3C//DTD SVG 1.1//EN" "http://www.w3.org/Graphics/SVG/1.1/DTD/svg11.dtd">
<svg version="1.1" id="Layer_1" xmlns="http://www.w3.org/2000/svg" xmlns:xlink="http://www.w3.org/1999/xlink" x="0px" y="0px"
	 viewBox="0 0 612 792" enable-background="new 0 0 612 792" xml:space="preserve">
<g>
	<path d="M406.975,3.485C297.102-3.314,231.322,74.7,219.306,172.807c-9.397,76.269-54.594,152.6-108.823,219.805
		c-32.193,39.899-52.151,86.849-62.188,137.34C22.227,661.789,128.301,786.601,271.223,785.99
		c31.495,1.847,65.112-7.129,96.635-24.803c91.863-51.467,145.919-159.316,129.917-263.64
		c-9.483-62.273-16.336-134.807,4.133-188.369c13.936-36.495,25.004-73.908,36.482-111.296
		C560.21,126.541,501.438,9.323,406.975,3.485z M284.621,389.994c23.217,0.931,28.118,17.263,28.526,32.993
		c-0.697,32.031-27.173,66.22-49.793,65.348c-23.144-0.902-28.498-17.17-28.221-36.193
		C235.482,422.949,261.87,389.128,284.621,389.994z M191.711,388.404c21.049,1.746,25.485,16.894,26.794,31.476
		c0.189,33.156-26.693,67.813-50.827,66.7c-22.736-1.043-29.355-16.786-29.253-35.549
		C138.601,420.982,168.262,386.47,191.711,388.404z M70.144,572.159c4.844-24.345,6.72-53.583,38.577-55.169
		c29.937-1.513,33.981,25.938,33.981,47.567c-0.028,24.716-5.935,53.067-37.254,54.93C75.25,621.255,75.25,592.91,70.144,572.159z
		 M176.888,734.843c-24.25,0.698-50.943-33.669-50.711-66.157c0.931-17.188,7.565-31.779,30.795-31.03
		c23.071,0.75,48.833,33.226,48.79,61.948C205.733,718.216,200.046,734.196,176.888,734.843z M190.969,615.457
		c-21.049-0.799-27.304-15.586-28.279-32.795c-1.644-29.944,25.282-65.177,49.503-65.963c18.139-0.604,30.926,13.645,30.97,34.434
		C243.191,580.108,214.288,616.345,190.969,615.457z M261.652,755.471c-17.15,0.808-29.239-13.603-29.56-35.233
		c-0.422-30.01,26.025-64.937,50.391-64.851c22.882,0.082,29.296,15.908,29.907,34.631
		C313.365,718.296,284.956,754.351,261.652,755.471z M299.561,616.381c-23.362,0.648-28.687-15.303-30.577-31.908
		c-0.422-31.552,26.781-65.023,51.511-64.702c21.048,0.245,27.842,14.072,28.758,31.347
		C350.765,579.666,323.17,615.727,299.561,616.381z M370.011,683.479c-20.991-0.859-26.839-14.67-27.901-29.021
		c-0.495-32.003,26.824-67.51,50.608-67.75c23.755-0.228,28.614,15.964,28.876,34.555
		C422.073,652.42,395.381,684.539,370.011,683.479z M386.143,278.71c-15.318-0.604-18.562-11.371-18.824-21.725
		c0.481-21.13,17.923-43.673,32.848-43.084c15.23,0.603,18.736,11.306,18.547,23.853C418.524,256.993,401.155,279.3,386.143,278.71z
		 M447.384,279.784c-13.891-1.156-16.802-11.128-17.673-20.759c-0.146-21.863,17.6-44.698,33.501-43.966
		c14.997,0.69,19.362,11.066,19.317,23.419C482.355,258.284,462.818,281.05,447.384,279.784z M527.494,158.649
		c-3.217,16.049-4.423,35.33-25.429,36.382c-19.71,0.989-22.402-17.115-22.402-31.371c0.015-16.288,3.929-35.003,24.585-36.217
		C524.176,126.275,524.176,144.968,527.494,158.649z M457.16,51.411c15.957-0.455,33.588,22.195,33.412,43.596
		c-0.581,11.336-4.959,20.958-20.306,20.461c-15.173-0.5-32.178-21.919-32.162-40.83C438.162,62.375,441.901,51.821,457.16,51.411z
		 M447.865,130.108c13.849,0.524,17.98,10.271,18.634,21.599c1.076,19.758-16.657,42.982-32.613,43.51
		c-11.958,0.393-20.396-9.013-20.438-22.708C413.433,153.42,432.488,129.527,447.865,130.108z M401.242,37.813
		c11.317-0.53,19.333,8.972,19.493,23.228c0.305,19.779-17.106,42.814-33.167,42.742c-15.143-0.051-19.317-10.478-19.753-22.814
		C367.188,62.321,385.896,38.548,401.242,37.813z M376.279,129.483c15.449-0.424,18.896,10.106,20.133,21.049
		c0.321,20.798-17.614,42.858-33.965,42.651c-13.864-0.149-18.316-9.281-18.941-20.667
		C342.517,153.718,360.729,129.916,376.279,129.483z M329.848,85.269c13.805,0.574,17.658,9.673,18.416,19.125
		c0.319,21.097-17.705,44.506-33.414,44.67c-15.653,0.143-18.853-10.524-19.028-22.794
		C295.502,105.743,313.118,84.582,329.848,85.269z"/>
</g>
</svg>
