<?xml version="1.0" encoding="utf-8"?>
<!-- Generator: Adobe Illustrator 16.0.0, SVG Export Plug-In . SVG Version: 6.00 Build 0)  -->
<!DOCTYPE svg PUBLIC "-//W3C//DTD SVG 1.1//EN" "http://www.w3.org/Graphics/SVG/1.1/DTD/svg11.dtd">
<svg version="1.1" id="Layer_1" xmlns="http://www.w3.org/2000/svg" xmlns:xlink="http://www.w3.org/1999/xlink" x="0px" y="0px"
	 viewBox="0 0 612 792" enable-background="new 0 0 612 792" xml:space="preserve">
<g>
	<path d="M500.817,482.418c-40.013-29.809-59.121-97.845-34.14-127.84c23.467-28.188,50.856-20.116,76.186-1.973
		c38.299,27.428,56.901,98.991,34.586,128.943C561.023,503.565,529.656,503.929,500.817,482.418"/>
	<path d="M140.23,532.834c-27.199-30.58-63.815-62.505-33.444-103.51c28.552-38.492,68.89-15.719,97.429,6.205
		c32.58,24.981,63.95,60.973,34.454,101.514C210.176,576.219,172.794,547.522,140.23,532.834"/>
	<path d="M90.705,195.441c43.956,33.291,62.186,101.635,36.132,130.281c-24.593,27.092-52.09,19.34-76.712,0.215
		C10.655,295.313-4.641,223.729,21.839,196.741C45.593,172.509,70.159,182.306,90.705,195.441"/>
	<path d="M288.978,297.749c38.278,29.269,56.592,101.603,31.599,129.582c-22.491,25.181-48.346,17.974-72.041,1.73
		c-41.208-28.244-60.22-97.134-36.547-127.885C229.659,278.183,261.534,276.789,288.978,297.749"/>
	<path d="M359.346,299.5c-42.062-31.373-58.471-98.819-32.806-129.108c21.802-25.72,46.96-20.155,70.67-3.812
		c39.219,27.02,58.669,97.591,35.423,127.421C409.673,323.535,383.236,313.942,359.346,299.5"/>
	<path d="M526.262,279.941c-42.729-31.792-61.628-101.459-37.688-131.081c23.896-29.587,50.206-19.24,75.039-0.744
		c41.617,30.917,56.68,96.401,29.466,126.645C570.49,299.854,546.34,293.131,526.262,279.941"/>
	<path d="M324.732,561.221c-21.72-18.525-34.195-41.479-9.51-69.425c24.508-27.759,93.712-26.778,131.487,2.325
		c24.519,18.888,39.825,42.062,17.069,71.309C439.922,596.108,367.334,594.391,324.732,561.221"/>
	<path d="M191.352,81.585c41.572,33.312,59.634,100.622,35.434,127.642c-24.81,27.731-51.729,17.847-76.57-1.652
		c-38.156-29.968-55.842-96.798-31.486-124.022C143.597,55.782,170.194,66.245,191.352,81.585"/>
</g>
</svg>
