<?xml version="1.0" encoding="utf-8"?>
<!-- Generator: Adobe Illustrator 16.0.0, SVG Export Plug-In . SVG Version: 6.00 Build 0)  -->
<!DOCTYPE svg PUBLIC "-//W3C//DTD SVG 1.1//EN" "http://www.w3.org/Graphics/SVG/1.1/DTD/svg11.dtd">
<svg version="1.1" id="Layer_1" xmlns="http://www.w3.org/2000/svg" xmlns:xlink="http://www.w3.org/1999/xlink" x="0px" y="0px"
	 viewBox="0 0 612 792" enable-background="new 0 0 612 792" xml:space="preserve">
<g>
	<path stroke="#FFFFFF" stroke-miterlimit="10" d="M588.059,615.41c-31.45-68.511-81.961-114.377-155.607-132.663
		c-36.943-9.175-59.607-29.976-70.626-67.146c-13.306-44.922-39.726-81.089-86.606-95.947
		c-38.221-12.111-60.114-36.764-71.521-74.483C178.102,160.357,107.68,123.02,34.463,89.361
		c-12.351-5.698-26.188-7.864-24.181,11.945c8.845,88.069-0.239,182.35,81.189,246.632c21.387,16.876,32.625,39.289,37.958,65.597
		c15.79,77.669,64.152,123.726,140.331,141.498c35.307,8.242,67.395,23.732,81.655,57.534
		c28.642,67.927,81.716,83.298,150.561,75.391c12.518,0,28.117,1.004,43.523-0.179C603.215,683.349,611.935,667.366,588.059,615.41z
		 M172.083,306.707c-23.476,17.045-61.058,5.214-80.348-12.195c-27.602-24.891-43.458-58.979-50.368-95.534
		c-4.252-22.688-15.515-93.552,28.374-59.631c11.992,9.28,16.583,23.655,28.743,32.762c26.868,20.125,54.154,24.736,74.399,54.244
		C187.233,247.178,196.329,289.078,172.083,306.707z M348.598,489.281c-9.174,29.418-51.903,30.386-74.782,22.467
		c-29.317-10.141-54.167-29.013-73.415-54.188c-14.881-19.444-32.66-61.171-17.241-85.495c15.354-24.169,56.717-13.282,77.876-6.498
		c31.227,10.044,32.899,30.016,46.987,56.938C318.678,442.834,356.331,464.429,348.598,489.281z M421.677,642.105
		c-25.966-13.33-48.755-35.164-51.114-64.929c-7.854-98.988,154.502-15.885,176.646,28.009
		C586.254,682.644,456.393,659.913,421.677,642.105z"/>
</g>
</svg>
